SplineFontDB: 3.0
FontName: IsabelleTextBold
FullName: IsabelleTextBold
FamilyName: IsabelleText
Weight: Bold
Copyright: 
Version: Release 1.10
ItalicAngle: 0
UnderlinePosition: -98
UnderlineWidth: 246
Ascent: 1556
Descent: 492
sfntRevision: 0x00011999
LayerCount: 2
Layer: 0 1 "Back"  1
Layer: 1 1 "Fore"  0
XUID: [1021 906 1711068302 16423187]
FSType: 0
OS2Version: 1
OS2_WeightWidthSlopeOnly: 0
OS2_UseTypoMetrics: 1
CreationTime: 1050374980
ModificationTime: 1456601640
PfmFamily: 17
TTFWeight: 700
TTFWidth: 5
LineGap: 0
VLineGap: 0
Panose: 2 11 7 9 3 6 4 2 2 4
OS2TypoAscent: 1556
OS2TypoAOffset: 0
OS2TypoDescent: -492
OS2TypoDOffset: 0
OS2TypoLinegap: 410
OS2WinAscent: 2100
OS2WinAOffset: 0
OS2WinDescent: 800
OS2WinDOffset: 0
HheadAscent: 2100
HheadAOffset: 0
HheadDescent: -800
HheadDOffset: 0
OS2SubXSize: 1351
OS2SubYSize: 1228
OS2SubXOff: 0
OS2SubYOff: -446
OS2SupXSize: 1351
OS2SupYSize: 1228
OS2SupXOff: 0
OS2SupYOff: 595
OS2StrikeYSize: 246
OS2StrikeYPos: 614
OS2FamilyClass: 2050
OS2Vendor: 'Bits'
OS2CodePages: 00000001.00000000
OS2UnicodeRanges: 800000af.1000204a.00000000.00000000
MarkAttachClasses: 1
DEI: 91125
TtTable: prep
PUSHW_1
 640
NPUSHB
 116
 190
 254
 3
 187
 187
 3
 186
 187
 3
 185
 250
 3
 183
 250
 3
 182
 181
 71
 5
 182
 187
 3
 181
 71
 3
 180
 50
 3
 179
 150
 3
 178
 50
 3
 177
 100
 3
 176
 150
 3
 175
 174
 19
 5
 175
 107
 3
 174
 19
 3
 172
 19
 3
 171
 254
 3
 170
 169
 13
 5
 170
 250
 3
 169
 13
 3
 168
 167
 140
 5
 168
 254
 3
 168
 192
 4
 167
 166
 89
 5
 167
 140
 3
 167
 128
 4
 166
 165
 38
 5
 166
 89
 3
 166
 64
 4
 165
 38
 3
 164
 254
 3
 163
 50
 3
 162
 21
 3
 161
 160
 71
 5
 161
 254
 3
 161
PUSHW_1
 -47
NPUSHB
 255
 4
 160
 159
 65
 5
 160
 71
 3
 159
 65
 3
 158
 157
 50
 5
 158
 107
 3
 157
 50
 3
 156
 254
 3
 155
 250
 3
 154
 250
 3
 153
 254
 3
 152
 18
 3
 151
 37
 3
 150
 24
 3
 147
 254
 3
 146
 254
 3
 145
 254
 3
 144
 254
 3
 143
 101
 16
 5
 143
 125
 3
 142
 141
 20
 5
 142
 22
 3
 141
 140
 16
 5
 141
 20

StartChar: .notdef
Encoding: 1114112 -1 0
Width: 748
Flags: W
LayerCount: 2
Fore
SplineSet
68 0 m 1,0,-1
 68 1365 l 1,1,-1
 612 1365 l 1,2,-1
 612 0 l 1,3,-1
 68 0 l 1,0,-1
136 68 m 1,4,-1
 544 68 l 1,5,-1
 544 1297 l 1,6,-1
 136 1297 l 1,7,-1
 136 68 l 1,4,-1
EndSplineSet
EndChar

StartChar: uni0005
Encoding: 5 5 3
Width: 1233
Flags: W
LayerCount: 2
Fore
SplineSet
1071 0 m 1,0,-1
 780 0 l 1,1,-1
 580 512 l 1,2,-1
 180 0 l 1,3,-1
 -143 0 l 1,4,-1
 471 782 l 1,5,-1
 184 1493 l 1,6,-1
 475 1493 l 1,7,-1
 662 1030 l 1,8,-1
 1022 1493 l 1,9,-1
 1343 1493 l 1,10,-1
 770 756 l 1,11,-1
 1071 0 l 1,0,-1
EndSplineSet
EndChar

StartChar: uni0006
Encoding: 6 6 4
Width: 1233
Flags: W
LayerCount: 2
Fore
SplineSet
145 1493 m 1,0,-1
 438 1493 l 1,1,-1
 625 844 l 1,2,-1
 1036 1493 l 1,3,-1
 1358 1493 l 1,4,-1
 725 588 l 1,5,-1
 610 0 l 1,6,-1
 317 0 l 1,7,-1
 432 588 l 1,8,-1
 145 1493 l 1,0,-1
EndSplineSet
EndChar

StartChar: uni0007
Encoding: 7 7 5
Width: 1233
Flags: W
LayerCount: 2
Fore
SplineSet
104 -362 m 1,0,-1
 104 1444 l 1,1,-1
 1128 1444 l 1,2,-1
 1128 -362 l 1,3,-1
 104 -362 l 1,0,-1
219 -248 m 1,4,-1
 1014 -248 l 1,5,-1
 1014 1329 l 1,6,-1
 219 1329 l 1,7,-1
 219 -248 l 1,4,-1
EndSplineSet
EndChar

StartChar: exclam
Encoding: 33 33 7
Width: 1233
Flags: W
LayerCount: 2
Fore
SplineSet
483 283 m 1,0,-1
 750 283 l 1,1,-1
 750 0 l 1,2,-1
 483 0 l 1,3,-1
 483 283 l 1,0,-1
483 1493 m 1,4,-1
 750 1493 l 1,5,-1
 750 838 l 1,6,-1
 717 481 l 1,7,-1
 518 481 l 1,8,-1
 483 838 l 1,9,-1
 483 1493 l 1,4,-1
EndSplineSet
EndChar

StartChar: quotedbl
Encoding: 34 34 8
Width: 1233
Flags: W
LayerCount: 2
Fore
SplineSet
999 1493 m 1,0,-1
 999 938 l 1,1,-1
 743 938 l 1,2,-1
 743 1493 l 1,3,-1
 999 1493 l 1,0,-1
487 1493 m 1,4,-1
 487 938 l 1,5,-1
 231 938 l 1,6,-1
 231 1493 l 1,7,-1
 487 1493 l 1,4,-1
EndSplineSet
EndChar

StartChar: numbersign
Encoding: 35 35 9
Width: 1233
Flags: W
LayerCount: 2
Fore
SplineSet
707 1470 m 1,0,-1
 612 1096 l 1,1,-1
 815 1096 l 1,2,-1
 909 1470 l 1,3,-1
 1133 1470 l 1,4,-1
 1036 1096 l 1,5,-1
 1229 1096 l 1,6,-1
 1229 881 l 1,7,-1
 983 881 l 1,8,-1
 909 588 l 1,9,-1
 1114 588 l 1,10,-1
 1114 373 l 1,11,-1
 856 373 l 1,12,-1
 762 0 l 1,13,-1
 541 0 l 1,14,-1
 635 373 l 1,15,-1
 430 373 l 1,16,-1
 336 0 l 1,17,-1
 115 0 l 1,18,-1
 209 373 l 1,19,-1
 2 373 l 1,20,-1
 2 588 l 1,21,-1
 262 588 l 1,22,-1
 336 881 l 1,23,-1
 117 881 l 1,24,-1
 117 1096 l 1,25,-1
 391 1096 l 1,26,-1
 485 1470 l 1,27,-1
 707 1470 l 1,0,-1
762 881 m 1,28,-1
 557 881 l 1,29,-1
 483 588 l 1,30,-1
 688 588 l 1,31,-1
 762 881 l 1,28,-1
EndSplineSet
EndChar

StartChar: dollar
Encoding: 36 36 10
Width: 1233
Flags: W
LayerCount: 2
Fore
SplineSet
694 528 m 1,0,-1
 694 226 l 1,1,2
 757 235 757 235 792 274.5 c 128,-1,3
 827 314 827 314 827 375 c 0,4,5
 827 437 827 437 792.5 476.5 c 128,-1,6
 758 516 758 516 694 528 c 1,0,-1
553 817 m 1,7,-1
 553 1100 l 1,8,9
 491 1092 491 1092 459.5 1058.5 c 128,-1,10
 428 1025 428 1025 428 967 c 0,11,12
 428 910 428 910 459.5 872 c 128,-1,13
 491 834 491 834 553 817 c 1,7,-1
694 -301 m 1,14,-1
 553 -301 l 1,15,-1
 552 0 l 1,16,17
 465 3 465 3 370 26 c 128,-1,18
 275 49 275 49 172 92 c 1,19,-1
 172 354 l 1,20,21
 275 293 275 293 371.5 260 c 128,-1,22
 468 227 468 227 553 226 c 1,23,-1
 553 555 l 1,24,25
 356 594 356 594 260 689.5 c 128,-1,26
 164 785 164 785 164 942 c 0,27,28
 164 1109 164 1109 266 1208 c 128,-1,29
 368 1307 368 1307 553 1319 c 1,30,-1
 553 1556 l 1,31,-1
 694 1556 l 1,32,-1
 695 1319 l 1,33,34
 766 1315 766 1315 842.5 1301 c 128,-1,35
 919 1287 919 1287 999 1262 c 1,36,-1
 999 1006 l 1,37,38
 937 1046 937 1046 861 1070 c 128,-1,39
 785 1094 785 1094 694 1100 c 1,40,-1
 694 793 l 1,41,42
 891 762 891 762 991.5 658.5 c 128,-1,43
 1092 555 1092 555 1092 383 c 0,44,45
 1092 219 1092 219 983.5 114 c 128,-1,46
 875 9 875 9 695 0 c 1,47,-1
 694 -301 l 1,14,-1
EndSplineSet
EndChar

StartChar: percent
Encoding: 37 37 11
Width: 1233
Flags: W
LayerCount: 2
Fore
SplineSet
33 1112 m 256,0,1
 33 1246 33 1246 126 1339 c 128,-1,2
 219 1432 219 1432 352 1432 c 256,3,4
 485 1432 485 1432 578.5 1338.5 c 128,-1,5
 672 1245 672 1245 672 1112 c 256,6,7
 672 979 672 979 578.5 886 c 128,-1,8
 485 793 485 793 352 793 c 256,9,10
 219 793 219 793 126 885.5 c 128,-1,11
 33 978 33 978 33 1112 c 256,0,1
352 1249 m 256,12,13
 295 1249 295 1249 255 1209.5 c 128,-1,14
 215 1170 215 1170 215 1112 c 256,15,16
 215 1054 215 1054 255 1014.5 c 128,-1,17
 295 975 295 975 352 975 c 0,18,19
 410 975 410 975 449.5 1014.5 c 128,-1,20
 489 1054 489 1054 489 1112 c 0,21,22
 489 1169 489 1169 449 1209 c 128,-1,23
 409 1249 409 1249 352 1249 c 256,12,13
86 561 m 1,24,-1
 1128 979 l 1,25,-1
 1169 883 l 1,26,-1
 121 465 l 1,27,-1
 86 561 l 1,24,-1
580 319 m 256,28,29
 580 453 580 453 672.5 546 c 128,-1,30
 765 639 765 639 899 639 c 0,31,32
 1031 639 1031 639 1125 545.5 c 128,-1,33
 1219 452 1219 452 1219 319 c 0,34,35
 1219 187 1219 187 1125 93.5 c 128,-1,36
 1031 0 1031 0 899 0 c 0,37,38
 765 0 765 0 672.5 92.5 c 128,-1,39
 580 185 580 185 580 319 c 256,28,29
897 457 m 0,40,41
 841 457 841 457 801.5 417 c 128,-1,42
 762 377 762 377 762 319 c 256,43,44
 762 261 762 261 801 221.5 c 128,-1,45
 840 182 840 182 897 182 c 0,46,47
 955 182 955 182 995.5 222 c 128,-1,48
 1036 262 1036 262 1036 319 c 256,49,50
 1036 376 1036 376 995 416.5 c 128,-1,51
 954 457 954 457 897 457 c 0,40,41
EndSplineSet
EndChar

StartChar: ampersand
Encoding: 38 38 12
Width: 1233
Flags: W
LayerCount: 2
Fore
SplineSet
870 72 m 1,0,1
 795 22 795 22 710.5 -3.5 c 128,-1,2
 626 -29 626 -29 539 -29 c 0,3,4
 315 -29 315 -29 176 102 c 128,-1,5
 37 233 37 233 37 442 c 0,6,7
 37 587 37 587 107.5 706 c 128,-1,8
 178 825 178 825 317 913 c 1,9,10
 267 991 267 991 243 1057.5 c 128,-1,11
 219 1124 219 1124 219 1184 c 0,12,13
 219 1346 219 1346 328 1433 c 128,-1,14
 437 1520 437 1520 643 1520 c 0,15,16
 716 1520 716 1520 786 1509 c 128,-1,17
 856 1498 856 1498 924 1477 c 1,18,-1
 924 1221 l 1,19,20
 860 1257 860 1257 794.5 1275.5 c 128,-1,21
 729 1294 729 1294 664 1294 c 0,22,23
 584 1294 584 1294 543 1266 c 128,-1,24
 502 1238 502 1238 502 1184 c 0,25,26
 502 1148 502 1148 532.5 1085 c 128,-1,27
 563 1022 563 1022 631 920 c 1,28,-1
 944 440 l 1,29,30
 965 478 965 478 976 527 c 128,-1,31
 987 576 987 576 987 633 c 0,32,33
 987 663 987 663 985 691.5 c 128,-1,34
 983 720 983 720 979 745 c 1,35,-1
 1214 745 l 1,36,-1
 1214 694 l 2,37,38
 1214 549 1214 549 1180 440.5 c 128,-1,39
 1146 332 1146 332 1073 246 c 1,40,-1
 1235 0 l 1,41,-1
 918 0 l 1,42,-1
 870 72 l 1,0,1
440 731 m 1,43,44
 374 688 374 688 340.5 628.5 c 128,-1,45
 307 569 307 569 307 496 c 0,46,47
 307 374 307 374 385.5 290.5 c 128,-1,48
 464 207 464 207 578 207 c 0,49,50
 606 207 606 207 635.5 213.5 c 128,-1,51
 665 220 665 220 693 232 c 0,52,53
 695 233 695 233 701 236 c 0,54,55
 730 250 730 250 748 262 c 1,56,-1
 440 731 l 1,43,44
EndSplineSet
EndChar

StartChar: quotesingle
Encoding: 39 39 13
Width: 1233
Flags: W
LayerCount: 2
Fore
SplineSet
743 1493 m 1,0,-1
 743 938 l 1,1,-1
 487 938 l 1,2,-1
 487 1493 l 1,3,-1
 743 1493 l 1,0,-1
EndSplineSet
EndChar

StartChar: parenleft
Encoding: 40 40 14
Width: 1233
Flags: W
LayerCount: 2
Fore
SplineSet
924 1554 m 1,0,1
 792 1315 792 1315 728 1091 c 128,-1,2
 664 867 664 867 664 643 c 0,3,4
 664 421 664 421 728 195.5 c 128,-1,5
 792 -30 792 -30 924 -270 c 1,6,-1
 696 -270 l 1,7,8
 537 -39 537 -39 460 185.5 c 128,-1,9
 383 410 383 410 383 643 c 0,10,11
 383 875 383 875 460.5 1100.5 c 128,-1,12
 538 1326 538 1326 696 1554 c 1,13,-1
 924 1554 l 1,0,1
EndSplineSet
EndChar

StartChar: parenright
Encoding: 41 41 15
Width: 1233
Flags: W
LayerCount: 2
Fore
SplineSet
309 1554 m 1,0,-1
 537 1554 l 1,1,2
 695 1326 695 1326 772.5 1100.5 c 128,-1,3
 850 875 850 875 850 643 c 0,4,5
 850 410 850 410 773 185.5 c 128,-1,6
 696 -39 696 -39 537 -270 c 1,7,-1
 309 -270 l 1,8,9
 441 -30 441 -30 505 195.5 c 128,-1,10
 569 421 569 421 569 643 c 0,11,12
 569 867 569 867 505 1091 c 128,-1,13
 441 1315 441 1315 309 1554 c 1,0,-1
EndSplineSet
EndChar

StartChar: asterisk
Encoding: 42 42 16
Width: 1233
Flags: W
LayerCount: 2
Fore
SplineSet
1108 1217 m 1,0,-1
 778 1044 l 1,1,-1
 1108 870 l 1,2,-1
 1032 729 l 1,3,-1
 700 913 l 1,4,-1
 700 569 l 1,5,-1
 528 569 l 1,6,-1
 528 913 l 1,7,-1
 197 729 l 1,8,-1
 121 870 l 1,9,-1
 453 1044 l 1,10,-1
 121 1217 l 1,11,-1
 197 1358 l 1,12,-1
 528 1176 l 1,13,-1
 528 1520 l 1,14,-1
 700 1520 l 1,15,-1
 700 1176 l 1,16,-1
 1032 1358 l 1,17,-1
 1108 1217 l 1,0,-1
EndSplineSet
EndChar

StartChar: plus
Encoding: 43 43 17
Width: 1233
Flags: W
LayerCount: 2
Fore
SplineSet
735 1192 m 1,0,-1
 735 762 l 1,1,-1
 1165 762 l 1,2,-1
 1165 524 l 1,3,-1
 735 524 l 1,4,-1
 735 92 l 1,5,-1
 498 92 l 1,6,-1
 498 524 l 1,7,-1
 66 524 l 1,8,-1
 66 762 l 1,9,-1
 498 762 l 1,10,-1
 498 1192 l 1,11,-1
 735 1192 l 1,0,-1
EndSplineSet
EndChar

StartChar: comma
Encoding: 44 44 18
Width: 1233
Flags: W
LayerCount: 2
Fore
SplineSet
461 367 m 1,0,-1
 774 367 l 1,1,-1
 774 96 l 1,2,-1
 578 -287 l 1,3,-1
 362 -287 l 1,4,-1
 461 96 l 1,5,-1
 461 367 l 1,0,-1
EndSplineSet
EndChar

StartChar: hyphen
Encoding: 45 45 19
Width: 1233
Flags: W
LayerCount: 2
Fore
SplineSet
301 735 m 1,0,-1
 932 735 l 1,1,-1
 932 444 l 1,2,-1
 301 444 l 1,3,-1
 301 735 l 1,0,-1
EndSplineSet
EndChar

StartChar: period
Encoding: 46 46 20
Width: 1233
Flags: W
LayerCount: 2
Fore
SplineSet
449 367 m 1,0,-1
 782 367 l 1,1,-1
 782 0 l 1,2,-1
 449 0 l 1,3,-1
 449 367 l 1,0,-1
EndSplineSet
EndChar

StartChar: slash
Encoding: 47 47 21
Width: 1233
Flags: W
LayerCount: 2
Fore
SplineSet
899 1493 m 1,0,-1
 1120 1493 l 1,1,-1
 334 -190 l 1,2,-1
 113 -190 l 1,3,-1
 899 1493 l 1,0,-1
EndSplineSet
EndChar

StartChar: zero
Encoding: 48 48 22
Width: 1233
Flags: W
LayerCount: 2
Fore
SplineSet
492 745 m 256,0,1
 492 798 492 798 528 834 c 128,-1,2
 564 870 564 870 616 870 c 0,3,4
 669 870 669 870 705 834 c 128,-1,5
 741 798 741 798 741 745 c 0,6,7
 741 693 741 693 705 657 c 128,-1,8
 669 621 669 621 616 621 c 0,9,10
 564 621 564 621 528 656.5 c 128,-1,11
 492 692 492 692 492 745 c 256,0,1
616 1270 m 0,12,13
 514 1270 514 1270 467 1145 c 128,-1,14
 420 1020 420 1020 420 745 c 0,15,16
 420 471 420 471 467 346 c 128,-1,17
 514 221 514 221 616 221 c 0,18,19
 719 221 719 221 766 346 c 128,-1,20
 813 471 813 471 813 745 c 0,21,22
 813 1020 813 1020 766 1145 c 128,-1,23
 719 1270 719 1270 616 1270 c 0,12,13
123 745 m 0,24,25
 123 1133 123 1133 246 1326.5 c 128,-1,26
 369 1520 369 1520 616 1520 c 0,27,28
 864 1520 864 1520 987 1327 c 128,-1,29
 1110 1134 1110 1134 1110 745 c 0,30,31
 1110 357 1110 357 987 164 c 128,-1,32
 864 -29 864 -29 616 -29 c 0,33,34
 369 -29 369 -29 246 164.5 c 128,-1,35
 123 358 123 358 123 745 c 0,24,25
EndSplineSet
EndChar

StartChar: one
Encoding: 49 49 23
Width: 1233
Flags: W
LayerCount: 2
Fore
SplineSet
188 260 m 1,0,-1
 518 260 l 1,1,-1
 518 1229 l 1,2,-1
 211 1153 l 1,3,-1
 211 1419 l 1,4,-1
 520 1493 l 1,5,-1
 805 1493 l 1,6,-1
 805 260 l 1,7,-1
 1135 260 l 1,8,-1
 1135 0 l 1,9,-1
 188 0 l 1,10,-1
 188 260 l 1,0,-1
EndSplineSet
EndChar

StartChar: two
Encoding: 50 50 24
Width: 1233
Flags: W
LayerCount: 2
Fore
SplineSet
434 260 m 1,0,-1
 1063 260 l 1,1,-1
 1063 0 l 1,2,-1
 115 0 l 1,3,-1
 115 252 l 1,4,-1
 275 422 l 2,5,6
 560 725 560 725 621 795 c 0,7,8
 696 881 696 881 729 947.5 c 128,-1,9
 762 1014 762 1014 762 1079 c 0,10,11
 762 1179 762 1179 701.5 1233.5 c 128,-1,12
 641 1288 641 1288 530 1288 c 0,13,14
 451 1288 451 1288 352.5 1256.5 c 128,-1,15
 254 1225 254 1225 147 1165 c 1,16,-1
 147 1440 l 1,17,18
 254 1479 254 1479 356.5 1499.5 c 128,-1,19
 459 1520 459 1520 553 1520 c 0,20,21
 790 1520 790 1520 925.5 1409.5 c 128,-1,22
 1061 1299 1061 1299 1061 1108 c 0,23,24
 1061 1020 1061 1020 1031.5 943 c 128,-1,25
 1002 866 1002 866 930 772 c 0,26,27
 877 704 877 704 639 466 c 0,28,29
 510 337 510 337 434 260 c 1,0,-1
EndSplineSet
EndChar

StartChar: three
Encoding: 51 51 25
Width: 1233
Flags: W
LayerCount: 2
Fore
SplineSet
549 668 m 2,0,-1
 391 668 l 1,1,-1
 391 928 l 1,2,-1
 549 928 l 2,3,4
 659 928 659 928 719.5 971.5 c 128,-1,5
 780 1015 780 1015 780 1094 c 0,6,7
 780 1177 780 1177 719.5 1223.5 c 128,-1,8
 659 1270 659 1270 549 1270 c 0,9,10
 465 1270 465 1270 369 1249 c 128,-1,11
 273 1228 273 1228 170 1188 c 1,12,-1
 170 1456 l 1,13,14
 273 1487 273 1487 373 1503.5 c 128,-1,15
 473 1520 473 1520 565 1520 c 0,16,17
 801 1520 801 1520 933 1417 c 128,-1,18
 1065 1314 1065 1314 1065 1133 c 0,19,20
 1065 1000 1065 1000 989 915.5 c 128,-1,21
 913 831 913 831 772 805 c 1,22,23
 932 777 932 777 1016 677.5 c 128,-1,24
 1100 578 1100 578 1100 416 c 0,25,26
 1100 199 1100 199 961 85 c 128,-1,27
 822 -29 822 -29 557 -29 c 0,28,29
 444 -29 444 -29 334.5 -10 c 128,-1,30
 225 9 225 9 125 45 c 1,31,-1
 125 319 l 1,32,33
 219 272 219 272 328 247.5 c 128,-1,34
 437 223 437 223 557 223 c 256,35,36
 677 223 677 223 747 278.5 c 128,-1,37
 817 334 817 334 817 428 c 0,38,39
 817 543 817 543 747 605.5 c 128,-1,40
 677 668 677 668 549 668 c 2,0,-1
EndSplineSet
EndChar

StartChar: four
Encoding: 52 52 26
Width: 1233
Flags: W
LayerCount: 2
Fore
SplineSet
694 1165 m 1,0,-1
 317 575 l 1,1,-1
 694 575 l 1,2,-1
 694 1165 l 1,0,-1
668 1493 m 1,3,-1
 977 1493 l 1,4,-1
 977 575 l 1,5,-1
 1141 575 l 1,6,-1
 1141 322 l 1,7,-1
 977 322 l 1,8,-1
 977 0 l 1,9,-1
 694 0 l 1,10,-1
 694 322 l 1,11,-1
 102 322 l 1,12,-1
 102 608 l 1,13,-1
 668 1493 l 1,3,-1
EndSplineSet
EndChar

StartChar: five
Encoding: 53 53 27
Width: 1233
Flags: W
LayerCount: 2
Fore
SplineSet
193 1493 m 1,0,-1
 1004 1493 l 1,1,-1
 1004 1233 l 1,2,-1
 432 1233 l 1,3,-1
 432 956 l 1,4,5
 468 970 468 970 509 976.5 c 128,-1,6
 550 983 550 983 596 983 c 0,7,8
 818 983 818 983 956 843 c 128,-1,9
 1094 703 1094 703 1094 479 c 0,10,11
 1094 244 1094 244 944.5 107.5 c 128,-1,12
 795 -29 795 -29 537 -29 c 0,13,14
 441 -29 441 -29 343 -13 c 128,-1,15
 245 3 245 3 143 35 c 1,16,-1
 143 301 l 1,17,18
 226 260 226 260 313.5 239.5 c 128,-1,19
 401 219 401 219 489 219 c 0,20,21
 645 219 645 219 726 285.5 c 128,-1,22
 807 352 807 352 807 479 c 0,23,24
 807 596 807 596 726.5 666.5 c 128,-1,25
 646 737 646 737 512 737 c 0,26,27
 433 737 433 737 353.5 717.5 c 128,-1,28
 274 698 274 698 193 659 c 1,29,-1
 193 1493 l 1,0,-1
EndSplineSet
EndChar

StartChar: six
Encoding: 54 54 28
Width: 1233
Flags: W
LayerCount: 2
Fore
SplineSet
643 748 m 256,0,1
 547 748 547 748 496.5 678.5 c 128,-1,2
 446 609 446 609 446 477 c 0,3,4
 446 346 446 346 496.5 276.5 c 128,-1,5
 547 207 547 207 643 207 c 256,6,7
 739 207 739 207 790.5 276.5 c 128,-1,8
 842 346 842 346 842 477 c 256,9,10
 842 608 842 608 790.5 678 c 128,-1,11
 739 748 739 748 643 748 c 256,0,1
1030 1458 m 1,12,-1
 1030 1190 l 1,13,14
 951 1235 951 1235 878.5 1257.5 c 128,-1,15
 806 1280 806 1280 739 1280 c 0,16,17
 579 1280 579 1280 495.5 1172.5 c 128,-1,18
 412 1065 412 1065 408 855 c 1,19,20
 455 920 455 920 528 952.5 c 128,-1,21
 601 985 601 985 700 985 c 0,22,23
 902 985 902 985 1012 857.5 c 128,-1,24
 1122 730 1122 730 1122 496 c 0,25,26
 1122 245 1122 245 998.5 107 c 128,-1,27
 875 -31 875 -31 651 -31 c 0,28,29
 378 -31 378 -31 254.5 152 c 128,-1,30
 131 335 131 335 131 743 c 0,31,32
 131 1131 131 1131 282 1324.5 c 128,-1,33
 433 1518 433 1518 735 1518 c 0,34,35
 805 1518 805 1518 879.5 1503 c 128,-1,36
 954 1488 954 1488 1030 1458 c 1,12,-1
EndSplineSet
EndChar

StartChar: seven
Encoding: 55 55 29
Width: 1233
Flags: W
LayerCount: 2
Fore
SplineSet
135 1493 m 1,0,-1
 1079 1493 l 1,1,-1
 1079 1284 l 1,2,-1
 573 0 l 1,3,-1
 272 0 l 1,4,-1
 758 1233 l 1,5,-1
 135 1233 l 1,6,-1
 135 1493 l 1,0,-1
EndSplineSet
EndChar

StartChar: eight
Encoding: 56 56 30
Width: 1233
Flags: W
LayerCount: 2
Fore
SplineSet
616 666 m 0,0,1
 517 666 517 666 456 603.5 c 128,-1,2
 395 541 395 541 395 438 c 256,3,4
 395 335 395 335 456 272 c 128,-1,5
 517 209 517 209 616 209 c 256,6,7
 715 209 715 209 776.5 273 c 128,-1,8
 838 337 838 337 838 438 c 0,9,10
 838 541 838 541 777 603.5 c 128,-1,11
 716 666 716 666 616 666 c 0,0,1
397 791 m 1,12,13
 284 830 284 830 225 913.5 c 128,-1,14
 166 997 166 997 166 1118 c 0,15,16
 166 1304 166 1304 287 1412 c 128,-1,17
 408 1520 408 1520 616 1520 c 0,18,19
 825 1520 825 1520 946 1412 c 128,-1,20
 1067 1304 1067 1304 1067 1118 c 0,21,22
 1067 998 1067 998 1009 914.5 c 128,-1,23
 951 831 951 831 840 791 c 1,24,25
 964 753 964 753 1034 655 c 128,-1,26
 1104 557 1104 557 1104 420 c 0,27,28
 1104 205 1104 205 977 88 c 128,-1,29
 850 -29 850 -29 616 -29 c 0,30,31
 383 -29 383 -29 256 88 c 128,-1,32
 129 205 129 205 129 420 c 0,33,34
 129 558 129 558 200 656 c 128,-1,35
 271 754 271 754 397 791 c 1,12,13
428 1094 m 0,36,37
 428 1006 428 1006 478.5 954.5 c 128,-1,38
 529 903 529 903 616 903 c 0,39,40
 704 903 704 903 754.5 954.5 c 128,-1,41
 805 1006 805 1006 805 1094 c 0,42,43
 805 1181 805 1181 754.5 1231.5 c 128,-1,44
 704 1282 704 1282 616 1282 c 0,45,46
 530 1282 530 1282 479 1231 c 128,-1,47
 428 1180 428 1180 428 1094 c 0,36,37
EndSplineSet
EndChar

StartChar: nine
Encoding: 57 57 31
Width: 1233
Flags: W
LayerCount: 2
Fore
SplineSet
203 20 m 1,0,-1
 203 289 l 1,1,2
 282 243 282 243 354.5 221 c 128,-1,3
 427 199 427 199 494 199 c 0,4,5
 653 199 653 199 736.5 305.5 c 128,-1,6
 820 412 820 412 825 624 c 1,7,8
 778 559 778 559 705 526.5 c 128,-1,9
 632 494 632 494 532 494 c 0,10,11
 331 494 331 494 221 621.5 c 128,-1,12
 111 749 111 749 111 983 c 0,13,14
 111 1233 111 1233 234 1370 c 128,-1,15
 357 1507 357 1507 582 1507 c 0,16,17
 855 1507 855 1507 978.5 1324.5 c 128,-1,18
 1102 1142 1102 1142 1102 735 c 0,19,20
 1102 348 1102 348 951 154.5 c 128,-1,21
 800 -39 800 -39 498 -39 c 0,22,23
 428 -39 428 -39 353.5 -24 c 128,-1,24
 279 -9 279 -9 203 20 c 1,0,-1
590 741 m 0,25,26
 685 741 685 741 735.5 810.5 c 128,-1,27
 786 880 786 880 786 1012 c 0,28,29
 786 1143 786 1143 735.5 1212.5 c 128,-1,30
 685 1282 685 1282 590 1282 c 0,31,32
 494 1282 494 1282 442.5 1212.5 c 128,-1,33
 391 1143 391 1143 391 1012 c 256,34,35
 391 881 391 881 442.5 811 c 128,-1,36
 494 741 494 741 590 741 c 0,25,26
EndSplineSet
EndChar

StartChar: colon
Encoding: 58 58 32
Width: 1233
Flags: W
LayerCount: 2
Fore
SplineSet
449 1063 m 1,0,-1
 782 1063 l 1,1,-1
 782 698 l 1,2,-1
 449 698 l 1,3,-1
 449 1063 l 1,0,-1
449 367 m 1,4,-1
 782 367 l 1,5,-1
 782 0 l 1,6,-1
 449 0 l 1,7,-1
 449 367 l 1,4,-1
EndSplineSet
EndChar

StartChar: semicolon
Encoding: 59 59 33
Width: 1233
Flags: W
LayerCount: 2
Fore
SplineSet
449 367 m 1,0,-1
 782 367 l 1,1,-1
 782 96 l 1,2,-1
 586 -287 l 1,3,-1
 371 -287 l 1,4,-1
 449 96 l 1,5,-1
 449 367 l 1,0,-1
449 1063 m 1,6,-1
 782 1063 l 1,7,-1
 782 698 l 1,8,-1
 449 698 l 1,9,-1
 449 1063 l 1,6,-1
EndSplineSet
EndChar

StartChar: less
Encoding: 60 60 34
Width: 1233
Flags: W
LayerCount: 2
Fore
SplineSet
1145 926 m 1,0,-1
 350 641 l 1,1,-1
 1145 358 l 1,2,-1
 1145 109 l 1,3,-1
 88 524 l 1,4,-1
 88 760 l 1,5,-1
 1145 1176 l 1,6,-1
 1145 926 l 1,0,-1
EndSplineSet
EndChar

StartChar: equal
Encoding: 61 61 35
Width: 1233
Flags: W
LayerCount: 2
Fore
SplineSet
88 532 m 1,0,-1
 1145 532 l 1,1,-1
 1145 295 l 1,2,-1
 88 295 l 1,3,-1
 88 532 l 1,0,-1
88 987 m 1,4,-1
 1145 987 l 1,5,-1
 1145 752 l 1,6,-1
 88 752 l 1,7,-1
 88 987 l 1,4,-1
EndSplineSet
EndChar

StartChar: greater
Encoding: 62 62 36
Width: 1233
Flags: W
LayerCount: 2
Fore
SplineSet
88 926 m 1,0,-1
 88 1176 l 1,1,-1
 1145 760 l 1,2,-1
 1145 524 l 1,3,-1
 88 109 l 1,4,-1
 88 358 l 1,5,-1
 883 641 l 1,6,-1
 88 926 l 1,0,-1
EndSplineSet
EndChar

StartChar: question
Encoding: 63 63 37
Width: 1233
Flags: W
LayerCount: 2
Fore
SplineSet
440 283 m 1,0,-1
 707 283 l 1,1,-1
 707 0 l 1,2,-1
 440 0 l 1,3,-1
 440 283 l 1,0,-1
707 401 m 1,4,-1
 440 401 l 1,5,-1
 440 555 l 2,6,7
 440 654 440 654 471 724 c 128,-1,8
 502 794 502 794 582 872 c 2,9,-1
 672 961 l 2,10,11
 735 1022 735 1022 757.5 1062 c 128,-1,12
 780 1102 780 1102 780 1145 c 0,13,14
 780 1212 780 1212 734 1246 c 128,-1,15
 688 1280 688 1280 596 1280 c 0,16,17
 512 1280 512 1280 420.5 1244.5 c 128,-1,18
 329 1209 329 1209 233 1139 c 1,19,-1
 233 1407 l 1,20,21
 331 1463 331 1463 431.5 1491.5 c 128,-1,22
 532 1520 532 1520 633 1520 c 0,23,24
 835 1520 835 1520 950 1426 c 128,-1,25
 1065 1332 1065 1332 1065 1167 c 0,26,27
 1065 1091 1065 1091 1031 1025.5 c 128,-1,28
 997 960 997 960 903 868 c 2,29,-1
 815 782 l 2,30,31
 747 716 747 716 728 674 c 128,-1,32
 709 632 709 632 709 571 c 0,33,34
 709 562 709 562 708.5 550 c 128,-1,35
 708 538 708 538 707 524 c 1,36,-1
 707 401 l 1,4,-1
EndSplineSet
EndChar

StartChar: at
Encoding: 64 64 38
Width: 1233
Flags: W
LayerCount: 2
Fore
SplineSet
973 545 m 0,0,1
 973 658 973 658 922 722 c 128,-1,2
 871 786 871 786 782 786 c 256,3,4
 693 786 693 786 642.5 722 c 128,-1,5
 592 658 592 658 592 545 c 0,6,7
 592 431 592 431 642.5 367 c 128,-1,8
 693 303 693 303 782 303 c 256,9,10
 871 303 871 303 922 367 c 128,-1,11
 973 431 973 431 973 545 c 0,0,1
1159 135 m 1,12,-1
 963 135 l 1,13,-1
 963 217 l 1,14,15
 925 164 925 164 873.5 139.5 c 128,-1,16
 822 115 822 115 750 115 c 0,17,18
 586 115 586 115 485.5 233 c 128,-1,19
 385 351 385 351 385 545 c 0,20,21
 385 738 385 738 485 855.5 c 128,-1,22
 585 973 585 973 750 973 c 0,23,24
 821 973 821 973 875 948.5 c 128,-1,25
 929 924 929 924 963 877 c 1,26,-1
 963 918 l 2,27,28
 963 1054 963 1054 888.5 1128 c 128,-1,29
 814 1202 814 1202 676 1202 c 0,30,31
 468 1202 468 1202 336.5 1019 c 128,-1,32
 205 836 205 836 205 543 c 0,33,34
 205 236 205 236 357 54.5 c 128,-1,35
 509 -127 509 -127 762 -127 c 0,36,37
 842 -127 842 -127 917 -103.5 c 128,-1,38
 992 -80 992 -80 1061 -33 c 1,39,-1
 1153 -209 l 1,40,41
 1072 -264 1072 -264 976.5 -291.5 c 128,-1,42
 881 -319 881 -319 772 -319 c 0,43,44
 422 -319 422 -319 214 -86 c 128,-1,45
 6 147 6 147 6 543 c 0,46,47
 6 930 6 930 193 1162.5 c 128,-1,48
 380 1395 380 1395 688 1395 c 0,49,50
 906 1395 906 1395 1032.5 1263.5 c 128,-1,51
 1159 1132 1159 1132 1159 905 c 2,52,-1
 1159 135 l 1,12,-1
EndSplineSet
EndChar

StartChar: A
Encoding: 65 65 39
Width: 1233
Flags: W
LayerCount: 2
Fore
SplineSet
616 1223 m 1,0,-1
 477 612 l 1,1,-1
 756 612 l 1,2,-1
 616 1223 l 1,0,-1
436 1493 m 1,3,-1
 797 1493 l 1,4,-1
 1200 0 l 1,5,-1
 905 0 l 1,6,-1
 813 369 l 1,7,-1
 418 369 l 1,8,-1
 328 0 l 1,9,-1
 33 0 l 1,10,-1
 436 1493 l 1,3,-1
EndSplineSet
EndChar

StartChar: B
Encoding: 66 66 40
Width: 1233
Flags: W
LayerCount: 2
Fore
SplineSet
410 678 m 1,0,-1
 410 236 l 1,1,-1
 606 236 l 2,2,3
 747 236 747 236 803.5 284 c 128,-1,4
 860 332 860 332 860 451 c 0,5,6
 860 572 860 572 801 625 c 128,-1,7
 742 678 742 678 606 678 c 2,8,-1
 410 678 l 1,0,-1
410 1260 m 1,9,-1
 410 913 l 1,10,-1
 606 913 l 2,11,12
 718 913 718 913 765.5 953 c 128,-1,13
 813 993 813 993 813 1085 c 256,14,15
 813 1177 813 1177 764.5 1218.5 c 128,-1,16
 716 1260 716 1260 606 1260 c 2,17,-1
 410 1260 l 1,9,-1
125 1495 m 1,18,-1
 606 1495 l 2,19,20
 855 1495 855 1495 980.5 1400.5 c 128,-1,21
 1106 1306 1106 1306 1106 1118 c 0,22,23
 1106 974 1106 974 1032 893 c 128,-1,24
 958 812 958 812 815 799 c 1,25,26
 986 782 986 782 1072.5 684 c 128,-1,27
 1159 586 1159 586 1159 410 c 0,28,29
 1159 194 1159 194 1029 97 c 128,-1,30
 899 0 899 0 606 0 c 2,31,-1
 125 0 l 1,32,-1
 125 1495 l 1,18,-1
EndSplineSet
EndChar

StartChar: C
Encoding: 67 67 41
Width: 1233
Flags: W
LayerCount: 2
Fore
SplineSet
1081 43 m 1,0,1
 1011 7 1011 7 934 -11 c 128,-1,2
 857 -29 857 -29 772 -29 c 0,3,4
 470 -29 470 -29 311 170 c 128,-1,5
 152 369 152 369 152 745 c 0,6,7
 152 1122 152 1122 311 1321 c 128,-1,8
 470 1520 470 1520 772 1520 c 0,9,10
 857 1520 857 1520 935 1502 c 128,-1,11
 1013 1484 1013 1484 1081 1448 c 1,12,-1
 1081 1120 l 1,13,14
 1005 1190 1005 1190 933.5 1222.5 c 128,-1,15
 862 1255 862 1255 786 1255 c 0,16,17
 624 1255 624 1255 541.5 1126.5 c 128,-1,18
 459 998 459 998 459 745 c 0,19,20
 459 493 459 493 541.5 364.5 c 128,-1,21
 624 236 624 236 786 236 c 0,22,23
 862 236 862 236 933.5 268.5 c 128,-1,24
 1005 301 1005 301 1081 371 c 1,25,-1
 1081 43 l 1,0,1
EndSplineSet
EndChar

StartChar: D
Encoding: 68 68 42
Width: 1233
Flags: W
LayerCount: 2
Fore
SplineSet
432 1227 m 1,0,-1
 432 266 l 1,1,-1
 512 266 l 2,2,3
 686 266 686 266 760 375.5 c 128,-1,4
 834 485 834 485 834 748 c 0,5,6
 834 1009 834 1009 760 1118 c 128,-1,7
 686 1227 686 1227 512 1227 c 2,8,-1
 432 1227 l 1,0,-1
137 1493 m 1,9,-1
 453 1493 l 2,10,11
 819 1493 819 1493 980 1318.5 c 128,-1,12
 1141 1144 1141 1144 1141 748 c 0,13,14
 1141 351 1141 351 980 175.5 c 128,-1,15
 819 0 819 0 453 0 c 2,16,-1
 137 0 l 1,17,-1
 137 1493 l 1,9,-1
EndSplineSet
EndChar

StartChar: E
Encoding: 69 69 43
Width: 1233
Flags: W
LayerCount: 2
Fore
SplineSet
1098 0 m 1,0,-1
 168 0 l 1,1,-1
 168 1493 l 1,2,-1
 1098 1493 l 1,3,-1
 1098 1233 l 1,4,-1
 463 1233 l 1,5,-1
 463 911 l 1,6,-1
 1038 911 l 1,7,-1
 1038 651 l 1,8,-1
 463 651 l 1,9,-1
 463 260 l 1,10,-1
 1098 260 l 1,11,-1
 1098 0 l 1,0,-1
EndSplineSet
EndChar

StartChar: F
Encoding: 70 70 44
Width: 1233
Flags: W
LayerCount: 2
Fore
SplineSet
1112 1233 m 1,0,-1
 477 1233 l 1,1,-1
 477 911 l 1,2,-1
 1055 911 l 1,3,-1
 1055 651 l 1,4,-1
 477 651 l 1,5,-1
 477 0 l 1,6,-1
 182 0 l 1,7,-1
 182 1493 l 1,8,-1
 1112 1493 l 1,9,-1
 1112 1233 l 1,0,-1
EndSplineSet
EndChar

StartChar: G
Encoding: 71 71 45
Width: 1233
Flags: W
LayerCount: 2
Fore
SplineSet
872 270 m 1,0,-1
 872 555 l 1,1,-1
 670 555 l 1,2,-1
 670 803 l 1,3,-1
 1130 803 l 1,4,-1
 1130 119 l 1,5,6
 1045 46 1045 46 942.5 8.5 c 128,-1,7
 840 -29 840 -29 723 -29 c 0,8,9
 433 -29 433 -29 275 172.5 c 128,-1,10
 117 374 117 374 117 745 c 0,11,12
 117 1122 117 1122 276.5 1321 c 128,-1,13
 436 1520 436 1520 737 1520 c 0,14,15
 827 1520 827 1520 914 1494.5 c 128,-1,16
 1001 1469 1001 1469 1077 1421 c 1,17,-1
 1077 1094 l 1,18,19
 1015 1174 1015 1174 934.5 1214.5 c 128,-1,20
 854 1255 854 1255 758 1255 c 0,21,22
 590 1255 590 1255 507 1128.5 c 128,-1,23
 424 1002 424 1002 424 745 c 0,24,25
 424 496 424 496 504 366 c 128,-1,26
 584 236 584 236 737 236 c 0,27,28
 783 236 783 236 817 244.5 c 128,-1,29
 851 253 851 253 872 270 c 1,0,-1
EndSplineSet
EndChar

StartChar: H
Encoding: 72 72 46
Width: 1233
Flags: W
LayerCount: 2
Fore
SplineSet
137 1493 m 1,0,-1
 432 1493 l 1,1,-1
 432 924 l 1,2,-1
 801 924 l 1,3,-1
 801 1493 l 1,4,-1
 1096 1493 l 1,5,-1
 1096 0 l 1,6,-1
 801 0 l 1,7,-1
 801 664 l 1,8,-1
 432 664 l 1,9,-1
 432 0 l 1,10,-1
 137 0 l 1,11,-1
 137 1493 l 1,0,-1
EndSplineSet
EndChar

StartChar: I
Encoding: 73 73 47
Width: 1233
Flags: W
LayerCount: 2
Fore
SplineSet
172 1233 m 1,0,-1
 172 1493 l 1,1,-1
 1061 1493 l 1,2,-1
 1061 1233 l 1,3,-1
 764 1233 l 1,4,-1
 764 260 l 1,5,-1
 1061 260 l 1,6,-1
 1061 0 l 1,7,-1
 172 0 l 1,8,-1
 172 260 l 1,9,-1
 469 260 l 1,10,-1
 469 1233 l 1,11,-1
 172 1233 l 1,0,-1
EndSplineSet
EndChar

StartChar: J
Encoding: 74 74 48
Width: 1233
Flags: W
LayerCount: 2
Fore
SplineSet
109 74 m 1,0,-1
 109 416 l 1,1,2
 195 328 195 328 292.5 282 c 128,-1,3
 390 236 390 236 489 236 c 0,4,5
 605 236 605 236 659 294 c 128,-1,6
 713 352 713 352 713 479 c 2,7,-1
 713 1233 l 1,8,-1
 352 1233 l 1,9,-1
 352 1493 l 1,10,-1
 1008 1493 l 1,11,-1
 1008 479 l 2,12,13
 1008 206 1008 206 893.5 88.5 c 128,-1,14
 779 -29 779 -29 516 -29 c 0,15,16
 421 -29 421 -29 317.5 -3 c 128,-1,17
 214 23 214 23 109 74 c 1,0,-1
EndSplineSet
EndChar

StartChar: K
Encoding: 75 75 49
Width: 1233
Flags: W
LayerCount: 2
Fore
SplineSet
117 1493 m 1,0,-1
 412 1493 l 1,1,-1
 412 903 l 1,2,-1
 874 1493 l 1,3,-1
 1208 1493 l 1,4,-1
 737 905 l 1,5,-1
 1225 0 l 1,6,-1
 897 0 l 1,7,-1
 543 672 l 1,8,-1
 412 506 l 1,9,-1
 412 0 l 1,10,-1
 117 0 l 1,11,-1
 117 1493 l 1,0,-1
EndSplineSet
EndChar

StartChar: L
Encoding: 76 76 50
Width: 1233
Flags: W
LayerCount: 2
Fore
SplineSet
225 0 m 1,0,-1
 225 1493 l 1,1,-1
 520 1493 l 1,2,-1
 520 260 l 1,3,-1
 1151 260 l 1,4,-1
 1151 0 l 1,5,-1
 225 0 l 1,0,-1
EndSplineSet
EndChar

StartChar: M
Encoding: 77 77 51
Width: 1233
Flags: W
LayerCount: 2
Fore
SplineSet
86 1493 m 1,0,-1
 438 1493 l 1,1,-1
 616 838 l 1,2,-1
 793 1493 l 1,3,-1
 1147 1493 l 1,4,-1
 1147 0 l 1,5,-1
 893 0 l 1,6,-1
 893 1196 l 1,7,-1
 735 543 l 1,8,-1
 500 543 l 1,9,-1
 340 1196 l 1,10,-1
 340 0 l 1,11,-1
 86 0 l 1,12,-1
 86 1493 l 1,0,-1
EndSplineSet
EndChar

StartChar: N
Encoding: 78 78 52
Width: 1233
Flags: W
LayerCount: 2
Fore
SplineSet
119 1493 m 1,0,-1
 436 1493 l 1,1,-1
 852 408 l 1,2,-1
 852 1493 l 1,3,-1
 1112 1493 l 1,4,-1
 1112 0 l 1,5,-1
 797 0 l 1,6,-1
 379 1085 l 1,7,-1
 379 0 l 1,8,-1
 119 0 l 1,9,-1
 119 1493 l 1,0,-1
EndSplineSet
EndChar

StartChar: O
Encoding: 79 79 53
Width: 1233
Flags: W
LayerCount: 2
Fore
SplineSet
616 1255 m 0,0,1
 503 1255 503 1255 451 1134.5 c 128,-1,2
 399 1014 399 1014 399 745 c 0,3,4
 399 477 399 477 451 356.5 c 128,-1,5
 503 236 503 236 616 236 c 0,6,7
 730 236 730 236 782 356.5 c 128,-1,8
 834 477 834 477 834 745 c 0,9,10
 834 1014 834 1014 782 1134.5 c 128,-1,11
 730 1255 730 1255 616 1255 c 0,0,1
92 745 m 0,12,13
 92 1128 92 1128 224.5 1324 c 128,-1,14
 357 1520 357 1520 616 1520 c 0,15,16
 876 1520 876 1520 1008.5 1324 c 128,-1,17
 1141 1128 1141 1128 1141 745 c 0,18,19
 1141 363 1141 363 1008.5 167 c 128,-1,20
 876 -29 876 -29 616 -29 c 0,21,22
 357 -29 357 -29 224.5 167 c 128,-1,23
 92 363 92 363 92 745 c 0,12,13
EndSplineSet
EndChar

StartChar: P
Encoding: 80 80 54
Width: 1233
Flags: W
LayerCount: 2
Fore
SplineSet
457 1245 m 1,0,-1
 457 807 l 1,1,-1
 578 807 l 2,2,3
 723 807 723 807 781.5 856 c 128,-1,4
 840 905 840 905 840 1026 c 256,5,6
 840 1147 840 1147 781.5 1196 c 128,-1,7
 723 1245 723 1245 578 1245 c 2,8,-1
 457 1245 l 1,0,-1
162 1493 m 1,9,-1
 567 1493 l 2,10,11
 876 1493 876 1493 1011.5 1383 c 128,-1,12
 1147 1273 1147 1273 1147 1026 c 256,13,14
 1147 779 1147 779 1011.5 669 c 128,-1,15
 876 559 876 559 567 559 c 2,16,-1
 457 559 l 1,17,-1
 457 0 l 1,18,-1
 162 0 l 1,19,-1
 162 1493 l 1,9,-1
EndSplineSet
EndChar

StartChar: Q
Encoding: 81 81 55
Width: 1233
Flags: W
LayerCount: 2
Fore
SplineSet
656 -23 m 1,0,1
 642 -26 642 -26 632.5 -27.5 c 128,-1,2
 623 -29 623 -29 614 -29 c 0,3,4
 357 -29 357 -29 224.5 167 c 128,-1,5
 92 363 92 363 92 745 c 0,6,7
 92 1128 92 1128 224.5 1324 c 128,-1,8
 357 1520 357 1520 616 1520 c 0,9,10
 876 1520 876 1520 1008.5 1324 c 128,-1,11
 1141 1128 1141 1128 1141 745 c 0,12,13
 1141 482 1141 482 1078 304.5 c 128,-1,14
 1015 127 1015 127 895 51 c 1,15,-1
 1081 -131 l 1,16,-1
 879 -281 l 1,17,-1
 656 -23 l 1,0,1
616 1255 m 0,18,19
 503 1255 503 1255 451 1134.5 c 128,-1,20
 399 1014 399 1014 399 745 c 0,21,22
 399 477 399 477 451 356.5 c 128,-1,23
 503 236 503 236 616 236 c 0,24,25
 730 236 730 236 782 356.5 c 128,-1,26
 834 477 834 477 834 745 c 0,27,28
 834 1014 834 1014 782 1134.5 c 128,-1,29
 730 1255 730 1255 616 1255 c 0,18,19
EndSplineSet
EndChar

StartChar: R
Encoding: 82 82 56
Width: 1233
Flags: W
LayerCount: 2
Fore
SplineSet
807 705 m 1,0,1
 851 696 851 696 883.5 663.5 c 128,-1,2
 916 631 916 631 963 537 c 2,3,-1
 1233 0 l 1,4,-1
 909 0 l 1,5,-1
 729 377 l 2,6,7
 721 393 721 393 708 421 c 0,8,9
 629 590 629 590 522 590 c 2,10,-1
 428 590 l 1,11,-1
 428 0 l 1,12,-1
 133 0 l 1,13,-1
 133 1493 l 1,14,-1
 559 1493 l 2,15,16
 847 1493 847 1493 972.5 1391 c 128,-1,17
 1098 1289 1098 1289 1098 1059 c 0,18,19
 1098 905 1098 905 1023 814 c 128,-1,20
 948 723 948 723 807 705 c 1,0,1
428 1245 m 1,21,-1
 428 838 l 1,22,-1
 567 838 l 2,23,24
 688 838 688 838 740.5 885.5 c 128,-1,25
 793 933 793 933 793 1042 c 256,26,27
 793 1151 793 1151 741 1198 c 128,-1,28
 689 1245 689 1245 567 1245 c 2,29,-1
 428 1245 l 1,21,-1
EndSplineSet
EndChar

StartChar: S
Encoding: 83 83 57
Width: 1233
Flags: W
LayerCount: 2
Fore
SplineSet
510 655 m 2,0,1
 287 740 287 740 208 833.5 c 128,-1,2
 129 927 129 927 129 1085 c 0,3,4
 129 1288 129 1288 259 1404 c 128,-1,5
 389 1520 389 1520 616 1520 c 0,6,7
 719 1520 719 1520 822 1496.5 c 128,-1,8
 925 1473 925 1473 1026 1427 c 1,9,-1
 1026 1139 l 1,10,11
 931 1206 931 1206 833 1241 c 128,-1,12
 735 1276 735 1276 639 1276 c 0,13,14
 532 1276 532 1276 475 1233 c 128,-1,15
 418 1190 418 1190 418 1110 c 0,16,17
 418 1048 418 1048 459.5 1007.5 c 128,-1,18
 501 967 501 967 633 918 c 2,19,-1
 760 870 l 1,20,21
 940 804 940 804 1025 695 c 128,-1,22
 1110 586 1110 586 1110 420 c 0,23,24
 1110 194 1110 194 976.5 82.5 c 128,-1,25
 843 -29 843 -29 573 -29 c 0,26,27
 462 -29 462 -29 350.5 -2.5 c 128,-1,28
 239 24 239 24 135 76 c 1,29,-1
 135 381 l 1,30,31
 253 297 253 297 363.5 256 c 128,-1,32
 474 215 474 215 582 215 c 0,33,34
 691 215 691 215 751 264.5 c 128,-1,35
 811 314 811 314 811 403 c 0,36,37
 811 470 811 470 771 520.5 c 128,-1,38
 731 571 731 571 655 600 c 2,39,-1
 510 655 l 2,0,1
EndSplineSet
EndChar

StartChar: T
Encoding: 84 84 58
Width: 1233
Flags: W
LayerCount: 2
Fore
SplineSet
764 0 m 1,0,-1
 469 0 l 1,1,-1
 469 1235 l 1,2,-1
 90 1235 l 1,3,-1
 90 1493 l 1,4,-1
 1143 1493 l 1,5,-1
 1143 1235 l 1,6,-1
 764 1235 l 1,7,-1
 764 0 l 1,0,-1
EndSplineSet
EndChar

StartChar: U
Encoding: 85 85 59
Width: 1233
Flags: W
LayerCount: 2
Fore
SplineSet
106 551 m 2,0,-1
 106 1493 l 1,1,-1
 401 1493 l 1,2,-1
 401 477 l 2,3,4
 401 365 401 365 458 301.5 c 128,-1,5
 515 238 515 238 616 238 c 256,6,7
 717 238 717 238 774 301.5 c 128,-1,8
 831 365 831 365 831 477 c 2,9,-1
 831 1493 l 1,10,-1
 1126 1493 l 1,11,-1
 1126 551 l 2,12,13
 1126 247 1126 247 1005 109 c 128,-1,14
 884 -29 884 -29 616 -29 c 0,15,16
 349 -29 349 -29 227.5 109 c 128,-1,17
 106 247 106 247 106 551 c 2,0,-1
EndSplineSet
EndChar

StartChar: V
Encoding: 86 86 60
Width: 1233
Flags: W
LayerCount: 2
Fore
SplineSet
616 246 m 1,0,-1
 879 1493 l 1,1,-1
 1176 1493 l 1,2,-1
 821 0 l 1,3,-1
 412 0 l 1,4,-1
 57 1493 l 1,5,-1
 354 1493 l 1,6,-1
 616 246 l 1,0,-1
EndSplineSet
EndChar

StartChar: W
Encoding: 87 87 61
Width: 1233
Flags: W
LayerCount: 2
Fore
SplineSet
0 1493 m 1,0,-1
 258 1493 l 1,1,-1
 365 397 l 1,2,-1
 494 1106 l 1,3,-1
 739 1106 l 1,4,-1
 889 397 l 1,5,-1
 973 1493 l 1,6,-1
 1233 1493 l 1,7,-1
 1061 0 l 1,8,-1
 786 0 l 1,9,-1
 616 784 l 1,10,-1
 457 0 l 1,11,-1
 184 0 l 1,12,-1
 0 1493 l 1,0,-1
EndSplineSet
EndChar

StartChar: X
Encoding: 88 88 62
Width: 1233
Flags: W
LayerCount: 2
Fore
SplineSet
1206 0 m 1,0,-1
 901 0 l 1,1,-1
 616 494 l 1,2,-1
 332 0 l 1,3,-1
 27 0 l 1,4,-1
 465 758 l 1,5,-1
 39 1493 l 1,6,-1
 344 1493 l 1,7,-1
 616 1018 l 1,8,-1
 889 1493 l 1,9,-1
 1194 1493 l 1,10,-1
 770 758 l 1,11,-1
 1206 0 l 1,0,-1
EndSplineSet
EndChar

StartChar: Y
Encoding: 89 89 63
Width: 1233
Flags: W
LayerCount: 2
Fore
SplineSet
8 1493 m 1,0,-1
 326 1493 l 1,1,-1
 616 893 l 1,2,-1
 907 1493 l 1,3,-1
 1225 1493 l 1,4,-1
 764 588 l 1,5,-1
 764 0 l 1,6,-1
 469 0 l 1,7,-1
 469 588 l 1,8,-1
 8 1493 l 1,0,-1
EndSplineSet
EndChar

StartChar: Z
Encoding: 90 90 64
Width: 1233
Flags: W
LayerCount: 2
Fore
SplineSet
137 1493 m 1,0,-1
 1147 1493 l 1,1,-1
 1147 1249 l 1,2,-1
 455 260 l 1,3,-1
 1161 260 l 1,4,-1
 1161 0 l 1,5,-1
 115 0 l 1,6,-1
 115 244 l 1,7,-1
 786 1233 l 1,8,-1
 137 1233 l 1,9,-1
 137 1493 l 1,0,-1
EndSplineSet
EndChar

StartChar: bracketleft
Encoding: 91 91 65
Width: 1233
Flags: W
LayerCount: 2
Fore
SplineSet
422 1556 m 1,0,-1
 930 1556 l 1,1,-1
 930 1366 l 1,2,-1
 688 1366 l 1,3,-1
 688 -80 l 1,4,-1
 930 -80 l 1,5,-1
 930 -270 l 1,6,-1
 422 -270 l 1,7,-1
 422 1556 l 1,0,-1
EndSplineSet
EndChar

StartChar: backslash
Encoding: 92 92 66
Width: 1233
Flags: W
LayerCount: 2
Fore
SplineSet
334 1493 m 1,0,-1
 1120 -190 l 1,1,-1
 897 -190 l 1,2,-1
 111 1493 l 1,3,-1
 334 1493 l 1,0,-1
EndSplineSet
EndChar

StartChar: bracketright
Encoding: 93 93 67
Width: 1233
Flags: W
LayerCount: 2
Fore
SplineSet
811 1556 m 1,0,-1
 811 -270 l 1,1,-1
 303 -270 l 1,2,-1
 303 -80 l 1,3,-1
 545 -80 l 1,4,-1
 545 1366 l 1,5,-1
 303 1366 l 1,6,-1
 303 1556 l 1,7,-1
 811 1556 l 1,0,-1
EndSplineSet
EndChar

StartChar: asciicircum
Encoding: 94 94 68
Width: 1233
Flags: W
LayerCount: 2
Fore
SplineSet
739 1493 m 1,0,-1
 1176 936 l 1,1,-1
 934 936 l 1,2,-1
 616 1237 l 1,3,-1
 299 936 l 1,4,-1
 57 936 l 1,5,-1
 494 1493 l 1,6,-1
 739 1493 l 1,0,-1
EndSplineSet
EndChar

StartChar: underscore
Encoding: 95 95 69
Width: 1233
Flags: W
LayerCount: 2
Fore
SplineSet
1233 -293 m 1,0,-1
 1233 -483 l 1,1,-1
 0 -483 l 1,2,-1
 0 -293 l 1,3,-1
 1233 -293 l 1,0,-1
EndSplineSet
EndChar

StartChar: grave
Encoding: 96 96 70
Width: 1233
Flags: W
LayerCount: 2
Fore
SplineSet
481 1638 m 1,0,-1
 764 1262 l 1,1,-1
 567 1262 l 1,2,-1
 199 1638 l 1,3,-1
 481 1638 l 1,0,-1
EndSplineSet
EndChar

StartChar: a
Encoding: 97 97 71
Width: 1233
Flags: W
LayerCount: 2
Fore
SplineSet
700 526 m 2,0,1
 536 526 536 526 471 484 c 128,-1,2
 406 442 406 442 406 340 c 0,3,4
 406 264 406 264 451 219 c 128,-1,5
 496 174 496 174 573 174 c 0,6,7
 689 174 689 174 753 261.5 c 128,-1,8
 817 349 817 349 817 506 c 2,9,-1
 817 526 l 1,10,-1
 700 526 l 2,0,1
1108 639 m 2,11,-1
 1108 0 l 1,12,-1
 817 0 l 1,13,-1
 817 125 l 1,14,15
 764 51 764 51 681 11 c 128,-1,16
 598 -29 598 -29 498 -29 c 0,17,18
 307 -29 307 -29 200.5 72 c 128,-1,19
 94 173 94 173 94 354 c 0,20,21
 94 550 94 550 221 643.5 c 128,-1,22
 348 737 348 737 614 737 c 2,23,-1
 817 737 l 1,24,-1
 817 786 l 2,25,26
 817 857 817 857 765.5 893.5 c 128,-1,27
 714 930 714 930 614 930 c 0,28,29
 509 930 509 930 410.5 903.5 c 128,-1,30
 312 877 312 877 205 819 c 1,31,-1
 205 1069 l 1,32,33
 302 1109 302 1109 402 1128 c 128,-1,34
 502 1147 502 1147 614 1147 c 0,35,36
 887 1147 887 1147 997.5 1036 c 128,-1,37
 1108 925 1108 925 1108 639 c 2,11,-1
EndSplineSet
EndChar

StartChar: b
Encoding: 98 98 72
Width: 1233
Flags: W
LayerCount: 2
Fore
SplineSet
850 557 m 256,0,1
 850 719 850 719 796 811 c 128,-1,2
 742 903 742 903 647 903 c 256,3,4
 552 903 552 903 497 811 c 128,-1,5
 442 719 442 719 442 557 c 256,6,7
 442 395 442 395 497 303 c 128,-1,8
 552 211 552 211 647 211 c 256,9,10
 742 211 742 211 796 303 c 128,-1,11
 850 395 850 395 850 557 c 256,0,1
442 961 m 1,12,13
 496 1054 496 1054 567.5 1100.5 c 128,-1,14
 639 1147 639 1147 729 1147 c 0,15,16
 928 1147 928 1147 1035.5 995 c 128,-1,17
 1143 843 1143 843 1143 559 c 0,18,19
 1143 279 1143 279 1037 125 c 128,-1,20
 931 -29 931 -29 739 -29 c 0,21,22
 638 -29 638 -29 563 20 c 128,-1,23
 488 69 488 69 442 166 c 1,24,-1
 442 0 l 1,25,-1
 150 0 l 1,26,-1
 150 1556 l 1,27,-1
 442 1556 l 1,28,-1
 442 961 l 1,12,13
EndSplineSet
EndChar

StartChar: c
Encoding: 99 99 73
Width: 1233
Flags: W
LayerCount: 2
Fore
SplineSet
1061 57 m 1,0,1
 987 14 987 14 902 -7.5 c 128,-1,2
 817 -29 817 -29 719 -29 c 0,3,4
 460 -29 460 -29 314 127 c 128,-1,5
 168 283 168 283 168 559 c 0,6,7
 168 836 168 836 315 992.5 c 128,-1,8
 462 1149 462 1149 721 1149 c 0,9,10
 811 1149 811 1149 894.5 1128 c 128,-1,11
 978 1107 978 1107 1061 1063 c 1,12,-1
 1061 795 l 1,13,14
 997 850 997 850 920.5 879.5 c 128,-1,15
 844 909 844 909 762 909 c 0,16,17
 619 909 619 909 542 818 c 128,-1,18
 465 727 465 727 465 559 c 256,19,20
 465 391 465 391 542 301 c 128,-1,21
 619 211 619 211 762 211 c 0,22,23
 847 211 847 211 921 239.5 c 128,-1,24
 995 268 995 268 1061 326 c 1,25,-1
 1061 57 l 1,0,1
EndSplineSet
EndChar

StartChar: d
Encoding: 100 100 74
Width: 1233
Flags: W
LayerCount: 2
Fore
SplineSet
791 961 m 1,0,-1
 791 1556 l 1,1,-1
 1083 1556 l 1,2,-1
 1083 0 l 1,3,-1
 791 0 l 1,4,-1
 791 166 l 1,5,6
 744 69 744 69 669.5 20 c 128,-1,7
 595 -29 595 -29 494 -29 c 0,8,9
 302 -29 302 -29 196 125 c 128,-1,10
 90 279 90 279 90 559 c 0,11,12
 90 843 90 843 197.5 995 c 128,-1,13
 305 1147 305 1147 504 1147 c 0,14,15
 594 1147 594 1147 665.5 1100.5 c 128,-1,16
 737 1054 737 1054 791 961 c 1,0,-1
383 557 m 256,17,18
 383 395 383 395 437 303 c 128,-1,19
 491 211 491 211 586 211 c 256,20,21
 681 211 681 211 736 303 c 128,-1,22
 791 395 791 395 791 557 c 256,23,24
 791 719 791 719 736 811 c 128,-1,25
 681 903 681 903 586 903 c 256,26,27
 491 903 491 903 437 811 c 128,-1,28
 383 719 383 719 383 557 c 256,17,18
EndSplineSet
EndChar

StartChar: e
Encoding: 101 101 75
Width: 1233
Flags: W
LayerCount: 2
Fore
SplineSet
1102 55 m 1,0,1
 1000 13 1000 13 894 -8 c 128,-1,2
 788 -29 788 -29 670 -29 c 0,3,4
 389 -29 389 -29 240.5 121.5 c 128,-1,5
 92 272 92 272 92 555 c 0,6,7
 92 829 92 829 235 988 c 128,-1,8
 378 1147 378 1147 625 1147 c 0,9,10
 874 1147 874 1147 1011.5 999.5 c 128,-1,11
 1149 852 1149 852 1149 584 c 2,12,-1
 1149 465 l 1,13,-1
 390 465 l 1,14,15
 391 333 391 333 468 268 c 128,-1,16
 545 203 545 203 698 203 c 0,17,18
 799 203 799 203 897 232 c 128,-1,19
 995 261 995 261 1102 324 c 1,20,-1
 1102 55 l 1,0,1
854 685 m 1,21,22
 852 801 852 801 794.5 860.5 c 128,-1,23
 737 920 737 920 625 920 c 0,24,25
 524 920 524 920 464 858.5 c 128,-1,26
 404 797 404 797 393 684 c 1,27,-1
 854 685 l 1,21,22
EndSplineSet
EndChar

StartChar: f
Encoding: 102 102 76
Width: 1233
Flags: W
LayerCount: 2
Fore
SplineSet
739 1218 m 1,0,-1
 739 1120 l 1,1,-1
 1083 1120 l 1,2,-1
 1083 895 l 1,3,-1
 739 895 l 1,4,-1
 739 0 l 1,5,-1
 446 0 l 1,6,-1
 446 895 l 1,7,-1
 174 895 l 1,8,-1
 174 1120 l 1,9,-1
 446 1120 l 1,10,-1
 446 1198 l 2,11,12
 446 1400 446 1400 530 1478 c 128,-1,13
 614 1556 614 1556 842 1556 c 2,14,-1
 1083 1556 l 1,15,-1
 1083 1331 l 1,16,-1
 854 1331 l 2,17,18
 788 1331 788 1331 764.5 1307 c 128,-1,19
 741 1283 741 1283 739 1218 c 1,0,-1
EndSplineSet
EndChar

StartChar: g
Encoding: 103 103 77
Width: 1233
Flags: W
LayerCount: 2
Fore
SplineSet
803 578 m 0,0,1
 803 728 803 728 746 818.5 c 128,-1,2
 689 909 689 909 596 909 c 0,3,4
 504 909 504 909 447.5 819 c 128,-1,5
 391 729 391 729 391 578 c 0,6,7
 391 426 391 426 447.5 336 c 128,-1,8
 504 246 504 246 596 246 c 0,9,10
 689 246 689 246 746 336.5 c 128,-1,11
 803 427 803 427 803 578 c 0,0,1
1096 84 m 2,12,13
 1096 -185 1096 -185 974.5 -304.5 c 128,-1,14
 853 -424 853 -424 580 -424 c 0,15,16
 488 -424 488 -424 398 -410.5 c 128,-1,17
 308 -397 308 -397 215 -369 c 1,18,-1
 215 -100 l 1,19,20
 298 -146 298 -146 384 -168 c 128,-1,21
 470 -190 470 -190 561 -190 c 0,22,23
 685 -190 685 -190 744 -131.5 c 128,-1,24
 803 -73 803 -73 803 51 c 2,25,-1
 803 172 l 1,26,27
 760 92 760 92 689 53 c 128,-1,28
 618 14 618 14 516 14 c 0,29,30
 324 14 324 14 211 164 c 128,-1,31
 98 314 98 314 98 571 c 0,32,33
 98 837 98 837 211 993 c 128,-1,34
 324 1149 324 1149 514 1149 c 0,35,36
 610 1149 610 1149 685 1104 c 128,-1,37
 760 1059 760 1059 803 977 c 1,38,-1
 803 1120 l 1,39,-1
 1096 1120 l 1,40,-1
 1096 84 l 2,12,13
EndSplineSet
EndChar

StartChar: h
Encoding: 104 104 78
Width: 1233
Flags: W
LayerCount: 2
Fore
SplineSet
1071 727 m 2,0,-1
 1071 0 l 1,1,-1
 780 0 l 1,2,-1
 780 682 l 2,3,4
 780 803 780 803 745.5 855 c 128,-1,5
 711 907 711 907 633 907 c 0,6,7
 553 907 553 907 508 836.5 c 128,-1,8
 463 766 463 766 463 641 c 2,9,-1
 463 0 l 1,10,-1
 172 0 l 1,11,-1
 172 1556 l 1,12,-1
 463 1556 l 1,13,-1
 463 952 l 1,14,15
 494 1045 494 1045 569 1096 c 128,-1,16
 644 1147 644 1147 750 1147 c 0,17,18
 909 1147 909 1147 990 1041.5 c 128,-1,19
 1071 936 1071 936 1071 727 c 2,0,-1
EndSplineSet
EndChar

StartChar: i
Encoding: 105 105 79
Width: 1233
Flags: W
LayerCount: 2
Fore
SplineSet
221 1120 m 1,0,-1
 801 1120 l 1,1,-1
 801 225 l 1,2,-1
 1165 225 l 1,3,-1
 1165 0 l 1,4,-1
 143 0 l 1,5,-1
 143 225 l 1,6,-1
 508 225 l 1,7,-1
 508 895 l 1,8,-1
 221 895 l 1,9,-1
 221 1120 l 1,0,-1
508 1665 m 1,10,-1
 801 1665 l 1,11,-1
 801 1323 l 1,12,-1
 508 1323 l 1,13,-1
 508 1665 l 1,10,-1
EndSplineSet
EndChar

StartChar: j
Encoding: 106 106 80
Width: 1233
Flags: W
LayerCount: 2
Fore
SplineSet
850 43 m 2,0,1
 850 -209 850 -209 759.5 -316.5 c 128,-1,2
 669 -424 669 -424 459 -424 c 2,3,-1
 143 -424 l 1,4,-1
 143 -199 l 1,5,-1
 377 -199 l 2,6,7
 475 -199 475 -199 516 -144 c 128,-1,8
 557 -89 557 -89 557 43 c 2,9,-1
 557 895 l 1,10,-1
 260 895 l 1,11,-1
 260 1120 l 1,12,-1
 850 1120 l 1,13,-1
 850 43 l 2,0,1
850 1323 m 1,14,-1
 557 1323 l 1,15,-1
 557 1665 l 1,16,-1
 850 1665 l 1,17,-1
 850 1323 l 1,14,-1
EndSplineSet
EndChar

StartChar: k
Encoding: 107 107 81
Width: 1233
Flags: W
LayerCount: 2
Fore
SplineSet
174 1556 m 1,0,-1
 467 1556 l 1,1,-1
 467 739 l 1,2,-1
 819 1120 l 1,3,-1
 1174 1120 l 1,4,-1
 750 702 l 1,5,-1
 1198 0 l 1,6,-1
 874 0 l 1,7,-1
 567 524 l 1,8,-1
 467 428 l 1,9,-1
 467 0 l 1,10,-1
 174 0 l 1,11,-1
 174 1556 l 1,0,-1
EndSplineSet
EndChar

StartChar: l
Encoding: 108 108 82
Width: 1233
Flags: W
LayerCount: 2
Fore
SplineSet
387 467 m 2,0,-1
 387 1331 l 1,1,-1
 90 1331 l 1,2,-1
 90 1556 l 1,3,-1
 680 1556 l 1,4,-1
 680 467 l 2,5,6
 680 335 680 335 721 280 c 128,-1,7
 762 225 762 225 860 225 c 2,8,-1
 1094 225 l 1,9,-1
 1094 0 l 1,10,-1
 778 0 l 2,11,12
 569 0 569 0 478 108 c 128,-1,13
 387 216 387 216 387 467 c 2,0,-1
EndSplineSet
EndChar

StartChar: m
Encoding: 109 109 83
Width: 1233
Flags: W
LayerCount: 2
Fore
SplineSet
690 1008 m 1,0,1
 723 1079 723 1079 774 1113 c 128,-1,2
 825 1147 825 1147 899 1147 c 0,3,4
 1044 1147 1044 1147 1099.5 1047 c 128,-1,5
 1155 947 1155 947 1155 631 c 2,6,-1
 1155 0 l 1,7,-1
 915 0 l 1,8,-1
 915 719 l 2,9,10
 915 844 915 844 896 886 c 128,-1,11
 877 928 877 928 827 928 c 256,12,13
 777 928 777 928 757 885 c 128,-1,14
 737 842 737 842 737 719 c 2,15,-1
 737 0 l 1,16,-1
 500 0 l 1,17,-1
 500 719 l 2,18,19
 500 842 500 842 480 885 c 128,-1,20
 460 928 460 928 410 928 c 256,21,22
 360 928 360 928 341 886 c 128,-1,23
 322 844 322 844 322 719 c 2,24,-1
 322 0 l 1,25,-1
 82 0 l 1,26,-1
 82 1120 l 1,27,-1
 295 1120 l 1,28,-1
 295 1004 l 1,29,30
 320 1070 320 1070 375 1108.5 c 128,-1,31
 430 1147 430 1147 498 1147 c 256,32,33
 566 1147 566 1147 622 1106.5 c 128,-1,34
 678 1066 678 1066 690 1008 c 1,0,1
EndSplineSet
EndChar

StartChar: n
Encoding: 110 110 84
Width: 1233
Flags: W
LayerCount: 2
Fore
SplineSet
1071 727 m 2,0,-1
 1071 0 l 1,1,-1
 780 0 l 1,2,-1
 780 682 l 2,3,4
 780 804 780 804 745.5 856.5 c 128,-1,5
 711 909 711 909 633 909 c 0,6,7
 554 909 554 909 508.5 838 c 128,-1,8
 463 767 463 767 463 641 c 2,9,-1
 463 0 l 1,10,-1
 172 0 l 1,11,-1
 172 1120 l 1,12,-1
 463 1120 l 1,13,-1
 463 952 l 1,14,15
 494 1045 494 1045 569 1096 c 128,-1,16
 644 1147 644 1147 750 1147 c 0,17,18
 909 1147 909 1147 990 1041.5 c 128,-1,19
 1071 936 1071 936 1071 727 c 2,0,-1
EndSplineSet
EndChar

StartChar: o
Encoding: 111 111 85
Width: 1233
Flags: W
LayerCount: 2
Fore
SplineSet
616 909 m 0,0,1
 511 909 511 909 451 816.5 c 128,-1,2
 391 724 391 724 391 559 c 256,3,4
 391 394 391 394 451 301.5 c 128,-1,5
 511 209 511 209 616 209 c 0,6,7
 722 209 722 209 782 301.5 c 128,-1,8
 842 394 842 394 842 559 c 256,9,10
 842 724 842 724 782 816.5 c 128,-1,11
 722 909 722 909 616 909 c 0,0,1
98 559 m 256,12,13
 98 830 98 830 238.5 988.5 c 128,-1,14
 379 1147 379 1147 616 1147 c 0,15,16
 854 1147 854 1147 994.5 988.5 c 128,-1,17
 1135 830 1135 830 1135 559 c 256,18,19
 1135 288 1135 288 994.5 129.5 c 128,-1,20
 854 -29 854 -29 616 -29 c 0,21,22
 379 -29 379 -29 238.5 129.5 c 128,-1,23
 98 288 98 288 98 559 c 256,12,13
EndSplineSet
EndChar

StartChar: p
Encoding: 112 112 86
Width: 1233
Flags: W
LayerCount: 2
Fore
SplineSet
442 158 m 1,0,-1
 442 -426 l 1,1,-1
 150 -426 l 1,2,-1
 150 1120 l 1,3,-1
 442 1120 l 1,4,-1
 442 952 l 1,5,6
 488 1049 488 1049 563 1098 c 128,-1,7
 638 1147 638 1147 739 1147 c 0,8,9
 931 1147 931 1147 1037 993 c 128,-1,10
 1143 839 1143 839 1143 559 c 0,11,12
 1143 275 1143 275 1035.5 123 c 128,-1,13
 928 -29 928 -29 729 -29 c 0,14,15
 639 -29 639 -29 567.5 17.5 c 128,-1,16
 496 64 496 64 442 158 c 1,0,-1
850 561 m 256,17,18
 850 723 850 723 796 815 c 128,-1,19
 742 907 742 907 647 907 c 256,20,21
 552 907 552 907 497 815 c 128,-1,22
 442 723 442 723 442 561 c 256,23,24
 442 399 442 399 497 307 c 128,-1,25
 552 215 552 215 647 215 c 256,26,27
 742 215 742 215 796 307 c 128,-1,28
 850 399 850 399 850 561 c 256,17,18
EndSplineSet
EndChar

StartChar: q
Encoding: 113 113 87
Width: 1233
Flags: W
LayerCount: 2
Fore
SplineSet
383 561 m 256,0,1
 383 399 383 399 437 307 c 128,-1,2
 491 215 491 215 586 215 c 256,3,4
 681 215 681 215 736 307 c 128,-1,5
 791 399 791 399 791 561 c 256,6,7
 791 723 791 723 736 815 c 128,-1,8
 681 907 681 907 586 907 c 256,9,10
 491 907 491 907 437 815 c 128,-1,11
 383 723 383 723 383 561 c 256,0,1
791 158 m 1,12,13
 737 64 737 64 665.5 17.5 c 128,-1,14
 594 -29 594 -29 504 -29 c 0,15,16
 305 -29 305 -29 197.5 123 c 128,-1,17
 90 275 90 275 90 559 c 0,18,19
 90 839 90 839 196 993 c 128,-1,20
 302 1147 302 1147 494 1147 c 0,21,22
 595 1147 595 1147 669.5 1098 c 128,-1,23
 744 1049 744 1049 791 952 c 1,24,-1
 791 1120 l 1,25,-1
 1083 1120 l 1,26,-1
 1083 -426 l 1,27,-1
 791 -426 l 1,28,-1
 791 158 l 1,12,13
EndSplineSet
EndChar

StartChar: r
Encoding: 114 114 88
Width: 1233
Flags: W
LayerCount: 2
Fore
SplineSet
1151 811 m 1,0,1
 1103 855 1103 855 1038.5 877 c 128,-1,2
 974 899 974 899 897 899 c 0,3,4
 804 899 804 899 734.5 866.5 c 128,-1,5
 665 834 665 834 627 772 c 0,6,7
 603 734 603 734 593.5 680 c 128,-1,8
 584 626 584 626 584 516 c 2,9,-1
 584 0 l 1,10,-1
 291 0 l 1,11,-1
 291 1120 l 1,12,-1
 584 1120 l 1,13,-1
 584 946 l 1,14,15
 627 1042 627 1042 716 1094.5 c 128,-1,16
 805 1147 805 1147 924 1147 c 0,17,18
 984 1147 984 1147 1041.5 1132.5 c 128,-1,19
 1099 1118 1099 1118 1151 1090 c 1,20,-1
 1151 811 l 1,0,1
EndSplineSet
EndChar

StartChar: s
Encoding: 115 115 89
Width: 1233
Flags: W
LayerCount: 2
Fore
SplineSet
991 1085 m 1,0,-1
 991 829 l 1,1,2
 910 881 910 881 822.5 907.5 c 128,-1,3
 735 934 735 934 647 934 c 0,4,5
 549 934 549 934 499 905.5 c 128,-1,6
 449 877 449 877 449 821 c 0,7,8
 449 741 449 741 663 691 c 1,9,-1
 674 688 l 1,10,-1
 758 668 l 2,11,12
 918 630 918 630 992.5 545.5 c 128,-1,13
 1067 461 1067 461 1067 317 c 0,14,15
 1067 144 1067 144 953.5 57.5 c 128,-1,16
 840 -29 840 -29 612 -29 c 0,17,18
 511 -29 511 -29 405 -11.5 c 128,-1,19
 299 6 299 6 190 41 c 1,20,-1
 190 297 l 1,21,22
 287 242 287 242 387.5 213 c 128,-1,23
 488 184 488 184 582 184 c 0,24,25
 685 184 685 184 738 214 c 128,-1,26
 791 244 791 244 791 301 c 0,27,28
 791 357 791 357 753.5 387 c 128,-1,29
 716 417 716 417 575 451 c 1,30,-1
 494 469 l 2,31,32
 326 507 326 507 249 588 c 128,-1,33
 172 669 172 669 172 805 c 0,34,35
 172 967 172 967 289 1057 c 128,-1,36
 406 1147 406 1147 618 1147 c 0,37,38
 713 1147 713 1147 807.5 1131.5 c 128,-1,39
 902 1116 902 1116 991 1085 c 1,0,-1
EndSplineSet
EndChar

StartChar: t
Encoding: 116 116 90
Width: 1233
Flags: W
LayerCount: 2
Fore
SplineSet
690 1438 m 1,0,-1
 690 1120 l 1,1,-1
 1073 1120 l 1,2,-1
 1073 895 l 1,3,-1
 690 895 l 1,4,-1
 690 365 l 2,5,6
 690 290 690 290 726.5 257.5 c 128,-1,7
 763 225 763 225 848 225 c 2,8,-1
 1073 225 l 1,9,-1
 1073 0 l 1,10,-1
 827 0 l 2,11,12
 575 0 575 0 486 80.5 c 128,-1,13
 397 161 397 161 397 379 c 2,14,-1
 397 895 l 1,15,-1
 111 895 l 1,16,-1
 111 1120 l 1,17,-1
 397 1120 l 1,18,-1
 397 1438 l 1,19,-1
 690 1438 l 1,0,-1
EndSplineSet
EndChar

StartChar: u
Encoding: 117 117 91
Width: 1233
Flags: W
LayerCount: 2
Fore
SplineSet
160 391 m 2,0,-1
 160 1120 l 1,1,-1
 453 1120 l 1,2,-1
 453 436 l 2,3,4
 453 315 453 315 487 263 c 128,-1,5
 521 211 521 211 600 211 c 256,6,7
 679 211 679 211 723.5 281 c 128,-1,8
 768 351 768 351 768 477 c 2,9,-1
 768 1120 l 1,10,-1
 1061 1120 l 1,11,-1
 1061 0 l 1,12,-1
 768 0 l 1,13,-1
 768 166 l 1,14,15
 737 73 737 73 662.5 22 c 128,-1,16
 588 -29 588 -29 483 -29 c 0,17,18
 323 -29 323 -29 241.5 77 c 128,-1,19
 160 183 160 183 160 391 c 2,0,-1
EndSplineSet
EndChar

StartChar: v
Encoding: 118 118 92
Width: 1233
Flags: W
LayerCount: 2
Fore
SplineSet
1153 1120 m 1,0,-1
 797 0 l 1,1,-1
 436 0 l 1,2,-1
 80 1120 l 1,3,-1
 377 1120 l 1,4,-1
 616 246 l 1,5,-1
 856 1120 l 1,6,-1
 1153 1120 l 1,0,-1
EndSplineSet
EndChar

StartChar: w
Encoding: 119 119 93
Width: 1233
Flags: W
LayerCount: 2
Fore
SplineSet
0 1120 m 1,0,-1
 244 1120 l 1,1,-1
 377 262 l 1,2,-1
 498 827 l 1,3,-1
 735 827 l 1,4,-1
 854 262 l 1,5,-1
 989 1120 l 1,6,-1
 1233 1120 l 1,7,-1
 1030 0 l 1,8,-1
 752 0 l 1,9,-1
 616 582 l 1,10,-1
 481 0 l 1,11,-1
 203 0 l 1,12,-1
 0 1120 l 1,0,-1
EndSplineSet
EndChar

StartChar: x
Encoding: 120 120 94
Width: 1233
Flags: W
LayerCount: 2
Fore
SplineSet
1145 1120 m 1,0,-1
 768 584 l 1,1,-1
 1178 0 l 1,2,-1
 836 0 l 1,3,-1
 616 377 l 1,4,-1
 397 0 l 1,5,-1
 55 0 l 1,6,-1
 469 584 l 1,7,-1
 88 1120 l 1,8,-1
 430 1120 l 1,9,-1
 616 786 l 1,10,-1
 803 1120 l 1,11,-1
 1145 1120 l 1,0,-1
EndSplineSet
EndChar

StartChar: y
Encoding: 121 121 95
Width: 1233
Flags: W
LayerCount: 2
Fore
SplineSet
711 -121 m 2,0,1
 652 -279 652 -279 569.5 -351.5 c 128,-1,2
 487 -424 487 -424 369 -424 c 2,3,-1
 127 -424 l 1,4,-1
 127 -201 l 1,5,-1
 246 -201 l 2,6,7
 336 -201 336 -201 378 -170.5 c 128,-1,8
 420 -140 420 -140 463 -29 c 1,9,-1
 485 31 l 1,10,-1
 59 1120 l 1,11,-1
 367 1120 l 1,12,-1
 623 393 l 1,13,-1
 868 1120 l 1,14,-1
 1176 1120 l 1,15,-1
 711 -121 l 2,0,1
EndSplineSet
EndChar

StartChar: z
Encoding: 122 122 96
Width: 1233
Flags: W
LayerCount: 2
Fore
SplineSet
186 1120 m 1,0,-1
 1081 1120 l 1,1,-1
 1081 891 l 1,2,-1
 492 219 l 1,3,-1
 1081 219 l 1,4,-1
 1081 0 l 1,5,-1
 162 0 l 1,6,-1
 162 229 l 1,7,-1
 752 901 l 1,8,-1
 186 901 l 1,9,-1
 186 1120 l 1,0,-1
EndSplineSet
EndChar

StartChar: braceleft
Encoding: 123 123 97
Width: 1233
Flags: W
LayerCount: 2
Fore
SplineSet
1053 -143 m 1,0,-1
 1053 -334 l 1,1,-1
 903 -334 l 2,2,3
 654 -334 654 -334 569.5 -260 c 128,-1,4
 485 -186 485 -186 485 35 c 2,5,-1
 485 250 l 2,6,7
 485 401 485 401 431.5 458.5 c 128,-1,8
 378 516 378 516 238 516 c 2,9,-1
 176 516 l 1,10,-1
 176 707 l 1,11,-1
 238 707 l 2,12,13
 378 707 378 707 431.5 764 c 128,-1,14
 485 821 485 821 485 973 c 2,15,-1
 485 1188 l 2,16,17
 485 1409 485 1409 569.5 1482.5 c 128,-1,18
 654 1556 654 1556 903 1556 c 2,19,-1
 1053 1556 l 1,20,-1
 1053 1366 l 1,21,-1
 930 1366 l 2,22,23
 826 1366 826 1366 791 1324 c 128,-1,24
 756 1282 756 1282 756 1139 c 2,25,-1
 756 930 l 2,26,27
 756 765 756 765 707 698 c 128,-1,28
 658 631 658 631 532 612 c 1,29,30
 658 591 658 591 707 523 c 128,-1,31
 756 455 756 455 756 291 c 2,32,-1
 756 86 l 2,33,34
 756 -58 756 -58 791 -100.5 c 128,-1,35
 826 -143 826 -143 930 -143 c 2,36,-1
 1053 -143 l 1,0,-1
EndSplineSet
EndChar

StartChar: bar
Encoding: 124 124 98
Width: 1233
Flags: W
LayerCount: 2
Fore
SplineSet
729 1565 m 1,0,-1
 729 -483 l 1,1,-1
 502 -483 l 1,2,-1
 502 1565 l 1,3,-1
 729 1565 l 1,0,-1
EndSplineSet
EndChar

StartChar: braceright
Encoding: 125 125 99
Width: 1233
Flags: W
LayerCount: 2
Fore
SplineSet
180 -143 m 1,0,-1
 301 -143 l 2,1,2
 405 -143 405 -143 441 -100 c 128,-1,3
 477 -57 477 -57 477 86 c 2,4,-1
 477 291 l 2,5,6
 477 455 477 455 526 523 c 128,-1,7
 575 591 575 591 700 612 c 1,8,9
 574 631 574 631 525.5 698 c 128,-1,10
 477 765 477 765 477 930 c 2,11,-1
 477 1139 l 2,12,13
 477 1280 477 1280 441.5 1323 c 128,-1,14
 406 1366 406 1366 301 1366 c 2,15,-1
 180 1366 l 1,16,-1
 180 1556 l 1,17,-1
 330 1556 l 2,18,19
 578 1556 578 1556 661.5 1482.5 c 128,-1,20
 745 1409 745 1409 745 1188 c 2,21,-1
 745 973 l 2,22,23
 745 822 745 822 799.5 764.5 c 128,-1,24
 854 707 854 707 995 707 c 2,25,-1
 1057 707 l 1,26,-1
 1057 516 l 1,27,-1
 995 516 l 2,28,29
 854 516 854 516 799.5 458 c 128,-1,30
 745 400 745 400 745 250 c 2,31,-1
 745 35 l 2,32,33
 745 -186 745 -186 661.5 -260 c 128,-1,34
 578 -334 578 -334 330 -334 c 2,35,-1
 180 -334 l 1,36,-1
 180 -143 l 1,0,-1
EndSplineSet
EndChar

StartChar: asciitilde
Encoding: 126 126 100
Width: 1233
Flags: W
LayerCount: 2
Fore
SplineSet
1145 811 m 1,0,-1
 1145 578 l 1,1,2
 1070 518 1070 518 998.5 490.5 c 128,-1,3
 927 463 927 463 848 463 c 0,4,5
 758 463 758 463 645 514 c 0,6,7
 623 524 623 524 612 528 c 0,8,9
 535 562 535 562 483.5 574 c 128,-1,10
 432 586 432 586 381 586 c 0,11,12
 303 586 303 586 232.5 557 c 128,-1,13
 162 528 162 528 88 465 c 1,14,-1
 88 694 l 1,15,16
 166 755 166 755 239 782 c 128,-1,17
 312 809 312 809 395 809 c 0,18,19
 448 809 448 809 498 798 c 128,-1,20
 548 787 548 787 622 756 c 0,21,22
 633 751 633 751 655 741 c 0,23,24
 771 686 771 686 864 686 c 0,25,26
 934 686 934 686 1003 716.5 c 128,-1,27
 1072 747 1072 747 1145 811 c 1,0,-1
EndSplineSet
EndChar

StartChar: uni007F
Encoding: 127 127 101
Width: 1233
Flags: W
LayerCount: 2
Fore
SplineSet
1138 296 m 1,0,-1
 95 296 l 1,1,-1
 95 1097 l 1,2,-1
 1138 1097 l 1,3,-1
 1138 296 l 1,0,-1
994 440 m 1,4,-1
 994 953 l 1,5,-1
 875 953 l 1,6,-1
 696 696 l 1,7,-1
 875 440 l 1,8,-1
 994 440 l 1,4,-1
516 953 m 1,9,-1
 616 810 l 1,10,-1
 716 953 l 1,11,-1
 516 953 l 1,9,-1
239 440 m 1,12,-1
 357 440 l 1,13,-1
 536 696 l 1,14,-1
 357 953 l 1,15,-1
 239 953 l 1,16,-1
 239 440 l 1,12,-1
716 440 m 1,17,-1
 616 583 l 1,18,-1
 516 440 l 1,19,-1
 716 440 l 1,17,-1
EndSplineSet
EndChar

StartChar: exclamdown
Encoding: 161 161 103
Width: 1233
Flags: W
LayerCount: 2
Fore
SplineSet
750 1210 m 1,0,-1
 483 1210 l 1,1,-1
 483 1493 l 1,2,-1
 750 1493 l 1,3,-1
 750 1210 l 1,0,-1
750 0 m 1,4,-1
 483 0 l 1,5,-1
 483 655 l 1,6,-1
 516 1012 l 1,7,-1
 715 1012 l 1,8,-1
 750 655 l 1,9,-1
 750 0 l 1,4,-1
EndSplineSet
EndChar

StartChar: cent
Encoding: 162 162 104
Width: 1233
Flags: W
LayerCount: 2
Fore
SplineSet
1036 1077 m 1,0,-1
 1036 809 l 1,1,2
 980 851 980 851 920 875.5 c 128,-1,3
 860 900 860 900 797 907 c 1,4,-1
 797 215 l 1,5,6
 861 220 861 220 920.5 244 c 128,-1,7
 980 268 980 268 1036 311 c 1,8,-1
 1036 43 l 1,9,10
 984 14 984 14 924 -3 c 128,-1,11
 864 -20 864 -20 797 -25 c 1,12,-1
 797 -313 l 1,13,-1
 655 -313 l 1,14,-1
 655 -25 l 1,15,16
 420 -3 420 -3 283.5 154 c 128,-1,17
 147 311 147 311 147 561 c 0,18,19
 147 816 147 816 283.5 972.5 c 128,-1,20
 420 1129 420 1129 655 1145 c 1,21,-1
 655 1432 l 1,22,-1
 797 1432 l 1,23,-1
 797 1145 l 1,24,25
 858 1140 858 1140 916.5 1123.5 c 128,-1,26
 975 1107 975 1107 1036 1077 c 1,0,-1
655 215 m 1,27,-1
 655 907 l 1,28,29
 541 893 541 893 479.5 803.5 c 128,-1,30
 418 714 418 714 418 561 c 0,31,32
 418 406 418 406 481 313.5 c 128,-1,33
 544 221 544 221 655 215 c 1,27,-1
EndSplineSet
EndChar

StartChar: sterling
Encoding: 163 163 105
Width: 1233
Flags: W
LayerCount: 2
Fore
SplineSet
1102 1462 m 1,0,-1
 1102 1188 l 1,1,2
 1045 1229 1045 1229 980 1250.5 c 128,-1,3
 915 1272 915 1272 846 1272 c 0,4,5
 740 1272 740 1272 690.5 1205.5 c 128,-1,6
 641 1139 641 1139 641 995 c 2,7,-1
 641 819 l 1,8,-1
 977 819 l 1,9,-1
 977 594 l 1,10,-1
 641 594 l 1,11,-1
 641 260 l 1,12,-1
 1122 260 l 1,13,-1
 1122 0 l 1,14,-1
 119 0 l 1,15,-1
 119 260 l 1,16,-1
 354 260 l 1,17,-1
 354 594 l 1,18,-1
 156 594 l 1,19,-1
 156 819 l 1,20,-1
 354 819 l 1,21,-1
 354 1016 l 2,22,23
 354 1272 354 1272 466.5 1396 c 128,-1,24
 579 1520 579 1520 811 1520 c 0,25,26
 894 1520 894 1520 965 1505.5 c 128,-1,27
 1036 1491 1036 1491 1102 1462 c 1,0,-1
EndSplineSet
EndChar

StartChar: currency
Encoding: 164 164 106
Width: 1233
Flags: W
LayerCount: 2
Fore
SplineSet
827 643 m 0,0,1
 827 716 827 716 777 765.5 c 128,-1,2
 727 815 727 815 653 815 c 0,3,4
 580 815 580 815 529.5 765.5 c 128,-1,5
 479 716 479 716 479 643 c 0,6,7
 479 569 479 569 529.5 518 c 128,-1,8
 580 467 580 467 653 467 c 0,9,10
 727 467 727 467 777 518 c 128,-1,11
 827 569 827 569 827 643 c 0,0,1
819 938 m 1,12,-1
 991 1108 l 1,13,-1
 1118 979 l 1,14,-1
 948 809 l 1,15,16
 971 768 971 768 982 726.5 c 128,-1,17
 993 685 993 685 993 641 c 0,18,19
 993 594 993 594 981.5 553.5 c 128,-1,20
 970 513 970 513 946 477 c 1,21,-1
 1118 307 l 1,22,-1
 987 176 l 1,23,-1
 817 348 l 1,24,25
 781 324 781 324 741 312.5 c 128,-1,26
 701 301 701 301 653 301 c 0,27,28
 614 301 614 301 572 311.5 c 128,-1,29
 530 322 530 322 485 344 c 1,30,-1
 315 176 l 1,31,-1
 186 305 l 1,32,-1
 356 475 l 1,33,34
 334 517 334 517 322.5 558.5 c 128,-1,35
 311 600 311 600 311 641 c 0,36,37
 311 688 311 688 322.5 728.5 c 128,-1,38
 334 769 334 769 358 807 c 1,39,-1
 186 977 l 1,40,-1
 317 1108 l 1,41,-1
 483 936 l 1,42,43
 524 960 524 960 565.5 971.5 c 128,-1,44
 607 983 607 983 653 983 c 0,45,46
 692 983 692 983 732.5 972 c 128,-1,47
 773 961 773 961 819 938 c 1,12,-1
EndSplineSet
EndChar

StartChar: yen
Encoding: 165 165 107
Width: 1233
Flags: W
LayerCount: 2
Fore
SplineSet
8 1493 m 1,0,-1
 326 1493 l 1,1,-1
 616 893 l 1,2,-1
 907 1493 l 1,3,-1
 1225 1493 l 1,4,-1
 952 965 l 1,5,-1
 1176 965 l 1,6,-1
 1176 778 l 1,7,-1
 854 778 l 1,8,-1
 768 627 l 1,9,-1
 1176 627 l 1,10,-1
 1176 438 l 1,11,-1
 764 438 l 1,12,-1
 764 0 l 1,13,-1
 469 0 l 1,14,-1
 469 438 l 1,15,-1
 57 438 l 1,16,-1
 57 627 l 1,17,-1
 465 627 l 1,18,-1
 379 778 l 1,19,-1
 57 778 l 1,20,-1
 57 965 l 1,21,-1
 281 965 l 1,22,-1
 8 1493 l 1,0,-1
EndSplineSet
EndChar

StartChar: brokenbar
Encoding: 166 166 108
Width: 1233
Flags: W
LayerCount: 2
Fore
SplineSet
729 408 m 1,0,-1
 729 -350 l 1,1,-1
 502 -350 l 1,2,-1
 502 408 l 1,3,-1
 729 408 l 1,0,-1
729 1432 m 1,4,-1
 729 674 l 1,5,-1
 502 674 l 1,6,-1
 502 1432 l 1,7,-1
 729 1432 l 1,4,-1
EndSplineSet
EndChar

StartChar: section
Encoding: 167 167 109
Width: 1233
Flags: W
LayerCount: 2
Fore
SplineSet
518 856 m 1,0,1
 463 820 463 820 438.5 785.5 c 128,-1,2
 414 751 414 751 414 711 c 0,3,4
 414 657 414 657 462.5 613 c 128,-1,5
 511 569 511 569 711 473 c 1,6,7
 766 509 766 509 790.5 543.5 c 128,-1,8
 815 578 815 578 815 621 c 0,9,10
 815 702 815 702 550 840 c 1,11,-1
 518 856 l 1,0,1
930 1460 m 1,12,-1
 930 1235 l 1,13,14
 845 1265 845 1265 779 1279.5 c 128,-1,15
 713 1294 713 1294 659 1294 c 0,16,17
 583 1294 583 1294 540.5 1265 c 128,-1,18
 498 1236 498 1236 498 1184 c 0,19,20
 498 1109 498 1109 701 1004 c 0,21,22
 720 994 720 994 729 989 c 0,23,24
 943 879 943 879 1002 808.5 c 128,-1,25
 1061 738 1061 738 1061 637 c 0,26,27
 1061 548 1061 548 1013.5 484 c 128,-1,28
 966 420 966 420 864 373 c 1,29,30
 934 323 934 323 966.5 261.5 c 128,-1,31
 999 200 999 200 999 119 c 0,32,33
 999 -28 999 -28 894.5 -111.5 c 128,-1,34
 790 -195 790 -195 604 -195 c 0,35,36
 515 -195 515 -195 429 -180.5 c 128,-1,37
 343 -166 343 -166 258 -137 c 1,38,-1
 258 92 l 1,39,40
 343 62 343 62 424 46.5 c 128,-1,41
 505 31 505 31 578 31 c 0,42,43
 655 31 655 31 696 59.5 c 128,-1,44
 737 88 737 88 737 141 c 0,45,46
 737 211 737 211 523 326 c 1,47,-1
 512 332 l 1,48,-1
 486 346 l 2,49,50
 170 516 170 516 170 688 c 0,51,52
 170 782 170 782 222 851.5 c 128,-1,53
 274 921 274 921 371 954 c 1,54,55
 300 1004 300 1004 268 1064 c 128,-1,56
 236 1124 236 1124 236 1206 c 0,57,58
 236 1348 236 1348 340 1434 c 128,-1,59
 444 1520 444 1520 616 1520 c 0,60,61
 690 1520 690 1520 768.5 1505 c 128,-1,62
 847 1490 847 1490 930 1460 c 1,12,-1
EndSplineSet
EndChar

StartChar: dieresis
Encoding: 168 168 110
Width: 1233
Flags: W
LayerCount: 2
Fore
SplineSet
696 1585 m 1,0,-1
 932 1585 l 1,1,-1
 932 1339 l 1,2,-1
 696 1339 l 1,3,-1
 696 1585 l 1,0,-1
301 1585 m 1,4,-1
 537 1585 l 1,5,-1
 537 1339 l 1,6,-1
 301 1339 l 1,7,-1
 301 1585 l 1,4,-1
EndSplineSet
EndChar

StartChar: copyright
Encoding: 169 169 111
Width: 1233
Flags: W
LayerCount: 2
Fore
SplineSet
848 1049 m 1,0,-1
 848 881 l 1,1,2
 796 912 796 912 750.5 926 c 128,-1,3
 705 940 705 940 657 940 c 0,4,5
 560 940 560 940 506.5 888 c 128,-1,6
 453 836 453 836 453 741 c 256,7,8
 453 646 453 646 506 594.5 c 128,-1,9
 559 543 559 543 657 543 c 0,10,11
 710 543 710 543 758 557.5 c 128,-1,12
 806 572 806 572 848 602 c 1,13,-1
 848 434 l 1,14,15
 793 417 793 417 740 408 c 128,-1,16
 687 399 687 399 637 399 c 0,17,18
 468 399 468 399 367 492.5 c 128,-1,19
 266 586 266 586 266 741 c 0,20,21
 266 897 266 897 367 990 c 128,-1,22
 468 1083 468 1083 637 1083 c 0,23,24
 692 1083 692 1083 744.5 1074.5 c 128,-1,25
 797 1066 797 1066 848 1049 c 1,0,-1
616 1358 m 0,26,27
 743 1358 743 1358 852 1313 c 128,-1,28
 961 1268 961 1268 1051 1178 c 0,29,30
 1141 1087 1141 1087 1187 977 c 128,-1,31
 1233 867 1233 867 1233 741 c 0,32,33
 1233 616 1233 616 1187.5 507 c 128,-1,34
 1142 398 1142 398 1051 307 c 256,35,36
 960 216 960 216 851 170.5 c 128,-1,37
 742 125 742 125 616 125 c 0,38,39
 491 125 491 125 382 170.5 c 128,-1,40
 273 216 273 216 182 307 c 256,41,42
 91 398 91 398 45.5 507 c 128,-1,43
 0 616 0 616 0 741 c 0,44,45
 0 867 0 867 46 977 c 128,-1,46
 92 1087 92 1087 182 1178 c 0,47,48
 272 1268 272 1268 381 1313 c 128,-1,49
 490 1358 490 1358 616 1358 c 0,26,27
616 1229 m 0,50,51
 517 1229 517 1229 432 1193.5 c 128,-1,52
 347 1158 347 1158 274 1085 c 0,53,54
 203 1014 203 1014 167 928 c 128,-1,55
 131 842 131 842 131 741 c 0,56,57
 131 643 131 643 167 558 c 128,-1,58
 203 473 203 473 274 401 c 256,59,60
 345 329 345 329 431 292.5 c 128,-1,61
 517 256 517 256 616 256 c 0,62,63
 716 256 716 256 802 292.5 c 128,-1,64
 888 329 888 329 958 401 c 1,65,66
 1030 473 1030 473 1066 558 c 128,-1,67
 1102 643 1102 643 1102 741 c 0,68,69
 1102 842 1102 842 1066 928 c 128,-1,70
 1030 1014 1030 1014 958 1085 c 1,71,72
 886 1158 886 1158 801.5 1193.5 c 128,-1,73
 717 1229 717 1229 616 1229 c 0,50,51
EndSplineSet
EndChar

StartChar: ordfeminine
Encoding: 170 170 112
Width: 1233
Flags: W
LayerCount: 2
Fore
SplineSet
786 1049 m 2,0,-1
 786 1079 l 1,1,-1
 684 1079 l 2,2,3
 575 1079 575 1079 525 1053 c 128,-1,4
 475 1027 475 1027 475 971 c 0,5,6
 475 922 475 922 505.5 894 c 128,-1,7
 536 866 536 866 590 866 c 0,8,9
 676 866 676 866 731 917.5 c 128,-1,10
 786 969 786 969 786 1049 c 2,0,-1
786 809 m 1,11,12
 736 752 736 752 675.5 725 c 128,-1,13
 615 698 615 698 537 698 c 0,14,15
 407 698 407 698 331.5 766.5 c 128,-1,16
 256 835 256 835 256 952 c 0,17,18
 256 1086 256 1086 348.5 1152.5 c 128,-1,19
 441 1219 441 1219 629 1219 c 2,20,-1
 786 1219 l 1,21,-1
 786 1245 l 2,22,23
 786 1294 786 1294 740.5 1318.5 c 128,-1,24
 695 1343 695 1343 604 1343 c 0,25,26
 522 1343 522 1343 450.5 1326.5 c 128,-1,27
 379 1310 379 1310 315 1276 c 1,28,-1
 315 1464 l 1,29,30
 388 1492 388 1492 462 1506 c 128,-1,31
 536 1520 536 1520 612 1520 c 0,32,33
 801 1520 801 1520 890 1434 c 128,-1,34
 979 1348 979 1348 979 1165 c 2,35,-1
 979 717 l 1,36,-1
 786 717 l 1,37,-1
 786 809 l 1,11,12
293 598 m 1,38,-1
 981 598 l 1,39,-1
 981 428 l 1,40,-1
 293 428 l 1,41,-1
 293 598 l 1,38,-1
EndSplineSet
EndChar

StartChar: guillemotleft
Encoding: 171 171 113
Width: 1233
Flags: W
LayerCount: 2
Fore
SplineSet
1042 1059 m 1,0,-1
 1042 821 l 1,1,-1
 766 600 l 1,2,-1
 1042 379 l 1,3,-1
 1042 141 l 1,4,-1
 573 535 l 1,5,-1
 573 666 l 1,6,-1
 1042 1059 l 1,0,-1
588 1059 m 1,7,-1
 588 821 l 1,8,-1
 311 600 l 1,9,-1
 588 379 l 1,10,-1
 588 141 l 1,11,-1
 119 535 l 1,12,-1
 119 666 l 1,13,-1
 588 1059 l 1,7,-1
EndSplineSet
EndChar

StartChar: logicalnot
Encoding: 172 172 114
Width: 1478
Flags: W
LayerCount: 2
Fore
SplineSet
1405 717 m 2,0,-1
 1405 271 l 2,1,2
 1405 256 1405 256 1405 248 c 0,3,4
 1404 237 1404 237 1401 221 c 0,5,6
 1397 199 1397 199 1386 184 c 0,7,8
 1375 168 1375 168 1356 158 c 0,9,10
 1336 147 1336 147 1310 147 c 128,-1,11
 1284 147 1284 147 1264 158 c 0,12,13
 1245 168 1245 168 1234 183 c 0,14,15
 1223 199 1223 199 1218 221 c 0,16,17
 1215 237 1215 237 1215 248 c 1,18,19
 1214 256 1214 256 1214 271 c 2,20,-1
 1214 651 l 1,21,-1
 198 651 l 2,22,23
 179 651 179 651 168 652 c 0,24,25
 154 653 154 653 136 658 c 0,26,27
 105 667 105 667 88 693 c 0,28,29
 73 715 73 715 73 746 c 128,-1,30
 73 777 73 777 88 799 c 0,31,32
 105 825 105 825 136 834 c 0,33,34
 154 839 154 839 168 840 c 0,35,36
 179 841 179 841 198 841 c 2,37,-1
 1281 841 l 2,38,39
 1305 841 1305 841 1316 840.5 c 128,-1,40
 1327 840 1327 840 1345.5 833.5 c 128,-1,41
 1364 827 1364 827 1377.5 814 c 128,-1,42
 1391 801 1391 801 1397.5 782 c 128,-1,43
 1404 763 1404 763 1404.5 752 c 128,-1,44
 1405 741 1405 741 1405 717 c 2,0,-1
EndSplineSet
EndChar

StartChar: uni00AD
Encoding: 173 173 115
Width: 1233
Flags: W
LayerCount: 2
Fore
SplineSet
301 735 m 1,0,-1
 932 735 l 1,1,-1
 932 444 l 1,2,-1
 301 444 l 1,3,-1
 301 735 l 1,0,-1
EndSplineSet
EndChar

StartChar: registered
Encoding: 174 174 116
Width: 1233
Flags: W
LayerCount: 2
Fore
SplineSet
616 1358 m 0,0,1
 743 1358 743 1358 852 1313 c 128,-1,2
 961 1268 961 1268 1051 1178 c 0,3,4
 1141 1087 1141 1087 1187 977 c 128,-1,5
 1233 867 1233 867 1233 741 c 0,6,7
 1233 616 1233 616 1187.5 507 c 128,-1,8
 1142 398 1142 398 1051 307 c 256,9,10
 960 216 960 216 851 170.5 c 128,-1,11
 742 125 742 125 616 125 c 0,12,13
 491 125 491 125 382 170.5 c 128,-1,14
 273 216 273 216 182 307 c 256,15,16
 91 398 91 398 45.5 507 c 128,-1,17
 0 616 0 616 0 741 c 0,18,19
 0 867 0 867 46 977 c 128,-1,20
 92 1087 92 1087 182 1178 c 0,21,22
 272 1268 272 1268 381 1313 c 128,-1,23
 490 1358 490 1358 616 1358 c 0,0,1
588 944 m 2,24,-1
 524 944 l 1,25,-1
 524 780 l 1,26,-1
 588 780 l 2,27,28
 645 780 645 780 673.5 800 c 128,-1,29
 702 820 702 820 702 860 c 0,30,31
 702 903 702 903 674 923.5 c 128,-1,32
 646 944 646 944 588 944 c 2,24,-1
606 1055 m 2,33,34
 739 1055 739 1055 803.5 1011 c 128,-1,35
 868 967 868 967 868 877 c 0,36,37
 868 812 868 812 829 769.5 c 128,-1,38
 790 727 790 727 719 715 c 1,39,40
 757 701 757 701 784.5 673 c 128,-1,41
 812 645 812 645 836 596 c 2,42,-1
 915 430 l 1,43,-1
 743 430 l 1,44,-1
 680 563 l 2,45,46
 653 621 653 621 624.5 644.5 c 128,-1,47
 596 668 596 668 555 670 c 1,48,-1
 524 670 l 1,49,-1
 524 430 l 1,50,-1
 360 430 l 1,51,-1
 360 1055 l 1,52,-1
 606 1055 l 2,33,34
616 1229 m 0,53,54
 517 1229 517 1229 432 1193.5 c 128,-1,55
 347 1158 347 1158 274 1085 c 0,56,57
 203 1014 203 1014 167 928 c 128,-1,58
 131 842 131 842 131 741 c 0,59,60
 131 643 131 643 167 558 c 128,-1,61
 203 473 203 473 274 399 c 1,62,63
 346 328 346 328 431.5 292 c 128,-1,64
 517 256 517 256 616 256 c 256,65,66
 715 256 715 256 801 292 c 128,-1,67
 887 328 887 328 958 399 c 1,68,69
 1030 473 1030 473 1066 558 c 128,-1,70
 1102 643 1102 643 1102 741 c 0,71,72
 1102 842 1102 842 1066 928 c 128,-1,73
 1030 1014 1030 1014 958 1085 c 1,74,75
 886 1158 886 1158 801.5 1193.5 c 128,-1,76
 717 1229 717 1229 616 1229 c 0,53,54
EndSplineSet
EndChar

StartChar: macron
Encoding: 175 175 117
Width: 1233
Flags: W
LayerCount: 2
Fore
SplineSet
301 1556 m 1,0,-1
 932 1556 l 1,1,-1
 932 1368 l 1,2,-1
 301 1368 l 1,3,-1
 301 1556 l 1,0,-1
EndSplineSet
EndChar

StartChar: degree
Encoding: 176 176 118
Width: 1233
Flags: W
LayerCount: 2
Fore
SplineSet
616 1571 m 0,0,1
 693 1571 693 1571 763.5 1541.5 c 128,-1,2
 834 1512 834 1512 888 1457 c 0,3,4
 942 1403 942 1403 971 1333 c 0,5,6
 999 1264 999 1264 999 1186 c 0,7,8
 999 1110 999 1110 970 1039.5 c 128,-1,9
 941 969 941 969 888 916 c 0,10,11
 833 862 833 862 763 832 c 1,12,13
 692 803 692 803 614 803 c 0,14,15
 452 803 452 803 342 913 c 128,-1,16
 232 1023 232 1023 232 1186 c 0,17,18
 232 1348 232 1348 343 1459.5 c 128,-1,19
 454 1571 454 1571 616 1571 c 0,0,1
616 1307 m 0,20,21
 565 1307 565 1307 530 1272 c 128,-1,22
 495 1237 495 1237 495 1186 c 128,-1,23
 495 1135 495 1135 529 1101 c 128,-1,24
 563 1067 563 1067 614 1067 c 128,-1,25
 665 1067 665 1067 700 1102 c 0,26,27
 735 1136 735 1136 735 1186 c 0,28,29
 735 1237 735 1237 700 1272 c 0,30,31
 666 1307 666 1307 616 1307 c 0,20,21
EndSplineSet
EndChar

StartChar: plusminus
Encoding: 177 177 119
Width: 1724
Flags: W
LayerCount: 2
Fore
SplineSet
959 140 m 1,0,-1
 1527 140 l 2,1,2
 1546 140 1546 140 1558.5 138.5 c 128,-1,3
 1571 137 1571 137 1595.5 130.5 c 128,-1,4
 1620 124 1620 124 1636 99.5 c 128,-1,5
 1652 75 1652 75 1652 44.5 c 128,-1,6
 1652 14 1652 14 1636 -10.5 c 128,-1,7
 1620 -35 1620 -35 1596 -41.5 c 128,-1,8
 1572 -48 1572 -48 1559.5 -49.5 c 128,-1,9
 1547 -51 1547 -51 1527 -51 c 2,10,-1
 198 -51 l 2,11,12
 179 -51 179 -51 166.5 -49.5 c 128,-1,13
 154 -48 154 -48 129.5 -41.5 c 128,-1,14
 105 -35 105 -35 89 -10.5 c 128,-1,15
 73 14 73 14 73 44.5 c 128,-1,16
 73 75 73 75 89 99.5 c 128,-1,17
 105 124 105 124 129.5 130.5 c 128,-1,18
 154 137 154 137 166 138.5 c 128,-1,19
 178 140 178 140 198 140 c 2,20,-1
 768 140 l 1,21,-1
 768 644 l 1,22,-1
 198 644 l 2,23,24
 179 644 179 644 166.5 645.5 c 128,-1,25
 154 647 154 647 129.5 653.5 c 128,-1,26
 105 660 105 660 89 684.5 c 128,-1,27
 73 709 73 709 73 739.5 c 128,-1,28
 73 770 73 770 89 794.5 c 128,-1,29
 105 819 105 819 129 825.5 c 128,-1,30
 153 832 153 832 165.5 833.5 c 128,-1,31
 178 835 178 835 198 835 c 2,32,-1
 768 835 l 1,33,-1
 768 1407 l 2,34,35
 768 1426 768 1426 769.5 1438 c 128,-1,36
 771 1450 771 1450 777.5 1475 c 128,-1,37
 784 1500 784 1500 808.5 1515 c 128,-1,38
 833 1530 833 1530 861 1530 c 0,39,40
 865 1530 865 1530 876.5 1528 c 128,-1,41
 888 1526 888 1526 891 1526 c 0,42,43
 905 1522 905 1522 911 1518 c 128,-1,44
 917 1514 917 1514 921.5 1510.5 c 128,-1,45
 926 1507 926 1507 929.5 1503.5 c 128,-1,46
 933 1500 933 1500 938.5 1493 c 128,-1,47
 944 1486 944 1486 948 1477 c 1,48,49
 950 1470 950 1470 953 1457.5 c 128,-1,50
 956 1445 956 1445 957.5 1432 c 128,-1,51
 959 1419 959 1419 959 1399 c 2,52,-1
 959 835 l 1,53,-1
 1527 835 l 2,54,55
 1546 835 1546 835 1558.5 833.5 c 128,-1,56
 1571 832 1571 832 1595.5 825.5 c 128,-1,57
 1620 819 1620 819 1636 794.5 c 128,-1,58
 1652 770 1652 770 1652 739.5 c 128,-1,59
 1652 709 1652 709 1636 684.5 c 128,-1,60
 1620 660 1620 660 1596 653.5 c 128,-1,61
 1572 647 1572 647 1559.5 645.5 c 128,-1,62
 1547 644 1547 644 1527 644 c 2,63,-1
 959 644 l 1,64,-1
 959 140 l 1,0,-1
EndSplineSet
EndChar

StartChar: uni00B2
Encoding: 178 178 120
Width: 1233
Flags: W
LayerCount: 2
Fore
SplineSet
500 813 m 1,0,-1
 940 813 l 1,1,-1
 940 668 l 1,2,-1
 274 668 l 1,3,-1
 274 809 l 1,4,5
 325 852 325 852 415 927 c 0,6,7
 729 1189 729 1189 729 1268 c 0,8,9
 729 1320 729 1320 685.5 1350 c 128,-1,10
 642 1380 642 1380 567 1380 c 0,11,12
 511 1380 511 1380 443.5 1362.5 c 128,-1,13
 376 1345 376 1345 299 1311 c 1,14,-1
 299 1475 l 1,15,16
 374 1497 374 1497 445 1508.5 c 128,-1,17
 516 1520 516 1520 582 1520 c 0,18,19
 751 1520 751 1520 844.5 1457.5 c 128,-1,20
 938 1395 938 1395 938 1284 c 0,21,22
 938 1158 938 1158 583 878 c 0,23,24
 529 836 529 836 500 813 c 1,0,-1
EndSplineSet
EndChar

StartChar: uni00B3
Encoding: 179 179 121
Width: 1233
Flags: W
LayerCount: 2
Fore
SplineSet
582 1042 m 2,0,-1
 471 1042 l 1,1,-1
 471 1188 l 1,2,-1
 582 1188 l 2,3,4
 656 1188 656 1188 698.5 1213 c 128,-1,5
 741 1238 741 1238 741 1282 c 0,6,7
 741 1327 741 1327 701.5 1352.5 c 128,-1,8
 662 1378 662 1378 592 1378 c 0,9,10
 523 1378 523 1378 454 1367 c 128,-1,11
 385 1356 385 1356 317 1333 c 1,12,-1
 317 1485 l 1,13,14
 386 1502 386 1502 455.5 1511 c 128,-1,15
 525 1520 525 1520 592 1520 c 0,16,17
 754 1520 754 1520 846 1462 c 128,-1,18
 938 1404 938 1404 938 1303 c 0,19,20
 938 1230 938 1230 885.5 1183 c 128,-1,21
 833 1136 833 1136 735 1120 c 1,22,23
 846 1105 846 1105 904.5 1049 c 128,-1,24
 963 993 963 993 963 901 c 0,25,26
 963 780 963 780 866.5 716.5 c 128,-1,27
 770 653 770 653 586 653 c 0,28,29
 511 653 511 653 436 663.5 c 128,-1,30
 361 674 361 674 287 694 c 1,31,-1
 287 848 l 1,32,33
 354 821 354 821 430 807 c 128,-1,34
 506 793 506 793 586 793 c 0,35,36
 671 793 671 793 718.5 825 c 128,-1,37
 766 857 766 857 766 913 c 0,38,39
 766 974 766 974 717 1008 c 128,-1,40
 668 1042 668 1042 582 1042 c 2,0,-1
EndSplineSet
EndChar

StartChar: acute
Encoding: 180 180 122
Width: 1233
Flags: W
LayerCount: 2
Fore
SplineSet
752 1638 m 1,0,-1
 1034 1638 l 1,1,-1
 666 1262 l 1,2,-1
 469 1262 l 1,3,-1
 752 1638 l 1,0,-1
EndSplineSet
EndChar

StartChar: uni00B5
Encoding: 181 181 123
Width: 1233
Flags: W
LayerCount: 2
Fore
SplineSet
174 -428 m 1,0,-1
 174 1120 l 1,1,-1
 461 1120 l 1,2,-1
 461 440 l 2,3,4
 461 326 461 326 502 268.5 c 128,-1,5
 543 211 543 211 625 211 c 0,6,7
 706 211 706 211 746 268 c 128,-1,8
 786 325 786 325 786 440 c 2,9,-1
 786 1120 l 1,10,-1
 1075 1120 l 1,11,-1
 1075 344 l 2,12,13
 1075 273 1075 273 1088.5 242 c 128,-1,14
 1102 211 1102 211 1133 211 c 0,15,16
 1147 211 1147 211 1160 216.5 c 128,-1,17
 1173 222 1173 222 1188 233 c 1,18,-1
 1188 16 l 1,19,20
 1145 -7 1145 -7 1108 -18 c 128,-1,21
 1071 -29 1071 -29 1036 -29 c 0,22,23
 964 -29 964 -29 918.5 8.5 c 128,-1,24
 873 46 873 46 846 129 c 1,25,26
 809 51 809 51 754 11 c 128,-1,27
 699 -29 699 -29 629 -29 c 0,28,29
 570 -29 570 -29 528.5 -5.5 c 128,-1,30
 487 18 487 18 461 66 c 1,31,-1
 463 -428 l 1,32,-1
 174 -428 l 1,0,-1
EndSplineSet
EndChar

StartChar: paragraph
Encoding: 182 182 124
Width: 1233
Flags: W
LayerCount: 2
Fore
SplineSet
545 1493 m 2,0,-1
 1065 1493 l 1,1,-1
 1065 -197 l 1,2,-1
 874 -197 l 1,3,-1
 874 1346 l 1,4,-1
 684 1346 l 1,5,-1
 684 -197 l 1,6,-1
 496 -197 l 1,7,-1
 496 649 l 1,8,9
 291 674 291 674 180.5 783.5 c 128,-1,10
 70 893 70 893 70 1071 c 0,11,12
 70 1261 70 1261 200 1377 c 128,-1,13
 330 1493 330 1493 545 1493 c 2,0,-1
EndSplineSet
EndChar

StartChar: periodcentered
Encoding: 183 183 125
Width: 614
Flags: W
LayerCount: 2
Fore
SplineSet
427.5 436 m 128,-1,1
 378 386 378 386 308.5 386 c 128,-1,2
 239 386 239 386 189.5 436 c 128,-1,3
 140 486 140 486 140 555 c 128,-1,4
 140 624 140 624 189 674 c 128,-1,5
 238 724 238 724 307 724 c 1,6,-1
 343 723 l 2,7,8
 378 723 378 723 427.5 673.5 c 128,-1,9
 477 624 477 624 477 555 c 128,-1,0
 477 486 477 486 427.5 436 c 128,-1,1
EndSplineSet
EndChar

StartChar: cedilla
Encoding: 184 184 126
Width: 1233
Flags: W
LayerCount: 2
Fore
SplineSet
707 0 m 1,0,1
 764 -62 764 -62 791.5 -115 c 128,-1,2
 819 -168 819 -168 819 -215 c 0,3,4
 819 -310 819 -310 757.5 -355.5 c 128,-1,5
 696 -401 696 -401 569 -401 c 0,6,7
 521 -401 521 -401 470.5 -394.5 c 128,-1,8
 420 -388 420 -388 367 -375 c 1,9,-1
 367 -219 l 1,10,11
 412 -236 412 -236 454 -245 c 128,-1,12
 496 -254 496 -254 532 -254 c 0,13,14
 590 -254 590 -254 622.5 -231 c 128,-1,15
 655 -208 655 -208 655 -168 c 0,16,17
 655 -142 655 -142 634 -101 c 128,-1,18
 613 -60 613 -60 567 0 c 1,19,-1
 707 0 l 1,0,1
EndSplineSet
EndChar

StartChar: uni00B9
Encoding: 185 185 127
Width: 1233
Flags: W
LayerCount: 2
Fore
SplineSet
313 813 m 1,0,-1
 539 813 l 1,1,-1
 539 1356 l 1,2,-1
 319 1313 l 1,3,-1
 319 1462 l 1,4,-1
 541 1503 l 1,5,-1
 735 1503 l 1,6,-1
 735 813 l 1,7,-1
 961 813 l 1,8,-1
 961 668 l 1,9,-1
 313 668 l 1,10,-1
 313 813 l 1,0,-1
EndSplineSet
EndChar

StartChar: ordmasculine
Encoding: 186 186 128
Width: 1233
Flags: W
LayerCount: 2
Fore
SplineSet
293 598 m 1,0,-1
 981 598 l 1,1,-1
 981 428 l 1,2,-1
 293 428 l 1,3,-1
 293 598 l 1,0,-1
274 1108 m 256,4,5
 274 1297 274 1297 372.5 1408.5 c 128,-1,6
 471 1520 471 1520 637 1520 c 256,7,8
 803 1520 803 1520 901 1409 c 128,-1,9
 999 1298 999 1298 999 1108 c 0,10,11
 999 919 999 919 901.5 808.5 c 128,-1,12
 804 698 804 698 637 698 c 0,13,14
 471 698 471 698 372.5 808.5 c 128,-1,15
 274 919 274 919 274 1108 c 256,4,5
637 1343 m 256,16,17
 564 1343 564 1343 521.5 1280 c 128,-1,18
 479 1217 479 1217 479 1108 c 256,19,20
 479 999 479 999 521.5 936.5 c 128,-1,21
 564 874 564 874 637 874 c 256,22,23
 710 874 710 874 752.5 936.5 c 128,-1,24
 795 999 795 999 795 1108 c 256,25,26
 795 1217 795 1217 752.5 1280 c 128,-1,27
 710 1343 710 1343 637 1343 c 256,16,17
EndSplineSet
EndChar

StartChar: guillemotright
Encoding: 187 187 129
Width: 1233
Flags: W
LayerCount: 2
Fore
SplineSet
193 1059 m 1,0,-1
 662 666 l 1,1,-1
 662 535 l 1,2,-1
 193 141 l 1,3,-1
 193 379 l 1,4,-1
 469 600 l 1,5,-1
 193 821 l 1,6,-1
 193 1059 l 1,0,-1
647 1059 m 1,7,-1
 1116 666 l 1,8,-1
 1116 535 l 1,9,-1
 647 141 l 1,10,-1
 647 379 l 1,11,-1
 924 600 l 1,12,-1
 647 821 l 1,13,-1
 647 1059 l 1,7,-1
EndSplineSet
EndChar

StartChar: questiondown
Encoding: 191 191 133
Width: 1233
Flags: W
LayerCount: 2
Fore
SplineSet
799 1210 m 1,0,-1
 532 1210 l 1,1,-1
 532 1493 l 1,2,-1
 799 1493 l 1,3,-1
 799 1210 l 1,0,-1
532 1092 m 1,4,-1
 799 1092 l 1,5,-1
 799 938 l 2,6,7
 799 839 799 839 768 768.5 c 128,-1,8
 737 698 737 698 657 621 c 1,9,-1
 567 532 l 2,10,11
 506 473 506 473 483.5 432.5 c 128,-1,12
 461 392 461 392 461 348 c 0,13,14
 461 281 461 281 507 247 c 128,-1,15
 553 213 553 213 645 213 c 0,16,17
 728 213 728 213 818.5 248.5 c 128,-1,18
 909 284 909 284 1006 354 c 1,19,-1
 1006 86 l 1,20,21
 908 30 908 30 807.5 1.5 c 128,-1,22
 707 -27 707 -27 606 -27 c 0,23,24
 405 -27 405 -27 290.5 67 c 128,-1,25
 176 161 176 161 176 326 c 0,26,27
 176 402 176 402 210 467.5 c 128,-1,28
 244 533 244 533 338 625 c 2,29,-1
 426 711 l 2,30,31
 492 775 492 775 511 817 c 128,-1,32
 530 859 530 859 530 922 c 0,33,34
 530 923 530 923 531 928 c 0,35,36
 532 949 532 949 532 969 c 2,37,-1
 532 1092 l 1,4,-1
EndSplineSet
EndChar

StartChar: Aring
Encoding: 197 197 139
Width: 1233
Flags: W
LayerCount: 2
Fore
SplineSet
815 1421 m 1,0,-1
 1200 0 l 1,1,-1
 905 0 l 1,2,-1
 813 369 l 1,3,-1
 418 369 l 1,4,-1
 328 0 l 1,5,-1
 33 0 l 1,6,-1
 418 1421 l 1,7,8
 374 1458 374 1458 353 1506.5 c 128,-1,9
 332 1555 332 1555 332 1616 c 0,10,11
 332 1733 332 1733 415.5 1817 c 128,-1,12
 499 1901 499 1901 616 1901 c 0,13,14
 734 1901 734 1901 817.5 1817 c 128,-1,15
 901 1733 901 1733 901 1616 c 0,16,17
 901 1554 901 1554 880 1506.5 c 128,-1,18
 859 1459 859 1459 815 1421 c 1,0,-1
485 1616 m 256,19,20
 485 1562 485 1562 524 1523.5 c 128,-1,21
 563 1485 563 1485 616 1485 c 0,22,23
 671 1485 671 1485 709.5 1523.5 c 128,-1,24
 748 1562 748 1562 748 1616 c 256,25,26
 748 1670 748 1670 709 1708.5 c 128,-1,27
 670 1747 670 1747 616 1747 c 0,28,29
 563 1747 563 1747 524 1708.5 c 128,-1,30
 485 1670 485 1670 485 1616 c 256,19,20
616 1223 m 1,31,-1
 477 612 l 1,32,-1
 756 612 l 1,33,-1
 616 1223 l 1,31,-1
EndSplineSet
EndChar

StartChar: AE
Encoding: 198 198 140
Width: 1233
Flags: W
LayerCount: 2
Fore
SplineSet
1161 1493 m 1,0,-1
 1161 1233 l 1,1,-1
 870 1233 l 1,2,-1
 870 922 l 1,3,-1
 1130 922 l 1,4,-1
 1130 662 l 1,5,-1
 870 662 l 1,6,-1
 870 260 l 1,7,-1
 1180 260 l 1,8,-1
 1180 0 l 1,9,-1
 616 0 l 1,10,-1
 616 362 l 1,11,-1
 334 362 l 1,12,-1
 248 0 l 1,13,-1
 0 0 l 1,14,-1
 358 1493 l 1,15,-1
 1161 1493 l 1,0,-1
537 1233 m 1,16,-1
 389 598 l 1,17,-1
 616 598 l 1,18,-1
 616 1233 l 1,19,-1
 537 1233 l 1,16,-1
EndSplineSet
EndChar

StartChar: Eth
Encoding: 208 208 150
Width: 1233
Flags: W
LayerCount: 2
Fore
SplineSet
432 1227 m 1,0,-1
 432 901 l 1,1,-1
 643 901 l 1,2,-1
 643 664 l 1,3,-1
 432 664 l 1,4,-1
 432 266 l 1,5,-1
 512 266 l 2,6,7
 686 266 686 266 760 375.5 c 128,-1,8
 834 485 834 485 834 748 c 0,9,10
 834 1009 834 1009 760 1118 c 128,-1,11
 686 1227 686 1227 512 1227 c 2,12,-1
 432 1227 l 1,0,-1
137 1493 m 1,13,-1
 453 1493 l 2,14,15
 819 1493 819 1493 980 1318.5 c 128,-1,16
 1141 1144 1141 1144 1141 748 c 0,17,18
 1141 351 1141 351 980 175.5 c 128,-1,19
 819 0 819 0 453 0 c 2,20,-1
 137 0 l 1,21,-1
 137 664 l 1,22,-1
 0 664 l 1,23,-1
 0 901 l 1,24,-1
 137 901 l 1,25,-1
 137 1493 l 1,13,-1
EndSplineSet
EndChar

StartChar: multiply
Encoding: 215 215 157
Width: 1928
Flags: W
LayerCount: 2
Fore
SplineSet
1559 183 m 1,0,1
 1582 156 1582 156 1592.5 135 c 128,-1,2
 1603 114 1603 114 1603 73 c 1,3,4
 1602 66 1602 66 1600 56 c 0,5,6
 1599 48 1599 48 1598 45 c 0,7,8
 1598 44 1598 44 1596 43 c 1,9,10
 1595 44 1595 44 1593 45 c 1,11,12
 1591 42 1591 42 1587 39 c 0,13,14
 1582 34 1582 34 1565 27 c 128,-1,15
 1548 20 1548 20 1507 20 c 1,16,-1
 1477 25 l 1,17,18
 1451 31 1451 31 1422 49 c 1,19,-1
 963 421 l 1,20,-1
 504 49 l 2,21,22
 481 31 481 31 465 25.5 c 128,-1,23
 449 20 449 20 422 20 c 0,24,25
 421 20 421 20 415 20.5 c 128,-1,26
 409 21 409 21 404 21 c 0,27,28
 398 22 398 22 388 23 c 1,29,30
 379 25 379 25 370 27 c 1,31,32
 363 31 363 31 344.5 42 c 128,-1,33
 326 53 326 53 326 74 c 1,34,35
 327 78 327 78 328 84 c 0,36,37
 329 91 329 91 330 96 c 0,38,39
 331 107 331 107 331 111 c 1,40,41
 341 147 341 147 370 185 c 1,42,-1
 806 555 l 1,43,-1
 370 927 l 1,44,45
 350 951 350 951 338 974.5 c 128,-1,46
 326 998 326 998 326 1046 c 0,47,48
 326 1059 326 1059 344 1068 c 128,-1,49
 362 1077 362 1077 369 1081 c 0,50,51
 376 1086 376 1086 379 1087 c 0,52,53
 381 1088 381 1088 386 1088 c 0,54,55
 390 1088 390 1088 394 1088 c 256,56,57
 398 1088 398 1088 404 1089 c 0,58,59
 413 1090 413 1090 422 1090 c 0,60,61
 450 1090 450 1090 466 1085 c 128,-1,62
 482 1080 482 1080 504 1060 c 1,63,-1
 966 689 l 1,64,-1
 1425 1061 l 2,65,66
 1445 1078 1445 1078 1462 1084 c 128,-1,67
 1479 1090 1479 1090 1507 1090 c 1,68,69
 1514 1089 1514 1089 1523 1088 c 0,70,71
 1532 1086 1532 1086 1535 1086 c 256,72,73
 1538 1086 1538 1086 1543 1085 c 1,74,75
 1547 1086 1547 1086 1551 1086 c 1,76,77
 1554 1085 1554 1085 1560 1083 c 1,78,79
 1567 1082 1567 1082 1572.5 1079 c 128,-1,80
 1578 1076 1578 1076 1584 1070 c 1,81,82
 1589 1063 1589 1063 1591 1061 c 0,83,84
 1593 1060 1593 1060 1595 1059 c 1,85,86
 1598 1060 1598 1060 1599 1061 c 1,87,88
 1600 1059 1600 1059 1601 1055 c 0,89,90
 1603 1050 1603 1050 1603 1046 c 0,91,92
 1603 999 1603 999 1592.5 976.5 c 128,-1,93
 1582 954 1582 954 1559 927 c 1,94,-1
 1122 555 l 1,95,-1
 1559 183 l 1,0,1
EndSplineSet
EndChar

StartChar: Oslash
Encoding: 216 216 158
Width: 1233
Flags: W
LayerCount: 2
Fore
SplineSet
451 354 m 1,0,1
 475 297 475 297 517.5 266.5 c 128,-1,2
 560 236 560 236 616 236 c 0,3,4
 730 236 730 236 782 356.5 c 128,-1,5
 834 477 834 477 834 745 c 0,6,7
 834 773 834 773 833 804 c 128,-1,8
 832 835 832 835 829 888 c 1,9,-1
 451 354 l 1,0,1
772 1153 m 1,10,11
 746 1204 746 1204 707 1229.5 c 128,-1,12
 668 1255 668 1255 616 1255 c 0,13,14
 504 1255 504 1255 451.5 1135 c 128,-1,15
 399 1015 399 1015 399 756 c 2,16,-1
 399 629 l 1,17,-1
 772 1153 l 1,10,11
162 289 m 1,18,19
 127 377 127 377 109.5 490.5 c 128,-1,20
 92 604 92 604 92 745 c 0,21,22
 92 1128 92 1128 224.5 1324 c 128,-1,23
 357 1520 357 1520 616 1520 c 0,24,25
 719 1520 719 1520 802 1489 c 128,-1,26
 885 1458 885 1458 946 1397 c 1,27,-1
 1059 1559 l 1,28,-1
 1221 1444 l 1,29,-1
 1063 1221 l 1,30,31
 1102 1127 1102 1127 1121.5 1007.5 c 128,-1,32
 1141 888 1141 888 1141 745 c 0,33,34
 1141 363 1141 363 1008.5 167 c 128,-1,35
 876 -29 876 -29 616 -29 c 0,36,37
 510 -29 510 -29 425 4.5 c 128,-1,38
 340 38 340 38 276 104 c 1,39,-1
 156 -63 l 1,40,-1
 -6 51 l 1,41,-1
 162 289 l 1,18,19
EndSplineSet
EndChar

StartChar: Thorn
Encoding: 222 222 164
Width: 1233
Flags: W
LayerCount: 2
Fore
SplineSet
457 1014 m 1,0,-1
 457 575 l 1,1,-1
 578 575 l 2,2,3
 724 575 724 575 782 624 c 128,-1,4
 840 673 840 673 840 793 c 0,5,6
 840 914 840 914 781.5 964 c 128,-1,7
 723 1014 723 1014 578 1014 c 2,8,-1
 457 1014 l 1,0,-1
162 1493 m 1,9,-1
 457 1493 l 1,10,-1
 457 1255 l 1,11,-1
 567 1255 l 2,12,13
 876 1255 876 1255 1011.5 1145.5 c 128,-1,14
 1147 1036 1147 1036 1147 788 c 0,15,16
 1147 549 1147 549 1010 440.5 c 128,-1,17
 873 332 873 332 567 332 c 2,18,-1
 457 332 l 1,19,-1
 457 0 l 1,20,-1
 162 0 l 1,21,-1
 162 1493 l 1,9,-1
EndSplineSet
EndChar

StartChar: germandbls
Encoding: 223 223 165
Width: 1233
Flags: W
LayerCount: 2
Fore
SplineSet
1034 1059 m 1,0,1
 909 1053 909 1053 844.5 1007.5 c 128,-1,2
 780 962 780 962 780 881 c 0,3,4
 780 817 780 817 896 728 c 0,5,6
 909 718 909 718 915 713 c 2,7,-1
 1012 639 l 2,8,9
 1094 577 1094 577 1134 500.5 c 128,-1,10
 1174 424 1174 424 1174 330 c 0,11,12
 1174 163 1174 163 1062 67 c 128,-1,13
 950 -29 950 -29 756 -29 c 0,14,15
 695 -29 695 -29 633 -16.5 c 128,-1,16
 571 -4 571 -4 504 20 c 1,17,-1
 504 270 l 1,18,19
 562 239 562 239 619.5 223 c 128,-1,20
 677 207 677 207 731 207 c 0,21,22
 804 207 804 207 846.5 240.5 c 128,-1,23
 889 274 889 274 889 332 c 0,24,25
 889 404 889 404 774 492 c 0,26,27
 745 514 745 514 729 526 c 2,28,-1
 643 594 l 1,29,30
 584 642 584 642 554 705.5 c 128,-1,31
 524 769 524 769 524 846 c 0,32,33
 524 972 524 972 598 1057.5 c 128,-1,34
 672 1143 672 1143 809 1174 c 1,35,36
 800 1248 800 1248 751 1284.5 c 128,-1,37
 702 1321 702 1321 610 1321 c 0,38,39
 516 1321 516 1321 468 1270.5 c 128,-1,40
 420 1220 420 1220 420 1122 c 2,41,-1
 420 0 l 1,42,-1
 127 0 l 1,43,-1
 127 1126 l 2,44,45
 127 1337 127 1337 247.5 1446.5 c 128,-1,46
 368 1556 368 1556 598 1556 c 0,47,48
 821 1556 821 1556 927.5 1437.5 c 128,-1,49
 1034 1319 1034 1319 1034 1073 c 2,50,-1
 1034 1059 l 1,0,1
EndSplineSet
EndChar

StartChar: ae
Encoding: 230 230 172
Width: 1233
Flags: W
LayerCount: 2
Fore
SplineSet
489 401 m 1,0,-1
 489 483 l 1,1,-1
 416 483 l 2,2,3
 329 483 329 483 284.5 444 c 128,-1,4
 240 405 240 405 240 330 c 0,5,6
 240 259 240 259 272 221.5 c 128,-1,7
 304 184 304 184 365 184 c 0,8,9
 428 184 428 184 458.5 227 c 128,-1,10
 489 270 489 270 489 358 c 2,11,-1
 489 401 l 1,0,-1
963 690 m 1,12,-1
 963 713 l 2,13,14
 963 838 963 838 938 885 c 128,-1,15
 913 932 913 932 850 932 c 256,16,17
 787 932 787 932 762 885 c 128,-1,18
 737 838 737 838 737 713 c 2,19,-1
 737 690 l 1,20,-1
 963 690 l 1,12,-1
1188 479 m 1,21,-1
 737 479 l 1,22,23
 737 335 737 335 787 259.5 c 128,-1,24
 837 184 837 184 932 184 c 0,25,26
 992 184 992 184 1052 213.5 c 128,-1,27
 1112 243 1112 243 1171 301 c 1,28,-1
 1171 57 l 1,29,30
 1121 13 1121 13 1058.5 -8 c 128,-1,31
 996 -29 996 -29 913 -29 c 0,32,33
 810 -29 810 -29 735 13 c 128,-1,34
 660 55 660 55 618 135 c 1,35,36
 577 51 577 51 511.5 11 c 128,-1,37
 446 -29 446 -29 348 -29 c 0,38,39
 188 -29 188 -29 101 63.5 c 128,-1,40
 14 156 14 156 14 326 c 0,41,42
 14 511 14 511 115 602.5 c 128,-1,43
 216 694 216 694 420 694 c 2,44,-1
 496 694 l 1,45,-1
 496 745 l 2,46,47
 496 838 496 838 457 885 c 128,-1,48
 418 932 418 932 342 932 c 0,49,50
 285 932 285 932 217.5 904.5 c 128,-1,51
 150 877 150 877 76 823 c 1,52,-1
 76 1069 l 1,53,54
 150 1108 150 1108 220 1127.5 c 128,-1,55
 290 1147 290 1147 354 1147 c 0,56,57
 452 1147 452 1147 514.5 1116 c 128,-1,58
 577 1085 577 1085 612 1020 c 1,59,60
 641 1081 641 1081 706.5 1114 c 128,-1,61
 772 1147 772 1147 864 1147 c 0,62,63
 1041 1147 1041 1147 1114.5 1028 c 128,-1,64
 1188 909 1188 909 1188 606 c 2,65,-1
 1188 479 l 1,21,-1
EndSplineSet
EndChar

StartChar: eth
Encoding: 240 240 182
Width: 1233
Flags: W
LayerCount: 2
Fore
SplineSet
811 760 m 1,0,1
 762 787 762 787 713 801 c 128,-1,2
 664 815 664 815 616 815 c 0,3,4
 511 815 511 815 450 742.5 c 128,-1,5
 389 670 389 670 389 545 c 0,6,7
 389 387 389 387 448.5 298 c 128,-1,8
 508 209 508 209 612 209 c 0,9,10
 721 209 721 209 778.5 299.5 c 128,-1,11
 836 390 836 390 836 563 c 0,12,13
 836 608 836 608 829.5 657 c 128,-1,14
 823 706 823 706 811 760 c 1,0,1
940 1100 m 2,15,16
 1040 963 1040 963 1083 836.5 c 128,-1,17
 1126 710 1126 710 1126 559 c 0,18,19
 1126 283 1126 283 990 127 c 128,-1,20
 854 -29 854 -29 612 -29 c 0,21,22
 376 -29 376 -29 237 124 c 128,-1,23
 98 277 98 277 98 537 c 0,24,25
 98 773 98 773 228 913 c 128,-1,26
 358 1053 358 1053 575 1053 c 0,27,28
 615 1053 615 1053 646.5 1047 c 128,-1,29
 678 1041 678 1041 705 1028 c 1,30,-1
 545 1247 l 1,31,-1
 233 1128 l 1,32,-1
 178 1245 l 1,33,-1
 461 1354 l 1,34,-1
 303 1556 l 1,35,-1
 596 1556 l 1,36,-1
 688 1440 l 1,37,-1
 985 1567 l 1,38,-1
 1051 1444 l 1,39,-1
 774 1327 l 1,40,-1
 940 1100 l 2,15,16
EndSplineSet
EndChar

StartChar: ograve
Encoding: 242 242 184
Width: 1233
Flags: W
LayerCount: 2
Fore
SplineSet
481 1561 m 1,0,-1
 764 1262 l 1,1,-1
 567 1262 l 1,2,-1
 199 1561 l 1,3,-1
 481 1561 l 1,0,-1
616 909 m 0,4,5
 511 909 511 909 451 816.5 c 128,-1,6
 391 724 391 724 391 559 c 256,7,8
 391 394 391 394 451 301.5 c 128,-1,9
 511 209 511 209 616 209 c 0,10,11
 722 209 722 209 782 301.5 c 128,-1,12
 842 394 842 394 842 559 c 256,13,14
 842 724 842 724 782 816.5 c 128,-1,15
 722 909 722 909 616 909 c 0,4,5
98 559 m 256,16,17
 98 830 98 830 238.5 988.5 c 128,-1,18
 379 1147 379 1147 616 1147 c 0,19,20
 854 1147 854 1147 994.5 988.5 c 128,-1,21
 1135 830 1135 830 1135 559 c 256,22,23
 1135 288 1135 288 994.5 129.5 c 128,-1,24
 854 -29 854 -29 616 -29 c 0,25,26
 379 -29 379 -29 238.5 129.5 c 128,-1,27
 98 288 98 288 98 559 c 256,16,17
EndSplineSet
EndChar

StartChar: oacute
Encoding: 243 243 185
Width: 1233
Flags: W
LayerCount: 2
Fore
SplineSet
752 1561 m 1,0,-1
 1034 1561 l 1,1,-1
 666 1262 l 1,2,-1
 469 1262 l 1,3,-1
 752 1561 l 1,0,-1
616 909 m 0,4,5
 511 909 511 909 451 816.5 c 128,-1,6
 391 724 391 724 391 559 c 256,7,8
 391 394 391 394 451 301.5 c 128,-1,9
 511 209 511 209 616 209 c 0,10,11
 722 209 722 209 782 301.5 c 128,-1,12
 842 394 842 394 842 559 c 256,13,14
 842 724 842 724 782 816.5 c 128,-1,15
 722 909 722 909 616 909 c 0,4,5
98 559 m 256,16,17
 98 830 98 830 238.5 988.5 c 128,-1,18
 379 1147 379 1147 616 1147 c 0,19,20
 854 1147 854 1147 994.5 988.5 c 128,-1,21
 1135 830 1135 830 1135 559 c 256,22,23
 1135 288 1135 288 994.5 129.5 c 128,-1,24
 854 -29 854 -29 616 -29 c 0,25,26
 379 -29 379 -29 238.5 129.5 c 128,-1,27
 98 288 98 288 98 559 c 256,16,17
EndSplineSet
EndChar

StartChar: ocircumflex
Encoding: 244 244 186
Width: 1233
Flags: W
LayerCount: 2
Fore
SplineSet
496 1561 m 1,0,-1
 737 1561 l 1,1,-1
 993 1262 l 1,2,-1
 815 1262 l 1,3,-1
 616 1409 l 1,4,-1
 418 1262 l 1,5,-1
 240 1262 l 1,6,-1
 496 1561 l 1,0,-1
616 909 m 0,7,8
 511 909 511 909 451 816.5 c 128,-1,9
 391 724 391 724 391 559 c 256,10,11
 391 394 391 394 451 301.5 c 128,-1,12
 511 209 511 209 616 209 c 0,13,14
 722 209 722 209 782 301.5 c 128,-1,15
 842 394 842 394 842 559 c 256,16,17
 842 724 842 724 782 816.5 c 128,-1,18
 722 909 722 909 616 909 c 0,7,8
98 559 m 256,19,20
 98 830 98 830 238.5 988.5 c 128,-1,21
 379 1147 379 1147 616 1147 c 0,22,23
 854 1147 854 1147 994.5 988.5 c 128,-1,24
 1135 830 1135 830 1135 559 c 256,25,26
 1135 288 1135 288 994.5 129.5 c 128,-1,27
 854 -29 854 -29 616 -29 c 0,28,29
 379 -29 379 -29 238.5 129.5 c 128,-1,30
 98 288 98 288 98 559 c 256,19,20
EndSplineSet
EndChar

StartChar: otilde
Encoding: 245 245 187
Width: 1233
Flags: W
LayerCount: 2
Fore
SplineSet
618 1331 m 2,0,-1
 563 1368 l 2,1,2
 560 1370 560 1370 551 1376 c 0,3,4
 508 1405 508 1405 481 1405 c 0,5,6
 447 1405 447 1405 427.5 1373 c 128,-1,7
 408 1341 408 1341 408 1284 c 2,8,-1
 408 1276 l 1,9,-1
 268 1276 l 1,10,-1
 268 1309 l 2,11,12
 268 1422 268 1422 322 1491.5 c 128,-1,13
 376 1561 376 1561 465 1561 c 0,14,15
 501 1561 501 1561 536.5 1547.5 c 128,-1,16
 572 1534 572 1534 614 1503 c 1,17,-1
 676 1460 l 2,18,19
 697 1445 697 1445 715.5 1437.5 c 128,-1,20
 734 1430 734 1430 750 1430 c 0,21,22
 786 1430 786 1430 805.5 1461 c 128,-1,23
 825 1492 825 1492 825 1550 c 2,24,-1
 825 1559 l 1,25,-1
 965 1559 l 1,26,27
 965 1552 965 1552 964 1541.5 c 128,-1,28
 963 1531 963 1531 963 1526 c 0,29,30
 963 1411 963 1411 909.5 1342.5 c 128,-1,31
 856 1274 856 1274 768 1274 c 0,32,33
 733 1274 733 1274 700.5 1285.5 c 128,-1,34
 668 1297 668 1297 618 1331 c 2,0,-1
616 909 m 0,35,36
 511 909 511 909 451 816.5 c 128,-1,37
 391 724 391 724 391 559 c 256,38,39
 391 394 391 394 451 301.5 c 128,-1,40
 511 209 511 209 616 209 c 0,41,42
 722 209 722 209 782 301.5 c 128,-1,43
 842 394 842 394 842 559 c 256,44,45
 842 724 842 724 782 816.5 c 128,-1,46
 722 909 722 909 616 909 c 0,35,36
98 559 m 256,47,48
 98 830 98 830 238.5 988.5 c 128,-1,49
 379 1147 379 1147 616 1147 c 0,50,51
 854 1147 854 1147 994.5 988.5 c 128,-1,52
 1135 830 1135 830 1135 559 c 256,53,54
 1135 288 1135 288 994.5 129.5 c 128,-1,55
 854 -29 854 -29 616 -29 c 0,56,57
 379 -29 379 -29 238.5 129.5 c 128,-1,58
 98 288 98 288 98 559 c 256,47,48
EndSplineSet
EndChar

StartChar: odieresis
Encoding: 246 246 188
Width: 1233
Flags: W
LayerCount: 2
Fore
SplineSet
301 1561 m 1,0,-1
 537 1561 l 1,1,-1
 537 1315 l 1,2,-1
 301 1315 l 1,3,-1
 301 1561 l 1,0,-1
696 1561 m 1,4,-1
 932 1561 l 1,5,-1
 932 1315 l 1,6,-1
 696 1315 l 1,7,-1
 696 1561 l 1,4,-1
616 909 m 0,8,9
 511 909 511 909 451 816.5 c 128,-1,10
 391 724 391 724 391 559 c 256,11,12
 391 394 391 394 451 301.5 c 128,-1,13
 511 209 511 209 616 209 c 0,14,15
 722 209 722 209 782 301.5 c 128,-1,16
 842 394 842 394 842 559 c 256,17,18
 842 724 842 724 782 816.5 c 128,-1,19
 722 909 722 909 616 909 c 0,8,9
98 559 m 256,20,21
 98 830 98 830 238.5 988.5 c 128,-1,22
 379 1147 379 1147 616 1147 c 0,23,24
 854 1147 854 1147 994.5 988.5 c 128,-1,25
 1135 830 1135 830 1135 559 c 256,26,27
 1135 288 1135 288 994.5 129.5 c 128,-1,28
 854 -29 854 -29 616 -29 c 0,29,30
 379 -29 379 -29 238.5 129.5 c 128,-1,31
 98 288 98 288 98 559 c 256,20,21
EndSplineSet
EndChar

StartChar: divide
Encoding: 247 247 189
Width: 1928
Flags: W
LayerCount: 2
Fore
SplineSet
1177 984 m 0,0,1
 1177 904 1177 904 1114 847 c 128,-1,2
 1051 790 1051 790 966 790 c 128,-1,3
 881 790 881 790 818 847.5 c 128,-1,4
 755 905 755 905 755 984 c 0,5,6
 755 1064 755 1064 817 1120 c 128,-1,7
 879 1176 879 1176 963 1176 c 2,8,9
 963 1176 963 1176 964.5 1176 c 128,-1,10
 966 1176 966 1176 967 1176 c 0,11,12
 1051 1176 1051 1176 1114 1119.5 c 128,-1,13
 1177 1063 1177 1063 1177 984 c 0,0,1
1177 126 m 0,14,15
 1177 46 1177 46 1114 -10.5 c 128,-1,16
 1051 -67 1051 -67 966 -67 c 256,17,18
 881 -67 881 -67 818 -9.5 c 128,-1,19
 755 48 755 48 755 126 c 0,20,21
 755 206 755 206 816.5 262.5 c 128,-1,22
 878 319 878 319 959 319 c 2,23,-1
 967 319 l 2,24,25
 1051 319 1051 319 1114 262 c 128,-1,26
 1177 205 1177 205 1177 126 c 0,14,15
249 651 m 2,27,-1
 1683 651 l 2,28,29
 1702 651 1702 651 1714.5 649.5 c 128,-1,30
 1727 648 1727 648 1751 641 c 128,-1,31
 1775 634 1775 634 1791 610.5 c 128,-1,32
 1807 587 1807 587 1807 555 c 128,-1,33
 1807 523 1807 523 1791 499.5 c 128,-1,34
 1775 476 1775 476 1750.5 468.5 c 128,-1,35
 1726 461 1726 461 1713 460.5 c 128,-1,36
 1700 460 1700 460 1683 460 c 2,37,-1
 249 460 l 2,38,39
 232 460 232 460 218.5 460.5 c 128,-1,40
 205 461 205 461 180.5 468.5 c 128,-1,41
 156 476 156 476 140 499.5 c 128,-1,42
 124 523 124 523 124 555 c 128,-1,43
 124 587 124 587 140 610.5 c 128,-1,44
 156 634 156 634 180 641 c 128,-1,45
 204 648 204 648 217 649.5 c 128,-1,46
 230 651 230 651 249 651 c 2,27,-1
EndSplineSet
EndChar

StartChar: oslash
Encoding: 248 248 190
Width: 1233
Flags: W
LayerCount: 2
Fore
SplineSet
831 675 m 1,0,-1
 483 262 l 1,1,2
 514 235 514 235 547 222 c 128,-1,3
 580 209 580 209 618 209 c 0,4,5
 722 209 722 209 782 302.5 c 128,-1,6
 842 396 842 396 842 559 c 0,7,8
 842 588 842 588 839.5 617 c 128,-1,9
 837 646 837 646 831 675 c 1,0,-1
399 449 m 1,10,-1
 745 860 l 1,11,12
 719 885 719 885 688 897 c 128,-1,13
 657 909 657 909 618 909 c 0,14,15
 512 909 512 909 451.5 816.5 c 128,-1,16
 391 724 391 724 391 559 c 0,17,18
 391 525 391 525 393 499 c 128,-1,19
 395 473 395 473 399 449 c 1,10,-1
188 199 m 1,20,21
 143 272 143 272 120.5 361 c 128,-1,22
 98 450 98 450 98 559 c 0,23,24
 98 830 98 830 238.5 988.5 c 128,-1,25
 379 1147 379 1147 616 1147 c 0,26,27
 701 1147 701 1147 774.5 1125.5 c 128,-1,28
 848 1104 848 1104 915 1059 c 1,29,-1
 1063 1235 l 1,30,-1
 1202 1114 l 1,31,-1
 1042 926 l 1,32,33
 1088 850 1088 850 1111.5 758 c 128,-1,34
 1135 666 1135 666 1135 559 c 0,35,36
 1135 288 1135 288 994.5 129.5 c 128,-1,37
 854 -29 854 -29 616 -29 c 0,38,39
 533 -29 533 -29 457.5 -6.5 c 128,-1,40
 382 16 382 16 315 61 c 1,41,-1
 164 -117 l 1,42,-1
 25 2 l 1,43,-1
 188 199 l 1,20,21
EndSplineSet
EndChar

StartChar: thorn
Encoding: 254 254 196
Width: 1233
Flags: W
LayerCount: 2
Fore
SplineSet
442 158 m 1,0,-1
 442 -426 l 1,1,-1
 150 -426 l 1,2,-1
 150 1556 l 1,3,-1
 442 1556 l 1,4,-1
 442 952 l 1,5,6
 488 1049 488 1049 563 1098 c 128,-1,7
 638 1147 638 1147 739 1147 c 0,8,9
 931 1147 931 1147 1037 993 c 128,-1,10
 1143 839 1143 839 1143 559 c 0,11,12
 1143 275 1143 275 1035.5 123 c 128,-1,13
 928 -29 928 -29 729 -29 c 0,14,15
 639 -29 639 -29 567.5 17.5 c 128,-1,16
 496 64 496 64 442 158 c 1,0,-1
850 561 m 256,17,18
 850 723 850 723 796 815 c 128,-1,19
 742 907 742 907 647 907 c 256,20,21
 552 907 552 907 497 815 c 128,-1,22
 442 723 442 723 442 561 c 256,23,24
 442 399 442 399 497 307 c 128,-1,25
 552 215 552 215 647 215 c 256,26,27
 742 215 742 215 796 307 c 128,-1,28
 850 399 850 399 850 561 c 256,17,18
EndSplineSet
EndChar

StartChar: Amacron
Encoding: 256 256 198
Width: 1233
Flags: W
LayerCount: 2
Fore
SplineSet
301 1870 m 1,0,-1
 932 1870 l 1,1,-1
 932 1682 l 1,2,-1
 301 1682 l 1,3,-1
 301 1870 l 1,0,-1
616 1223 m 1,4,-1
 477 612 l 1,5,-1
 756 612 l 1,6,-1
 616 1223 l 1,4,-1
436 1493 m 1,7,-1
 797 1493 l 1,8,-1
 1200 0 l 1,9,-1
 905 0 l 1,10,-1
 813 369 l 1,11,-1
 418 369 l 1,12,-1
 328 0 l 1,13,-1
 33 0 l 1,14,-1
 436 1493 l 1,7,-1
EndSplineSet
EndChar

StartChar: amacron
Encoding: 257 257 199
Width: 1233
Flags: W
LayerCount: 2
Fore
SplineSet
301 1556 m 1,0,-1
 932 1556 l 1,1,-1
 932 1368 l 1,2,-1
 301 1368 l 1,3,-1
 301 1556 l 1,0,-1
700 526 m 2,4,5
 536 526 536 526 471 484 c 128,-1,6
 406 442 406 442 406 340 c 0,7,8
 406 264 406 264 451 219 c 128,-1,9
 496 174 496 174 573 174 c 0,10,11
 689 174 689 174 753 261.5 c 128,-1,12
 817 349 817 349 817 506 c 2,13,-1
 817 526 l 1,14,-1
 700 526 l 2,4,5
1108 639 m 2,15,-1
 1108 0 l 1,16,-1
 817 0 l 1,17,-1
 817 125 l 1,18,19
 764 51 764 51 681 11 c 128,-1,20
 598 -29 598 -29 498 -29 c 0,21,22
 307 -29 307 -29 200.5 72 c 128,-1,23
 94 173 94 173 94 354 c 0,24,25
 94 550 94 550 221 643.5 c 128,-1,26
 348 737 348 737 614 737 c 2,27,-1
 817 737 l 1,28,-1
 817 786 l 2,29,30
 817 857 817 857 765.5 893.5 c 128,-1,31
 714 930 714 930 614 930 c 0,32,33
 509 930 509 930 410.5 903.5 c 128,-1,34
 312 877 312 877 205 819 c 1,35,-1
 205 1069 l 1,36,37
 302 1109 302 1109 402 1128 c 128,-1,38
 502 1147 502 1147 614 1147 c 0,39,40
 887 1147 887 1147 997.5 1036 c 128,-1,41
 1108 925 1108 925 1108 639 c 2,15,-1
EndSplineSet
EndChar

StartChar: Abreve
Encoding: 258 258 200
Width: 1233
Flags: W
LayerCount: 2
Fore
SplineSet
281 1899 m 1,0,-1
 422 1899 l 1,1,2
 442 1839 442 1839 491 1808.5 c 128,-1,3
 540 1778 540 1778 616 1778 c 0,4,5
 693 1778 693 1778 741 1808 c 128,-1,6
 789 1838 789 1838 809 1899 c 1,7,-1
 952 1899 l 1,8,9
 937 1770 937 1770 850.5 1702.5 c 128,-1,10
 764 1635 764 1635 616 1635 c 0,11,12
 469 1635 469 1635 382.5 1702.5 c 128,-1,13
 296 1770 296 1770 281 1899 c 1,0,-1
616 1223 m 1,14,-1
 477 612 l 1,15,-1
 756 612 l 1,16,-1
 616 1223 l 1,14,-1
436 1493 m 1,17,-1
 797 1493 l 1,18,-1
 1200 0 l 1,19,-1
 905 0 l 1,20,-1
 813 369 l 1,21,-1
 418 369 l 1,22,-1
 328 0 l 1,23,-1
 33 0 l 1,24,-1
 436 1493 l 1,17,-1
EndSplineSet
EndChar

StartChar: abreve
Encoding: 259 259 201
Width: 1233
Flags: W
LayerCount: 2
Fore
SplineSet
281 1606 m 1,0,-1
 422 1606 l 1,1,2
 433 1537 433 1537 483 1499.5 c 128,-1,3
 533 1462 533 1462 616 1462 c 256,4,5
 699 1462 699 1462 748.5 1499 c 128,-1,6
 798 1536 798 1536 809 1606 c 1,7,-1
 952 1606 l 1,8,9
 946 1462 946 1462 859.5 1385.5 c 128,-1,10
 773 1309 773 1309 616 1309 c 0,11,12
 460 1309 460 1309 373.5 1385.5 c 128,-1,13
 287 1462 287 1462 281 1606 c 1,0,-1
700 526 m 2,14,15
 536 526 536 526 471 484 c 128,-1,16
 406 442 406 442 406 340 c 0,17,18
 406 264 406 264 451 219 c 128,-1,19
 496 174 496 174 573 174 c 0,20,21
 689 174 689 174 753 261.5 c 128,-1,22
 817 349 817 349 817 506 c 2,23,-1
 817 526 l 1,24,-1
 700 526 l 2,14,15
1108 639 m 2,25,-1
 1108 0 l 1,26,-1
 817 0 l 1,27,-1
 817 125 l 1,28,29
 764 51 764 51 681 11 c 128,-1,30
 598 -29 598 -29 498 -29 c 0,31,32
 307 -29 307 -29 200.5 72 c 128,-1,33
 94 173 94 173 94 354 c 0,34,35
 94 550 94 550 221 643.5 c 128,-1,36
 348 737 348 737 614 737 c 2,37,-1
 817 737 l 1,38,-1
 817 786 l 2,39,40
 817 857 817 857 765.5 893.5 c 128,-1,41
 714 930 714 930 614 930 c 0,42,43
 509 930 509 930 410.5 903.5 c 128,-1,44
 312 877 312 877 205 819 c 1,45,-1
 205 1069 l 1,46,47
 302 1109 302 1109 402 1128 c 128,-1,48
 502 1147 502 1147 614 1147 c 0,49,50
 887 1147 887 1147 997.5 1036 c 128,-1,51
 1108 925 1108 925 1108 639 c 2,25,-1
EndSplineSet
EndChar

StartChar: Cacute
Encoding: 262 262 204
Width: 1233
Flags: W
LayerCount: 2
Fore
SplineSet
805 1899 m 1,0,-1
 1089 1899 l 1,1,-1
 803 1635 l 1,2,-1
 606 1635 l 1,3,-1
 805 1899 l 1,0,-1
1081 43 m 1,4,5
 1011 7 1011 7 934 -11 c 128,-1,6
 857 -29 857 -29 772 -29 c 0,7,8
 470 -29 470 -29 311 170 c 128,-1,9
 152 369 152 369 152 745 c 0,10,11
 152 1122 152 1122 311 1321 c 128,-1,12
 470 1520 470 1520 772 1520 c 0,13,14
 857 1520 857 1520 935 1502 c 128,-1,15
 1013 1484 1013 1484 1081 1448 c 1,16,-1
 1081 1120 l 1,17,18
 1005 1190 1005 1190 933.5 1222.5 c 128,-1,19
 862 1255 862 1255 786 1255 c 0,20,21
 624 1255 624 1255 541.5 1126.5 c 128,-1,22
 459 998 459 998 459 745 c 0,23,24
 459 493 459 493 541.5 364.5 c 128,-1,25
 624 236 624 236 786 236 c 0,26,27
 862 236 862 236 933.5 268.5 c 128,-1,28
 1005 301 1005 301 1081 371 c 1,29,-1
 1081 43 l 1,4,5
EndSplineSet
EndChar

StartChar: Ccircumflex
Encoding: 264 264 206
Width: 1233
Flags: W
LayerCount: 2
Fore
SplineSet
617 1899 m 1,0,-1
 926 1899 l 1,1,-1
 1149 1635 l 1,2,-1
 971 1635 l 1,3,-1
 772 1796 l 1,4,-1
 574 1635 l 1,5,-1
 396 1635 l 1,6,-1
 617 1899 l 1,0,-1
1081 43 m 1,7,8
 1011 7 1011 7 934 -11 c 128,-1,9
 857 -29 857 -29 772 -29 c 0,10,11
 470 -29 470 -29 311 170 c 128,-1,12
 152 369 152 369 152 745 c 0,13,14
 152 1122 152 1122 311 1321 c 128,-1,15
 470 1520 470 1520 772 1520 c 0,16,17
 857 1520 857 1520 935 1502 c 128,-1,18
 1013 1484 1013 1484 1081 1448 c 1,19,-1
 1081 1120 l 1,20,21
 1005 1190 1005 1190 933.5 1222.5 c 128,-1,22
 862 1255 862 1255 786 1255 c 0,23,24
 624 1255 624 1255 541.5 1126.5 c 128,-1,25
 459 998 459 998 459 745 c 0,26,27
 459 493 459 493 541.5 364.5 c 128,-1,28
 624 236 624 236 786 236 c 0,29,30
 862 236 862 236 933.5 268.5 c 128,-1,31
 1005 301 1005 301 1081 371 c 1,32,-1
 1081 43 l 1,7,8
EndSplineSet
EndChar

StartChar: Cdotaccent
Encoding: 266 266 208
Width: 1233
Flags: W
LayerCount: 2
Fore
SplineSet
579 1899 m 1,0,-1
 854 1899 l 1,1,-1
 854 1653 l 1,2,-1
 579 1653 l 1,3,-1
 579 1899 l 1,0,-1
1081 43 m 1,4,5
 1011 7 1011 7 934 -11 c 128,-1,6
 857 -29 857 -29 772 -29 c 0,7,8
 470 -29 470 -29 311 170 c 128,-1,9
 152 369 152 369 152 745 c 0,10,11
 152 1122 152 1122 311 1321 c 128,-1,12
 470 1520 470 1520 772 1520 c 0,13,14
 857 1520 857 1520 935 1502 c 128,-1,15
 1013 1484 1013 1484 1081 1448 c 1,16,-1
 1081 1120 l 1,17,18
 1005 1190 1005 1190 933.5 1222.5 c 128,-1,19
 862 1255 862 1255 786 1255 c 0,20,21
 624 1255 624 1255 541.5 1126.5 c 128,-1,22
 459 998 459 998 459 745 c 0,23,24
 459 493 459 493 541.5 364.5 c 128,-1,25
 624 236 624 236 786 236 c 0,26,27
 862 236 862 236 933.5 268.5 c 128,-1,28
 1005 301 1005 301 1081 371 c 1,29,-1
 1081 43 l 1,4,5
EndSplineSet
EndChar

StartChar: cdotaccent
Encoding: 267 267 209
Width: 1233
Flags: W
LayerCount: 2
Fore
SplineSet
554 1585 m 1,0,-1
 829 1585 l 1,1,-1
 829 1339 l 1,2,-1
 554 1339 l 1,3,-1
 554 1585 l 1,0,-1
1061 57 m 1,4,5
 987 14 987 14 902 -7.5 c 128,-1,6
 817 -29 817 -29 719 -29 c 0,7,8
 460 -29 460 -29 314 127 c 128,-1,9
 168 283 168 283 168 559 c 0,10,11
 168 836 168 836 315 992.5 c 128,-1,12
 462 1149 462 1149 721 1149 c 0,13,14
 811 1149 811 1149 894.5 1128 c 128,-1,15
 978 1107 978 1107 1061 1063 c 1,16,-1
 1061 795 l 1,17,18
 997 850 997 850 920.5 879.5 c 128,-1,19
 844 909 844 909 762 909 c 0,20,21
 619 909 619 909 542 818 c 128,-1,22
 465 727 465 727 465 559 c 256,23,24
 465 391 465 391 542 301 c 128,-1,25
 619 211 619 211 762 211 c 0,26,27
 847 211 847 211 921 239.5 c 128,-1,28
 995 268 995 268 1061 326 c 1,29,-1
 1061 57 l 1,4,5
EndSplineSet
EndChar

StartChar: Ccaron
Encoding: 268 268 210
Width: 1233
Flags: W
LayerCount: 2
Fore
SplineSet
598 1635 m 1,0,-1
 377 1899 l 1,1,-1
 555 1899 l 1,2,-1
 753 1737 l 1,3,-1
 952 1899 l 1,4,-1
 1130 1899 l 1,5,-1
 907 1635 l 1,6,-1
 598 1635 l 1,0,-1
1081 43 m 1,7,8
 1011 7 1011 7 934 -11 c 128,-1,9
 857 -29 857 -29 772 -29 c 0,10,11
 470 -29 470 -29 311 170 c 128,-1,12
 152 369 152 369 152 745 c 0,13,14
 152 1122 152 1122 311 1321 c 128,-1,15
 470 1520 470 1520 772 1520 c 0,16,17
 857 1520 857 1520 935 1502 c 128,-1,18
 1013 1484 1013 1484 1081 1448 c 1,19,-1
 1081 1120 l 1,20,21
 1005 1190 1005 1190 933.5 1222.5 c 128,-1,22
 862 1255 862 1255 786 1255 c 0,23,24
 624 1255 624 1255 541.5 1126.5 c 128,-1,25
 459 998 459 998 459 745 c 0,26,27
 459 493 459 493 541.5 364.5 c 128,-1,28
 624 236 624 236 786 236 c 0,29,30
 862 236 862 236 933.5 268.5 c 128,-1,31
 1005 301 1005 301 1081 371 c 1,32,-1
 1081 43 l 1,7,8
EndSplineSet
EndChar

StartChar: Dcaron
Encoding: 270 270 212
Width: 1233
Flags: W
LayerCount: 2
Fore
SplineSet
448 1653 m 1,0,-1
 227 1917 l 1,1,-1
 405 1917 l 1,2,-1
 603 1755 l 1,3,-1
 802 1917 l 1,4,-1
 980 1917 l 1,5,-1
 757 1653 l 1,6,-1
 448 1653 l 1,0,-1
432 1227 m 1,7,-1
 432 266 l 1,8,-1
 512 266 l 2,9,10
 686 266 686 266 760 375.5 c 128,-1,11
 834 485 834 485 834 748 c 0,12,13
 834 1009 834 1009 760 1118 c 128,-1,14
 686 1227 686 1227 512 1227 c 2,15,-1
 432 1227 l 1,7,-1
137 1493 m 1,16,-1
 453 1493 l 2,17,18
 819 1493 819 1493 980 1318.5 c 128,-1,19
 1141 1144 1141 1144 1141 748 c 0,20,21
 1141 351 1141 351 980 175.5 c 128,-1,22
 819 0 819 0 453 0 c 2,23,-1
 137 0 l 1,24,-1
 137 1493 l 1,16,-1
EndSplineSet
EndChar

StartChar: dcaron
Encoding: 271 271 213
Width: 1233
Flags: W
LayerCount: 2
Fore
SplineSet
1168 1555 m 1,0,-1
 1456 1555 l 1,1,-1
 1292 1172 l 1,2,-1
 1090 1172 l 1,3,-1
 1168 1555 l 1,0,-1
791 961 m 1,4,-1
 791 1556 l 1,5,-1
 1083 1556 l 1,6,-1
 1083 0 l 1,7,-1
 791 0 l 1,8,-1
 791 166 l 1,9,10
 744 69 744 69 669.5 20 c 128,-1,11
 595 -29 595 -29 494 -29 c 0,12,13
 302 -29 302 -29 196 125 c 128,-1,14
 90 279 90 279 90 559 c 0,15,16
 90 843 90 843 197.5 995 c 128,-1,17
 305 1147 305 1147 504 1147 c 0,18,19
 594 1147 594 1147 665.5 1100.5 c 128,-1,20
 737 1054 737 1054 791 961 c 1,4,-1
383 557 m 256,21,22
 383 395 383 395 437 303 c 128,-1,23
 491 211 491 211 586 211 c 256,24,25
 681 211 681 211 736 303 c 128,-1,26
 791 395 791 395 791 557 c 256,27,28
 791 719 791 719 736 811 c 128,-1,29
 681 903 681 903 586 903 c 256,30,31
 491 903 491 903 437 811 c 128,-1,32
 383 719 383 719 383 557 c 256,21,22
EndSplineSet
EndChar

StartChar: dcroat
Encoding: 273 273 215
Width: 1233
Flags: W
LayerCount: 2
Fore
SplineSet
791 961 m 1,0,-1
 791 1251 l 1,1,-1
 485 1251 l 1,2,-1
 485 1440 l 1,3,-1
 791 1440 l 1,4,-1
 791 1556 l 1,5,-1
 1083 1556 l 1,6,-1
 1083 1440 l 1,7,-1
 1229 1440 l 1,8,-1
 1229 1251 l 1,9,-1
 1083 1251 l 1,10,-1
 1083 0 l 1,11,-1
 791 0 l 1,12,-1
 791 166 l 1,13,14
 744 69 744 69 669.5 20 c 128,-1,15
 595 -29 595 -29 494 -29 c 0,16,17
 302 -29 302 -29 196 125 c 128,-1,18
 90 279 90 279 90 559 c 0,19,20
 90 843 90 843 197.5 995 c 128,-1,21
 305 1147 305 1147 504 1147 c 0,22,23
 594 1147 594 1147 665.5 1100.5 c 128,-1,24
 737 1054 737 1054 791 961 c 1,0,-1
383 557 m 256,25,26
 383 395 383 395 437 303 c 128,-1,27
 491 211 491 211 586 211 c 256,28,29
 681 211 681 211 736 303 c 128,-1,30
 791 395 791 395 791 557 c 256,31,32
 791 719 791 719 736 811 c 128,-1,33
 681 903 681 903 586 903 c 256,34,35
 491 903 491 903 437 811 c 128,-1,36
 383 719 383 719 383 557 c 256,25,26
EndSplineSet
EndChar

StartChar: Emacron
Encoding: 274 274 216
Width: 1233
Flags: W
LayerCount: 2
Fore
SplineSet
332 1870 m 1,0,-1
 963 1870 l 1,1,-1
 963 1682 l 1,2,-1
 332 1682 l 1,3,-1
 332 1870 l 1,0,-1
1098 0 m 1,4,-1
 168 0 l 1,5,-1
 168 1493 l 1,6,-1
 1098 1493 l 1,7,-1
 1098 1233 l 1,8,-1
 463 1233 l 1,9,-1
 463 911 l 1,10,-1
 1038 911 l 1,11,-1
 1038 651 l 1,12,-1
 463 651 l 1,13,-1
 463 260 l 1,14,-1
 1098 260 l 1,15,-1
 1098 0 l 1,4,-1
EndSplineSet
EndChar

StartChar: emacron
Encoding: 275 275 217
Width: 1233
Flags: W
LayerCount: 2
Fore
SplineSet
340 1556 m 1,0,-1
 971 1556 l 1,1,-1
 971 1368 l 1,2,-1
 340 1368 l 1,3,-1
 340 1556 l 1,0,-1
1102 55 m 1,4,5
 1000 13 1000 13 894 -8 c 128,-1,6
 788 -29 788 -29 670 -29 c 0,7,8
 389 -29 389 -29 240.5 121.5 c 128,-1,9
 92 272 92 272 92 555 c 0,10,11
 92 829 92 829 235 988 c 128,-1,12
 378 1147 378 1147 625 1147 c 0,13,14
 874 1147 874 1147 1011.5 999.5 c 128,-1,15
 1149 852 1149 852 1149 584 c 2,16,-1
 1149 465 l 1,17,-1
 390 465 l 1,18,19
 391 333 391 333 468 268 c 128,-1,20
 545 203 545 203 698 203 c 0,21,22
 799 203 799 203 897 232 c 128,-1,23
 995 261 995 261 1102 324 c 1,24,-1
 1102 55 l 1,4,5
854 685 m 1,25,26
 852 801 852 801 794.5 860.5 c 128,-1,27
 737 920 737 920 625 920 c 0,28,29
 524 920 524 920 464 858.5 c 128,-1,30
 404 797 404 797 393 684 c 1,31,-1
 854 685 l 1,25,26
EndSplineSet
EndChar

StartChar: Ebreve
Encoding: 276 276 218
Width: 1233
Flags: W
LayerCount: 2
Fore
SplineSet
312 1899 m 1,0,-1
 453 1899 l 1,1,2
 473 1839 473 1839 522 1808.5 c 128,-1,3
 571 1778 571 1778 647 1778 c 0,4,5
 724 1778 724 1778 772 1808 c 128,-1,6
 820 1838 820 1838 840 1899 c 1,7,-1
 983 1899 l 1,8,9
 968 1770 968 1770 881.5 1702.5 c 128,-1,10
 795 1635 795 1635 647 1635 c 0,11,12
 500 1635 500 1635 413.5 1702.5 c 128,-1,13
 327 1770 327 1770 312 1899 c 1,0,-1
1098 0 m 1,14,-1
 168 0 l 1,15,-1
 168 1493 l 1,16,-1
 1098 1493 l 1,17,-1
 1098 1233 l 1,18,-1
 463 1233 l 1,19,-1
 463 911 l 1,20,-1
 1038 911 l 1,21,-1
 1038 651 l 1,22,-1
 463 651 l 1,23,-1
 463 260 l 1,24,-1
 1098 260 l 1,25,-1
 1098 0 l 1,14,-1
EndSplineSet
EndChar

StartChar: ebreve
Encoding: 277 277 219
Width: 1233
Flags: W
LayerCount: 2
Fore
SplineSet
320 1606 m 1,0,-1
 461 1606 l 1,1,2
 472 1537 472 1537 522 1499.5 c 128,-1,3
 572 1462 572 1462 655 1462 c 256,4,5
 738 1462 738 1462 787.5 1499 c 128,-1,6
 837 1536 837 1536 848 1606 c 1,7,-1
 991 1606 l 1,8,9
 985 1462 985 1462 898.5 1385.5 c 128,-1,10
 812 1309 812 1309 655 1309 c 0,11,12
 499 1309 499 1309 412.5 1385.5 c 128,-1,13
 326 1462 326 1462 320 1606 c 1,0,-1
1102 55 m 1,14,15
 1000 13 1000 13 894 -8 c 128,-1,16
 788 -29 788 -29 670 -29 c 0,17,18
 389 -29 389 -29 240.5 121.5 c 128,-1,19
 92 272 92 272 92 555 c 0,20,21
 92 829 92 829 235 988 c 128,-1,22
 378 1147 378 1147 625 1147 c 0,23,24
 874 1147 874 1147 1011.5 999.5 c 128,-1,25
 1149 852 1149 852 1149 584 c 2,26,-1
 1149 465 l 1,27,-1
 390 465 l 1,28,29
 391 333 391 333 468 268 c 128,-1,30
 545 203 545 203 698 203 c 0,31,32
 799 203 799 203 897 232 c 128,-1,33
 995 261 995 261 1102 324 c 1,34,-1
 1102 55 l 1,14,15
854 685 m 1,35,36
 852 801 852 801 794.5 860.5 c 128,-1,37
 737 920 737 920 625 920 c 0,38,39
 524 920 524 920 464 858.5 c 128,-1,40
 404 797 404 797 393 684 c 1,41,-1
 854 685 l 1,35,36
EndSplineSet
EndChar

StartChar: Edotaccent
Encoding: 278 278 220
Width: 1233
Flags: W
LayerCount: 2
Fore
SplineSet
510 1899 m 1,0,-1
 785 1899 l 1,1,-1
 785 1653 l 1,2,-1
 510 1653 l 1,3,-1
 510 1899 l 1,0,-1
1098 0 m 1,4,-1
 168 0 l 1,5,-1
 168 1493 l 1,6,-1
 1098 1493 l 1,7,-1
 1098 1233 l 1,8,-1
 463 1233 l 1,9,-1
 463 911 l 1,10,-1
 1038 911 l 1,11,-1
 1038 651 l 1,12,-1
 463 651 l 1,13,-1
 463 260 l 1,14,-1
 1098 260 l 1,15,-1
 1098 0 l 1,4,-1
EndSplineSet
EndChar

StartChar: edotaccent
Encoding: 279 279 221
Width: 1233
Flags: W
LayerCount: 2
Fore
SplineSet
518 1585 m 1,0,-1
 793 1585 l 1,1,-1
 793 1339 l 1,2,-1
 518 1339 l 1,3,-1
 518 1585 l 1,0,-1
1102 55 m 1,4,5
 1000 13 1000 13 894 -8 c 128,-1,6
 788 -29 788 -29 670 -29 c 0,7,8
 389 -29 389 -29 240.5 121.5 c 128,-1,9
 92 272 92 272 92 555 c 0,10,11
 92 829 92 829 235 988 c 128,-1,12
 378 1147 378 1147 625 1147 c 0,13,14
 874 1147 874 1147 1011.5 999.5 c 128,-1,15
 1149 852 1149 852 1149 584 c 2,16,-1
 1149 465 l 1,17,-1
 390 465 l 1,18,19
 391 333 391 333 468 268 c 128,-1,20
 545 203 545 203 698 203 c 0,21,22
 799 203 799 203 897 232 c 128,-1,23
 995 261 995 261 1102 324 c 1,24,-1
 1102 55 l 1,4,5
854 685 m 1,25,26
 852 801 852 801 794.5 860.5 c 128,-1,27
 737 920 737 920 625 920 c 0,28,29
 524 920 524 920 464 858.5 c 128,-1,30
 404 797 404 797 393 684 c 1,31,-1
 854 685 l 1,25,26
EndSplineSet
EndChar

StartChar: Ecaron
Encoding: 282 282 224
Width: 1233
Flags: W
LayerCount: 2
Fore
SplineSet
514 1635 m 1,0,-1
 293 1899 l 1,1,-1
 471 1899 l 1,2,-1
 669 1737 l 1,3,-1
 868 1899 l 1,4,-1
 1046 1899 l 1,5,-1
 823 1635 l 1,6,-1
 514 1635 l 1,0,-1
1098 0 m 1,7,-1
 168 0 l 1,8,-1
 168 1493 l 1,9,-1
 1098 1493 l 1,10,-1
 1098 1233 l 1,11,-1
 463 1233 l 1,12,-1
 463 911 l 1,13,-1
 1038 911 l 1,14,-1
 1038 651 l 1,15,-1
 463 651 l 1,16,-1
 463 260 l 1,17,-1
 1098 260 l 1,18,-1
 1098 0 l 1,7,-1
EndSplineSet
EndChar

StartChar: Gcircumflex
Encoding: 284 284 226
Width: 1233
Flags: W
LayerCount: 2
Fore
SplineSet
582 1899 m 1,0,-1
 891 1899 l 1,1,-1
 1114 1635 l 1,2,-1
 936 1635 l 1,3,-1
 737 1796 l 1,4,-1
 539 1635 l 1,5,-1
 361 1635 l 1,6,-1
 582 1899 l 1,0,-1
872 270 m 1,7,-1
 872 555 l 1,8,-1
 670 555 l 1,9,-1
 670 803 l 1,10,-1
 1130 803 l 1,11,-1
 1130 119 l 1,12,13
 1045 46 1045 46 942.5 8.5 c 128,-1,14
 840 -29 840 -29 723 -29 c 0,15,16
 433 -29 433 -29 275 172.5 c 128,-1,17
 117 374 117 374 117 745 c 0,18,19
 117 1122 117 1122 276.5 1321 c 128,-1,20
 436 1520 436 1520 737 1520 c 0,21,22
 827 1520 827 1520 914 1494.5 c 128,-1,23
 1001 1469 1001 1469 1077 1421 c 1,24,-1
 1077 1094 l 1,25,26
 1015 1174 1015 1174 934.5 1214.5 c 128,-1,27
 854 1255 854 1255 758 1255 c 0,28,29
 590 1255 590 1255 507 1128.5 c 128,-1,30
 424 1002 424 1002 424 745 c 0,31,32
 424 496 424 496 504 366 c 128,-1,33
 584 236 584 236 737 236 c 0,34,35
 783 236 783 236 817 244.5 c 128,-1,36
 851 253 851 253 872 270 c 1,7,-1
EndSplineSet
EndChar

StartChar: Gbreve
Encoding: 286 286 228
Width: 1233
Flags: W
LayerCount: 2
Fore
SplineSet
331 1899 m 1,0,-1
 472 1899 l 1,1,2
 492 1839 492 1839 541 1808.5 c 128,-1,3
 590 1778 590 1778 666 1778 c 0,4,5
 743 1778 743 1778 791 1808 c 128,-1,6
 839 1838 839 1838 859 1899 c 1,7,-1
 1002 1899 l 1,8,9
 987 1770 987 1770 900.5 1702.5 c 128,-1,10
 814 1635 814 1635 666 1635 c 0,11,12
 519 1635 519 1635 432.5 1702.5 c 128,-1,13
 346 1770 346 1770 331 1899 c 1,0,-1
872 270 m 1,14,-1
 872 555 l 1,15,-1
 670 555 l 1,16,-1
 670 803 l 1,17,-1
 1130 803 l 1,18,-1
 1130 119 l 1,19,20
 1045 46 1045 46 942.5 8.5 c 128,-1,21
 840 -29 840 -29 723 -29 c 0,22,23
 433 -29 433 -29 275 172.5 c 128,-1,24
 117 374 117 374 117 745 c 0,25,26
 117 1122 117 1122 276.5 1321 c 128,-1,27
 436 1520 436 1520 737 1520 c 0,28,29
 827 1520 827 1520 914 1494.5 c 128,-1,30
 1001 1469 1001 1469 1077 1421 c 1,31,-1
 1077 1094 l 1,32,33
 1015 1174 1015 1174 934.5 1214.5 c 128,-1,34
 854 1255 854 1255 758 1255 c 0,35,36
 590 1255 590 1255 507 1128.5 c 128,-1,37
 424 1002 424 1002 424 745 c 0,38,39
 424 496 424 496 504 366 c 128,-1,40
 584 236 584 236 737 236 c 0,41,42
 783 236 783 236 817 244.5 c 128,-1,43
 851 253 851 253 872 270 c 1,14,-1
EndSplineSet
EndChar

StartChar: gbreve
Encoding: 287 287 229
Width: 1233
Flags: W
LayerCount: 2
Fore
SplineSet
281 1606 m 1,0,-1
 422 1606 l 1,1,2
 433 1537 433 1537 483 1499.5 c 128,-1,3
 533 1462 533 1462 616 1462 c 256,4,5
 699 1462 699 1462 748.5 1499 c 128,-1,6
 798 1536 798 1536 809 1606 c 1,7,-1
 952 1606 l 1,8,9
 946 1462 946 1462 859.5 1385.5 c 128,-1,10
 773 1309 773 1309 616 1309 c 0,11,12
 460 1309 460 1309 373.5 1385.5 c 128,-1,13
 287 1462 287 1462 281 1606 c 1,0,-1
803 578 m 0,14,15
 803 728 803 728 746 818.5 c 128,-1,16
 689 909 689 909 596 909 c 0,17,18
 504 909 504 909 447.5 819 c 128,-1,19
 391 729 391 729 391 578 c 0,20,21
 391 426 391 426 447.5 336 c 128,-1,22
 504 246 504 246 596 246 c 0,23,24
 689 246 689 246 746 336.5 c 128,-1,25
 803 427 803 427 803 578 c 0,14,15
1096 84 m 2,26,27
 1096 -185 1096 -185 974.5 -304.5 c 128,-1,28
 853 -424 853 -424 580 -424 c 0,29,30
 488 -424 488 -424 398 -410.5 c 128,-1,31
 308 -397 308 -397 215 -369 c 1,32,-1
 215 -100 l 1,33,34
 298 -146 298 -146 384 -168 c 128,-1,35
 470 -190 470 -190 561 -190 c 0,36,37
 685 -190 685 -190 744 -131.5 c 128,-1,38
 803 -73 803 -73 803 51 c 2,39,-1
 803 172 l 1,40,41
 760 92 760 92 689 53 c 128,-1,42
 618 14 618 14 516 14 c 0,43,44
 324 14 324 14 211 164 c 128,-1,45
 98 314 98 314 98 571 c 0,46,47
 98 837 98 837 211 993 c 128,-1,48
 324 1149 324 1149 514 1149 c 0,49,50
 610 1149 610 1149 685 1104 c 128,-1,51
 760 1059 760 1059 803 977 c 1,52,-1
 803 1120 l 1,53,-1
 1096 1120 l 1,54,-1
 1096 84 l 2,26,27
EndSplineSet
EndChar

StartChar: Gdotaccent
Encoding: 288 288 230
Width: 1233
Flags: W
LayerCount: 2
Fore
SplineSet
529 1899 m 1,0,-1
 804 1899 l 1,1,-1
 804 1653 l 1,2,-1
 529 1653 l 1,3,-1
 529 1899 l 1,0,-1
872 270 m 1,4,-1
 872 555 l 1,5,-1
 670 555 l 1,6,-1
 670 803 l 1,7,-1
 1130 803 l 1,8,-1
 1130 119 l 1,9,10
 1045 46 1045 46 942.5 8.5 c 128,-1,11
 840 -29 840 -29 723 -29 c 0,12,13
 433 -29 433 -29 275 172.5 c 128,-1,14
 117 374 117 374 117 745 c 0,15,16
 117 1122 117 1122 276.5 1321 c 128,-1,17
 436 1520 436 1520 737 1520 c 0,18,19
 827 1520 827 1520 914 1494.5 c 128,-1,20
 1001 1469 1001 1469 1077 1421 c 1,21,-1
 1077 1094 l 1,22,23
 1015 1174 1015 1174 934.5 1214.5 c 128,-1,24
 854 1255 854 1255 758 1255 c 0,25,26
 590 1255 590 1255 507 1128.5 c 128,-1,27
 424 1002 424 1002 424 745 c 0,28,29
 424 496 424 496 504 366 c 128,-1,30
 584 236 584 236 737 236 c 0,31,32
 783 236 783 236 817 244.5 c 128,-1,33
 851 253 851 253 872 270 c 1,4,-1
EndSplineSet
EndChar

StartChar: gdotaccent
Encoding: 289 289 231
Width: 1233
Flags: W
LayerCount: 2
Fore
SplineSet
479 1585 m 1,0,-1
 754 1585 l 1,1,-1
 754 1339 l 1,2,-1
 479 1339 l 1,3,-1
 479 1585 l 1,0,-1
803 578 m 0,4,5
 803 728 803 728 746 818.5 c 128,-1,6
 689 909 689 909 596 909 c 0,7,8
 504 909 504 909 447.5 819 c 128,-1,9
 391 729 391 729 391 578 c 0,10,11
 391 426 391 426 447.5 336 c 128,-1,12
 504 246 504 246 596 246 c 0,13,14
 689 246 689 246 746 336.5 c 128,-1,15
 803 427 803 427 803 578 c 0,4,5
1096 84 m 2,16,17
 1096 -185 1096 -185 974.5 -304.5 c 128,-1,18
 853 -424 853 -424 580 -424 c 0,19,20
 488 -424 488 -424 398 -410.5 c 128,-1,21
 308 -397 308 -397 215 -369 c 1,22,-1
 215 -100 l 1,23,24
 298 -146 298 -146 384 -168 c 128,-1,25
 470 -190 470 -190 561 -190 c 0,26,27
 685 -190 685 -190 744 -131.5 c 128,-1,28
 803 -73 803 -73 803 51 c 2,29,-1
 803 172 l 1,30,31
 760 92 760 92 689 53 c 128,-1,32
 618 14 618 14 516 14 c 0,33,34
 324 14 324 14 211 164 c 128,-1,35
 98 314 98 314 98 571 c 0,36,37
 98 837 98 837 211 993 c 128,-1,38
 324 1149 324 1149 514 1149 c 0,39,40
 610 1149 610 1149 685 1104 c 128,-1,41
 760 1059 760 1059 803 977 c 1,42,-1
 803 1120 l 1,43,-1
 1096 1120 l 1,44,-1
 1096 84 l 2,16,17
EndSplineSet
EndChar

StartChar: Gcommaaccent
Encoding: 290 290 232
Width: 1233
Flags: W
LayerCount: 2
Fore
SplineSet
627 -187 m 1,0,-1
 909 -187 l 1,1,-1
 732 -493 l 1,2,-1
 538 -493 l 1,3,-1
 627 -187 l 1,0,-1
872 270 m 1,4,-1
 872 555 l 1,5,-1
 670 555 l 1,6,-1
 670 803 l 1,7,-1
 1130 803 l 1,8,-1
 1130 119 l 1,9,10
 1045 46 1045 46 942.5 8.5 c 128,-1,11
 840 -29 840 -29 723 -29 c 0,12,13
 433 -29 433 -29 275 172.5 c 128,-1,14
 117 374 117 374 117 745 c 0,15,16
 117 1122 117 1122 276.5 1321 c 128,-1,17
 436 1520 436 1520 737 1520 c 0,18,19
 827 1520 827 1520 914 1494.5 c 128,-1,20
 1001 1469 1001 1469 1077 1421 c 1,21,-1
 1077 1094 l 1,22,23
 1015 1174 1015 1174 934.5 1214.5 c 128,-1,24
 854 1255 854 1255 758 1255 c 0,25,26
 590 1255 590 1255 507 1128.5 c 128,-1,27
 424 1002 424 1002 424 745 c 0,28,29
 424 496 424 496 504 366 c 128,-1,30
 584 236 584 236 737 236 c 0,31,32
 783 236 783 236 817 244.5 c 128,-1,33
 851 253 851 253 872 270 c 1,4,-1
EndSplineSet
EndChar

StartChar: gcommaaccent
Encoding: 291 291 233
Width: 1233
Flags: W
LayerCount: 2
Fore
SplineSet
737 1259 m 1,0,-1
 455 1259 l 1,1,-1
 632 1565 l 1,2,-1
 826 1565 l 1,3,-1
 737 1259 l 1,0,-1
803 578 m 0,4,5
 803 728 803 728 746 818.5 c 128,-1,6
 689 909 689 909 596 909 c 0,7,8
 504 909 504 909 447.5 819 c 128,-1,9
 391 729 391 729 391 578 c 0,10,11
 391 426 391 426 447.5 336 c 128,-1,12
 504 246 504 246 596 246 c 0,13,14
 689 246 689 246 746 336.5 c 128,-1,15
 803 427 803 427 803 578 c 0,4,5
1096 84 m 2,16,17
 1096 -185 1096 -185 974.5 -304.5 c 128,-1,18
 853 -424 853 -424 580 -424 c 0,19,20
 488 -424 488 -424 398 -410.5 c 128,-1,21
 308 -397 308 -397 215 -369 c 1,22,-1
 215 -100 l 1,23,24
 298 -146 298 -146 384 -168 c 128,-1,25
 470 -190 470 -190 561 -190 c 0,26,27
 685 -190 685 -190 744 -131.5 c 128,-1,28
 803 -73 803 -73 803 51 c 2,29,-1
 803 172 l 1,30,31
 760 92 760 92 689 53 c 128,-1,32
 618 14 618 14 516 14 c 0,33,34
 324 14 324 14 211 164 c 128,-1,35
 98 314 98 314 98 571 c 0,36,37
 98 837 98 837 211 993 c 128,-1,38
 324 1149 324 1149 514 1149 c 0,39,40
 610 1149 610 1149 685 1104 c 128,-1,41
 760 1059 760 1059 803 977 c 1,42,-1
 803 1120 l 1,43,-1
 1096 1120 l 1,44,-1
 1096 84 l 2,16,17
EndSplineSet
EndChar

StartChar: Hcircumflex
Encoding: 292 292 234
Width: 1233
Flags: W
LayerCount: 2
Fore
SplineSet
461 1899 m 1,0,-1
 770 1899 l 1,1,-1
 993 1635 l 1,2,-1
 815 1635 l 1,3,-1
 616 1796 l 1,4,-1
 418 1635 l 1,5,-1
 240 1635 l 1,6,-1
 461 1899 l 1,0,-1
137 1493 m 1,7,-1
 432 1493 l 1,8,-1
 432 924 l 1,9,-1
 801 924 l 1,10,-1
 801 1493 l 1,11,-1
 1096 1493 l 1,12,-1
 1096 0 l 1,13,-1
 801 0 l 1,14,-1
 801 664 l 1,15,-1
 432 664 l 1,16,-1
 432 0 l 1,17,-1
 137 0 l 1,18,-1
 137 1493 l 1,7,-1
EndSplineSet
EndChar

StartChar: hcircumflex
Encoding: 293 293 235
Width: 1233
Flags: W
LayerCount: 2
Fore
SplineSet
160 1899 m 1,0,-1
 469 1899 l 1,1,-1
 692 1635 l 1,2,-1
 514 1635 l 1,3,-1
 315 1796 l 1,4,-1
 117 1635 l 1,5,-1
 -61 1635 l 1,6,-1
 160 1899 l 1,0,-1
1071 727 m 2,7,-1
 1071 0 l 1,8,-1
 780 0 l 1,9,-1
 780 682 l 2,10,11
 780 803 780 803 745.5 855 c 128,-1,12
 711 907 711 907 633 907 c 0,13,14
 553 907 553 907 508 836.5 c 128,-1,15
 463 766 463 766 463 641 c 2,16,-1
 463 0 l 1,17,-1
 172 0 l 1,18,-1
 172 1556 l 1,19,-1
 463 1556 l 1,20,-1
 463 952 l 1,21,22
 494 1045 494 1045 569 1096 c 128,-1,23
 644 1147 644 1147 750 1147 c 0,24,25
 909 1147 909 1147 990 1041.5 c 128,-1,26
 1071 936 1071 936 1071 727 c 2,7,-1
EndSplineSet
EndChar

StartChar: Hbar
Encoding: 294 294 236
Width: 1233
Flags: W
LayerCount: 2
Fore
SplineSet
137 1493 m 1,0,-1
 432 1493 l 1,1,-1
 432 1269 l 1,2,-1
 801 1269 l 1,3,-1
 801 1493 l 1,4,-1
 1095 1493 l 1,5,-1
 1095 1269 l 1,6,-1
 1230 1269 l 1,7,-1
 1230 1105 l 1,8,-1
 1095 1105 l 1,9,-1
 1095 0 l 1,10,-1
 801 0 l 1,11,-1
 801 664 l 1,12,-1
 432 664 l 1,13,-1
 432 0 l 1,14,-1
 137 0 l 1,15,-1
 137 1105 l 1,16,-1
 3 1105 l 1,17,-1
 3 1269 l 1,18,-1
 137 1269 l 1,19,-1
 137 1493 l 1,0,-1
432 1105 m 1,20,-1
 432 924 l 1,21,-1
 801 924 l 1,22,-1
 801 1105 l 1,23,-1
 432 1105 l 1,20,-1
EndSplineSet
EndChar

StartChar: hbar
Encoding: 295 295 237
Width: 1233
Flags: W
LayerCount: 2
Fore
SplineSet
1071 727 m 2,0,-1
 1071 0 l 1,1,-1
 780 0 l 1,2,-1
 780 682 l 2,3,4
 780 803 780 803 745.5 855 c 128,-1,5
 711 907 711 907 633 907 c 0,6,7
 553 907 553 907 508 836 c 0,8,9
 463 766 463 766 463 641 c 2,10,-1
 463 0 l 1,11,-1
 172 0 l 1,12,-1
 172 1270 l 1,13,-1
 12 1270 l 1,14,-1
 12 1434 l 1,15,-1
 172 1434 l 1,16,-1
 172 1556 l 1,17,-1
 463 1556 l 1,18,-1
 463 1434 l 1,19,20
 602 1434 602 1434 740 1434 c 1,21,-1
 740 1270 l 1,22,-1
 463 1270 l 1,23,-1
 463 952 l 1,24,25
 494 1045 494 1045 569 1096 c 128,-1,26
 644 1147 644 1147 750 1147 c 0,27,28
 909 1147 909 1147 990 1042 c 0,29,30
 1071 936 1071 936 1071 727 c 2,0,-1
EndSplineSet
EndChar

StartChar: Itilde
Encoding: 296 296 238
Width: 1233
Flags: W
LayerCount: 2
Fore
SplineSet
618 1684 m 2,0,-1
 564 1718 l 2,1,2
 559 1721 559 1721 552 1725 c 0,3,4
 507 1751 507 1751 479 1751 c 0,5,6
 448 1751 448 1751 428 1721 c 128,-1,7
 408 1691 408 1691 408 1641 c 2,8,-1
 408 1635 l 1,9,-1
 268 1635 l 1,10,-1
 268 1665 l 2,11,12
 268 1771 268 1771 322.5 1836 c 128,-1,13
 377 1901 377 1901 465 1901 c 0,14,15
 501 1901 501 1901 538.5 1888.5 c 128,-1,16
 576 1876 576 1876 614 1852 c 2,17,-1
 674 1813 l 2,18,19
 695 1799 695 1799 714.5 1791.5 c 128,-1,20
 734 1784 734 1784 750 1784 c 0,21,22
 786 1784 786 1784 805.5 1814 c 128,-1,23
 825 1844 825 1844 825 1901 c 1,24,-1
 965 1901 l 1,25,26
 965 1896 965 1896 964 1886 c 128,-1,27
 963 1876 963 1876 963 1870 c 0,28,29
 963 1764 963 1764 909.5 1699.5 c 128,-1,30
 856 1635 856 1635 768 1635 c 0,31,32
 731 1635 731 1635 695.5 1646 c 128,-1,33
 660 1657 660 1657 618 1684 c 2,0,-1
172 1233 m 1,34,-1
 172 1493 l 1,35,-1
 1061 1493 l 1,36,-1
 1061 1233 l 1,37,-1
 764 1233 l 1,38,-1
 764 260 l 1,39,-1
 1061 260 l 1,40,-1
 1061 0 l 1,41,-1
 172 0 l 1,42,-1
 172 260 l 1,43,-1
 469 260 l 1,44,-1
 469 1233 l 1,45,-1
 172 1233 l 1,34,-1
EndSplineSet
EndChar

StartChar: Imacron
Encoding: 298 298 240
Width: 1233
Flags: W
LayerCount: 2
Fore
SplineSet
301 1870 m 1,0,-1
 932 1870 l 1,1,-1
 932 1682 l 1,2,-1
 301 1682 l 1,3,-1
 301 1870 l 1,0,-1
172 1233 m 1,4,-1
 172 1493 l 1,5,-1
 1061 1493 l 1,6,-1
 1061 1233 l 1,7,-1
 764 1233 l 1,8,-1
 764 260 l 1,9,-1
 1061 260 l 1,10,-1
 1061 0 l 1,11,-1
 172 0 l 1,12,-1
 172 260 l 1,13,-1
 469 260 l 1,14,-1
 469 1233 l 1,15,-1
 172 1233 l 1,4,-1
EndSplineSet
EndChar

StartChar: imacron
Encoding: 299 299 241
Width: 1233
Flags: W
LayerCount: 2
Fore
SplineSet
301 1556 m 1,0,-1
 932 1556 l 1,1,-1
 932 1368 l 1,2,-1
 301 1368 l 1,3,-1
 301 1556 l 1,0,-1
221 1120 m 1,4,-1
 801 1120 l 1,5,-1
 801 225 l 1,6,-1
 1165 225 l 1,7,-1
 1165 0 l 1,8,-1
 143 0 l 1,9,-1
 143 225 l 1,10,-1
 508 225 l 1,11,-1
 508 895 l 1,12,-1
 221 895 l 1,13,-1
 221 1120 l 1,4,-1
EndSplineSet
EndChar

StartChar: Ibreve
Encoding: 300 300 242
Width: 1233
Flags: W
LayerCount: 2
Fore
SplineSet
281 1899 m 1,0,-1
 422 1899 l 1,1,2
 442 1839 442 1839 491 1808.5 c 128,-1,3
 540 1778 540 1778 616 1778 c 0,4,5
 693 1778 693 1778 741 1808 c 128,-1,6
 789 1838 789 1838 809 1899 c 1,7,-1
 952 1899 l 1,8,9
 937 1770 937 1770 850.5 1702.5 c 128,-1,10
 764 1635 764 1635 616 1635 c 0,11,12
 469 1635 469 1635 382.5 1702.5 c 128,-1,13
 296 1770 296 1770 281 1899 c 1,0,-1
172 1233 m 1,14,-1
 172 1493 l 1,15,-1
 1061 1493 l 1,16,-1
 1061 1233 l 1,17,-1
 764 1233 l 1,18,-1
 764 260 l 1,19,-1
 1061 260 l 1,20,-1
 1061 0 l 1,21,-1
 172 0 l 1,22,-1
 172 260 l 1,23,-1
 469 260 l 1,24,-1
 469 1233 l 1,25,-1
 172 1233 l 1,14,-1
EndSplineSet
EndChar

StartChar: ibreve
Encoding: 301 301 243
Width: 1233
Flags: W
LayerCount: 2
Fore
SplineSet
281 1606 m 1,0,-1
 422 1606 l 1,1,2
 433 1537 433 1537 483 1499.5 c 128,-1,3
 533 1462 533 1462 616 1462 c 256,4,5
 699 1462 699 1462 748.5 1499 c 128,-1,6
 798 1536 798 1536 809 1606 c 1,7,-1
 952 1606 l 1,8,9
 946 1462 946 1462 859.5 1385.5 c 128,-1,10
 773 1309 773 1309 616 1309 c 0,11,12
 460 1309 460 1309 373.5 1385.5 c 128,-1,13
 287 1462 287 1462 281 1606 c 1,0,-1
221 1120 m 1,14,-1
 801 1120 l 1,15,-1
 801 225 l 1,16,-1
 1165 225 l 1,17,-1
 1165 0 l 1,18,-1
 143 0 l 1,19,-1
 143 225 l 1,20,-1
 508 225 l 1,21,-1
 508 895 l 1,22,-1
 221 895 l 1,23,-1
 221 1120 l 1,14,-1
EndSplineSet
EndChar

StartChar: Idotaccent
Encoding: 304 304 246
Width: 1233
Flags: W
LayerCount: 2
Fore
SplineSet
479 1899 m 1,0,-1
 754 1899 l 1,1,-1
 754 1653 l 1,2,-1
 479 1653 l 1,3,-1
 479 1899 l 1,0,-1
172 1233 m 1,4,-1
 172 1493 l 1,5,-1
 1061 1493 l 1,6,-1
 1061 1233 l 1,7,-1
 764 1233 l 1,8,-1
 764 260 l 1,9,-1
 1061 260 l 1,10,-1
 1061 0 l 1,11,-1
 172 0 l 1,12,-1
 172 260 l 1,13,-1
 469 260 l 1,14,-1
 469 1233 l 1,15,-1
 172 1233 l 1,4,-1
EndSplineSet
EndChar

StartChar: dotlessi
Encoding: 305 305 247
Width: 1233
Flags: W
LayerCount: 2
Fore
SplineSet
221 1120 m 1,0,-1
 801 1120 l 1,1,-1
 801 225 l 1,2,-1
 1165 225 l 1,3,-1
 1165 0 l 1,4,-1
 143 0 l 1,5,-1
 143 225 l 1,6,-1
 508 225 l 1,7,-1
 508 895 l 1,8,-1
 221 895 l 1,9,-1
 221 1120 l 1,0,-1
EndSplineSet
EndChar

StartChar: IJ
Encoding: 306 306 248
Width: 1233
Flags: W
LayerCount: 2
Fore
SplineSet
574 77 m 1,0,-1
 574 419 l 1,1,2
 637 331 637 331 708 285 c 128,-1,3
 779 239 779 239 851 239 c 0,4,5
 936 239 936 239 975 297 c 0,6,7
 1015 355 1015 355 1015 482 c 2,8,-1
 1015 1236 l 1,9,-1
 751 1236 l 1,10,-1
 751 1496 l 1,11,-1
 1230 1496 l 1,12,-1
 1230 482 l 2,13,14
 1230 209 1230 209 1147 92 c 0,15,16
 1063 -26 1063 -26 871 -26 c 0,17,18
 802 -26 802 -26 726.5 0 c 128,-1,19
 651 26 651 26 574 77 c 1,0,-1
-9 1233 m 1,20,-1
 -9 1493 l 1,21,-1
 560 1493 l 1,22,-1
 560 1233 l 1,23,-1
 370 1233 l 1,24,-1
 370 260 l 1,25,-1
 560 260 l 1,26,-1
 560 0 l 1,27,-1
 -9 0 l 1,28,-1
 -9 260 l 1,29,-1
 181 260 l 1,30,-1
 181 1233 l 1,31,-1
 -9 1233 l 1,20,-1
EndSplineSet
EndChar

StartChar: ij
Encoding: 307 307 249
Width: 1233
Flags: W
LayerCount: 2
Fore
SplineSet
1233 33 m 2,0,1
 1233 -219 1233 -219 1142.5 -326.5 c 128,-1,2
 1052 -434 1052 -434 842 -434 c 2,3,-1
 526 -434 l 1,4,-1
 526 -209 l 1,5,-1
 760 -209 l 2,6,7
 858 -209 858 -209 899 -154 c 128,-1,8
 940 -99 940 -99 940 33 c 2,9,-1
 940 885 l 1,10,-1
 643 885 l 1,11,-1
 643 1110 l 1,12,-1
 1233 1110 l 1,13,-1
 1233 33 l 2,0,1
1233 1313 m 1,14,-1
 940 1313 l 1,15,-1
 940 1655 l 1,16,-1
 1233 1655 l 1,17,-1
 1233 1313 l 1,14,-1
64 1120 m 1,18,-1
 469 1120 l 1,19,-1
 469 225 l 1,20,-1
 724 225 l 1,21,-1
 724 0 l 1,22,-1
 10 0 l 1,23,-1
 10 225 l 1,24,-1
 265 225 l 1,25,-1
 265 895 l 1,26,-1
 64 895 l 1,27,-1
 64 1120 l 1,18,-1
265 1665 m 1,28,-1
 469 1665 l 1,29,-1
 469 1323 l 1,30,-1
 265 1323 l 1,31,-1
 265 1665 l 1,28,-1
EndSplineSet
EndChar

StartChar: Jcircumflex
Encoding: 308 308 250
Width: 1233
Flags: W
LayerCount: 2
Fore
SplineSet
525 1899 m 1,0,-1
 834 1899 l 1,1,-1
 1057 1635 l 1,2,-1
 879 1635 l 1,3,-1
 680 1796 l 1,4,-1
 482 1635 l 1,5,-1
 304 1635 l 1,6,-1
 525 1899 l 1,0,-1
109 74 m 1,7,-1
 109 416 l 1,8,9
 195 328 195 328 292.5 282 c 128,-1,10
 390 236 390 236 489 236 c 0,11,12
 605 236 605 236 659 294 c 128,-1,13
 713 352 713 352 713 479 c 2,14,-1
 713 1233 l 1,15,-1
 352 1233 l 1,16,-1
 352 1493 l 1,17,-1
 1008 1493 l 1,18,-1
 1008 479 l 2,19,20
 1008 206 1008 206 893.5 88.5 c 128,-1,21
 779 -29 779 -29 516 -29 c 0,22,23
 421 -29 421 -29 317.5 -3 c 128,-1,24
 214 23 214 23 109 74 c 1,7,-1
EndSplineSet
EndChar

StartChar: jcircumflex
Encoding: 309 309 251
Width: 1233
Flags: W
LayerCount: 2
Fore
SplineSet
850 43 m 2,0,1
 850 -209 850 -209 759.5 -316.5 c 128,-1,2
 669 -424 669 -424 459 -424 c 2,3,-1
 143 -424 l 1,4,-1
 143 -199 l 1,5,-1
 377 -199 l 2,6,7
 475 -199 475 -199 516 -144 c 128,-1,8
 557 -89 557 -89 557 43 c 2,9,-1
 557 895 l 1,10,-1
 260 895 l 1,11,-1
 260 1120 l 1,12,-1
 850 1120 l 1,13,-1
 850 43 l 2,0,1
496 1638 m 1,14,-1
 737 1638 l 1,15,-1
 993 1262 l 1,16,-1
 815 1262 l 1,17,-1
 616 1487 l 1,18,-1
 418 1262 l 1,19,-1
 240 1262 l 1,20,-1
 496 1638 l 1,14,-1
EndSplineSet
EndChar

StartChar: Kcommaaccent
Encoding: 310 310 252
Width: 1233
Flags: W
LayerCount: 2
Fore
SplineSet
575 -158 m 1,0,-1
 857 -158 l 1,1,-1
 680 -464 l 1,2,-1
 486 -464 l 1,3,-1
 575 -158 l 1,0,-1
117 1493 m 1,4,-1
 412 1493 l 1,5,-1
 412 903 l 1,6,-1
 874 1493 l 1,7,-1
 1208 1493 l 1,8,-1
 737 905 l 1,9,-1
 1225 0 l 1,10,-1
 897 0 l 1,11,-1
 543 672 l 1,12,-1
 412 506 l 1,13,-1
 412 0 l 1,14,-1
 117 0 l 1,15,-1
 117 1493 l 1,4,-1
EndSplineSet
EndChar

StartChar: kcommaaccent
Encoding: 311 311 253
Width: 1233
Flags: W
LayerCount: 2
Fore
SplineSet
589 -158 m 1,0,-1
 871 -158 l 1,1,-1
 694 -464 l 1,2,-1
 500 -464 l 1,3,-1
 589 -158 l 1,0,-1
174 1556 m 1,4,-1
 467 1556 l 1,5,-1
 467 739 l 1,6,-1
 819 1120 l 1,7,-1
 1174 1120 l 1,8,-1
 750 702 l 1,9,-1
 1198 0 l 1,10,-1
 874 0 l 1,11,-1
 567 524 l 1,12,-1
 467 428 l 1,13,-1
 467 0 l 1,14,-1
 174 0 l 1,15,-1
 174 1556 l 1,4,-1
EndSplineSet
EndChar

StartChar: kgreenlandic
Encoding: 312 312 254
Width: 1233
Flags: W
LayerCount: 2
Fore
SplineSet
174 1120 m 1,0,-1
 467 1120 l 1,1,-1
 467 739 l 1,2,-1
 819 1120 l 1,3,-1
 1174 1120 l 1,4,-1
 750 702 l 1,5,-1
 1198 0 l 1,6,-1
 874 0 l 1,7,-1
 567 524 l 1,8,-1
 467 428 l 1,9,-1
 467 0 l 1,10,-1
 174 0 l 1,11,-1
 174 1120 l 1,0,-1
EndSplineSet
EndChar

StartChar: Lacute
Encoding: 313 313 255
Width: 1233
Flags: W
LayerCount: 2
Fore
SplineSet
669 1900 m 1,0,-1
 953 1900 l 1,1,-1
 667 1636 l 1,2,-1
 470 1636 l 1,3,-1
 669 1900 l 1,0,-1
225 0 m 1,4,-1
 225 1493 l 1,5,-1
 520 1493 l 1,6,-1
 520 260 l 1,7,-1
 1151 260 l 1,8,-1
 1151 0 l 1,9,-1
 225 0 l 1,4,-1
EndSplineSet
EndChar

StartChar: lacute
Encoding: 314 314 256
Width: 1233
Flags: W
LayerCount: 2
Fore
SplineSet
669 1900 m 1,0,-1
 953 1900 l 1,1,-1
 667 1636 l 1,2,-1
 470 1636 l 1,3,-1
 669 1900 l 1,0,-1
387 467 m 2,4,-1
 387 1331 l 1,5,-1
 90 1331 l 1,6,-1
 90 1556 l 1,7,-1
 680 1556 l 1,8,-1
 680 467 l 2,9,10
 680 335 680 335 721 280 c 128,-1,11
 762 225 762 225 860 225 c 2,12,-1
 1094 225 l 1,13,-1
 1094 0 l 1,14,-1
 778 0 l 2,15,16
 569 0 569 0 478 108 c 128,-1,17
 387 216 387 216 387 467 c 2,4,-1
EndSplineSet
EndChar

StartChar: Lcommaaccent
Encoding: 315 315 257
Width: 1233
Flags: W
LayerCount: 2
Fore
SplineSet
591 -158 m 1,0,-1
 873 -158 l 1,1,-1
 696 -464 l 1,2,-1
 502 -464 l 1,3,-1
 591 -158 l 1,0,-1
225 0 m 1,4,-1
 225 1493 l 1,5,-1
 520 1493 l 1,6,-1
 520 260 l 1,7,-1
 1151 260 l 1,8,-1
 1151 0 l 1,9,-1
 225 0 l 1,4,-1
EndSplineSet
EndChar

StartChar: lcommaaccent
Encoding: 316 316 258
Width: 1233
Flags: W
LayerCount: 2
Fore
SplineSet
465 -158 m 1,0,-1
 747 -158 l 1,1,-1
 570 -464 l 1,2,-1
 376 -464 l 1,3,-1
 465 -158 l 1,0,-1
387 467 m 2,4,-1
 387 1331 l 1,5,-1
 90 1331 l 1,6,-1
 90 1556 l 1,7,-1
 680 1556 l 1,8,-1
 680 467 l 2,9,10
 680 335 680 335 721 280 c 128,-1,11
 762 225 762 225 860 225 c 2,12,-1
 1094 225 l 1,13,-1
 1094 0 l 1,14,-1
 778 0 l 2,15,16
 569 0 569 0 478 108 c 128,-1,17
 387 216 387 216 387 467 c 2,4,-1
EndSplineSet
EndChar

StartChar: Lcaron
Encoding: 317 317 259
Width: 1233
Flags: W
LayerCount: 2
Fore
SplineSet
869 1493 m 1,0,-1
 1151 1493 l 1,1,-1
 990 1117 l 1,2,-1
 793 1117 l 1,3,-1
 869 1493 l 1,0,-1
225 0 m 1,4,-1
 225 1493 l 1,5,-1
 520 1493 l 1,6,-1
 520 260 l 1,7,-1
 1151 260 l 1,8,-1
 1151 0 l 1,9,-1
 225 0 l 1,4,-1
EndSplineSet
EndChar

StartChar: lcaron
Encoding: 318 318 260
Width: 1233
Flags: W
LayerCount: 2
Fore
SplineSet
908 1556 m 1,0,-1
 1190 1556 l 1,1,-1
 1029 1180 l 1,2,-1
 832 1180 l 1,3,-1
 908 1556 l 1,0,-1
387 467 m 2,4,-1
 387 1331 l 1,5,-1
 90 1331 l 1,6,-1
 90 1556 l 1,7,-1
 680 1556 l 1,8,-1
 680 467 l 2,9,10
 680 335 680 335 721 280 c 128,-1,11
 762 225 762 225 860 225 c 2,12,-1
 1094 225 l 1,13,-1
 1094 0 l 1,14,-1
 778 0 l 2,15,16
 569 0 569 0 478 108 c 128,-1,17
 387 216 387 216 387 467 c 2,4,-1
EndSplineSet
EndChar

StartChar: Lslash
Encoding: 321 321 263
Width: 1233
Flags: W
LayerCount: 2
Fore
SplineSet
225 0 m 1,0,-1
 225 537 l 1,1,-1
 74 426 l 1,2,-1
 -39 580 l 1,3,-1
 225 768 l 1,4,-1
 225 1493 l 1,5,-1
 520 1493 l 1,6,-1
 520 973 l 1,7,-1
 795 1167 l 1,8,-1
 907 1014 l 1,9,-1
 520 741 l 1,10,-1
 520 260 l 1,11,-1
 1151 260 l 1,12,-1
 1151 0 l 1,13,-1
 225 0 l 1,0,-1
EndSplineSet
EndChar

StartChar: lslash
Encoding: 322 322 264
Width: 1233
Flags: W
LayerCount: 2
Fore
SplineSet
410 467 m 2,0,-1
 410 633 l 1,1,-1
 137 438 l 1,2,-1
 37 600 l 1,3,-1
 410 864 l 1,4,-1
 410 1331 l 1,5,-1
 115 1331 l 1,6,-1
 115 1556 l 1,7,-1
 702 1556 l 1,8,-1
 702 1071 l 1,9,-1
 997 1280 l 1,10,-1
 1100 1120 l 1,11,-1
 702 840 l 1,12,-1
 702 467 l 2,13,14
 702 335 702 335 743.5 280 c 128,-1,15
 785 225 785 225 883 225 c 2,16,-1
 1116 225 l 1,17,-1
 1116 0 l 1,18,-1
 801 0 l 2,19,20
 592 0 592 0 501 108 c 128,-1,21
 410 216 410 216 410 467 c 2,0,-1
EndSplineSet
EndChar

StartChar: Nacute
Encoding: 323 323 265
Width: 1233
Flags: W
LayerCount: 2
Fore
SplineSet
699 1900 m 1,0,-1
 983 1900 l 1,1,-1
 697 1636 l 1,2,-1
 500 1636 l 1,3,-1
 699 1900 l 1,0,-1
119 1493 m 1,4,-1
 436 1493 l 1,5,-1
 852 408 l 1,6,-1
 852 1493 l 1,7,-1
 1112 1493 l 1,8,-1
 1112 0 l 1,9,-1
 797 0 l 1,10,-1
 379 1085 l 1,11,-1
 379 0 l 1,12,-1
 119 0 l 1,13,-1
 119 1493 l 1,4,-1
EndSplineSet
EndChar

StartChar: Ncommaaccent
Encoding: 325 325 267
Width: 1233
Flags: W
LayerCount: 2
Fore
SplineSet
519 -158 m 1,0,-1
 801 -158 l 1,1,-1
 624 -464 l 1,2,-1
 430 -464 l 1,3,-1
 519 -158 l 1,0,-1
119 1493 m 1,4,-1
 436 1493 l 1,5,-1
 852 408 l 1,6,-1
 852 1493 l 1,7,-1
 1112 1493 l 1,8,-1
 1112 0 l 1,9,-1
 797 0 l 1,10,-1
 379 1085 l 1,11,-1
 379 0 l 1,12,-1
 119 0 l 1,13,-1
 119 1493 l 1,4,-1
EndSplineSet
EndChar

StartChar: ncommaaccent
Encoding: 326 326 268
Width: 1233
Flags: W
LayerCount: 2
Fore
SplineSet
525 -158 m 1,0,-1
 807 -158 l 1,1,-1
 630 -464 l 1,2,-1
 436 -464 l 1,3,-1
 525 -158 l 1,0,-1
1071 727 m 2,4,-1
 1071 0 l 1,5,-1
 780 0 l 1,6,-1
 780 682 l 2,7,8
 780 804 780 804 745.5 856.5 c 128,-1,9
 711 909 711 909 633 909 c 0,10,11
 554 909 554 909 508.5 838 c 128,-1,12
 463 767 463 767 463 641 c 2,13,-1
 463 0 l 1,14,-1
 172 0 l 1,15,-1
 172 1120 l 1,16,-1
 463 1120 l 1,17,-1
 463 952 l 1,18,19
 494 1045 494 1045 569 1096 c 128,-1,20
 644 1147 644 1147 750 1147 c 0,21,22
 909 1147 909 1147 990 1041.5 c 128,-1,23
 1071 936 1071 936 1071 727 c 2,4,-1
EndSplineSet
EndChar

StartChar: Ncaron
Encoding: 327 327 269
Width: 1233
Flags: W
LayerCount: 2
Fore
SplineSet
502 1635 m 1,0,-1
 281 1899 l 1,1,-1
 459 1899 l 1,2,-1
 657 1737 l 1,3,-1
 856 1899 l 1,4,-1
 1034 1899 l 1,5,-1
 811 1635 l 1,6,-1
 502 1635 l 1,0,-1
119 1493 m 1,7,-1
 436 1493 l 1,8,-1
 852 408 l 1,9,-1
 852 1493 l 1,10,-1
 1112 1493 l 1,11,-1
 1112 0 l 1,12,-1
 797 0 l 1,13,-1
 379 1085 l 1,14,-1
 379 0 l 1,15,-1
 119 0 l 1,16,-1
 119 1493 l 1,7,-1
EndSplineSet
EndChar

StartChar: Eng
Encoding: 330 330 272
Width: 1233
Flags: W
LayerCount: 2
Fore
SplineSet
1125 942 m 2,0,-1
 1125 58 l 2,1,2
 1125 -208 1125 -208 1033 -318 c 1,3,4
 941 -426 941 -426 733 -426 c 2,5,-1
 612 -426 l 1,6,-1
 612 -199 l 1,7,-1
 649 -199 l 2,8,9
 749 -199 749 -199 790 -144 c 128,-1,10
 831 -89 831 -89 831 44 c 2,11,-1
 831 1015 l 2,12,13
 831 1144 831 1144 784 1199.5 c 128,-1,14
 737 1255 737 1255 631 1255 c 0,15,16
 522 1255 522 1255 463 1180 c 0,17,18
 401 1102 401 1102 401 972 c 2,19,-1
 401 0 l 1,20,-1
 106 0 l 1,21,-1
 106 1493 l 1,22,-1
 401 1493 l 1,23,-1
 401 1253 l 1,24,25
 438 1381 438 1381 527.5 1451.5 c 128,-1,26
 617 1522 617 1522 743 1522 c 0,27,28
 932 1522 932 1522 1028.5 1376.5 c 128,-1,29
 1125 1231 1125 1231 1125 942 c 2,0,-1
EndSplineSet
EndChar

StartChar: eng
Encoding: 331 331 273
Width: 1233
Flags: W
LayerCount: 2
Fore
SplineSet
1071 727 m 2,0,-1
 1071 43 l 2,1,2
 1071 -209 1071 -209 980 -316 c 1,3,4
 890 -424 890 -424 680 -424 c 2,5,-1
 559 -424 l 1,6,-1
 559 -199 l 1,7,-1
 598 -199 l 2,8,9
 698 -199 698 -199 739 -144 c 128,-1,10
 780 -89 780 -89 780 43 c 2,11,-1
 780 682 l 2,12,13
 780 804 780 804 746 856 c 0,14,15
 711 909 711 909 633 909 c 0,16,17
 554 909 554 909 508 838 c 0,18,19
 463 767 463 767 463 641 c 2,20,-1
 463 0 l 1,21,-1
 172 0 l 1,22,-1
 172 1120 l 1,23,-1
 463 1120 l 1,24,-1
 463 952 l 1,25,26
 494 1045 494 1045 569 1096 c 128,-1,27
 644 1147 644 1147 750 1147 c 0,28,29
 909 1147 909 1147 990 1042 c 0,30,31
 1071 936 1071 936 1071 727 c 2,0,-1
EndSplineSet
EndChar

StartChar: Omacron
Encoding: 332 332 274
Width: 1233
Flags: W
LayerCount: 2
Fore
SplineSet
301 1870 m 1,0,-1
 932 1870 l 1,1,-1
 932 1682 l 1,2,-1
 301 1682 l 1,3,-1
 301 1870 l 1,0,-1
616 1255 m 0,4,5
 503 1255 503 1255 451 1134.5 c 128,-1,6
 399 1014 399 1014 399 745 c 0,7,8
 399 477 399 477 451 356.5 c 128,-1,9
 503 236 503 236 616 236 c 0,10,11
 730 236 730 236 782 356.5 c 128,-1,12
 834 477 834 477 834 745 c 0,13,14
 834 1014 834 1014 782 1134.5 c 128,-1,15
 730 1255 730 1255 616 1255 c 0,4,5
92 745 m 0,16,17
 92 1128 92 1128 224.5 1324 c 128,-1,18
 357 1520 357 1520 616 1520 c 0,19,20
 876 1520 876 1520 1008.5 1324 c 128,-1,21
 1141 1128 1141 1128 1141 745 c 0,22,23
 1141 363 1141 363 1008.5 167 c 128,-1,24
 876 -29 876 -29 616 -29 c 0,25,26
 357 -29 357 -29 224.5 167 c 128,-1,27
 92 363 92 363 92 745 c 0,16,17
EndSplineSet
EndChar

StartChar: omacron
Encoding: 333 333 275
Width: 1233
Flags: W
LayerCount: 2
Fore
SplineSet
301 1556 m 1,0,-1
 932 1556 l 1,1,-1
 932 1368 l 1,2,-1
 301 1368 l 1,3,-1
 301 1556 l 1,0,-1
616 909 m 0,4,5
 511 909 511 909 451 816.5 c 128,-1,6
 391 724 391 724 391 559 c 256,7,8
 391 394 391 394 451 301.5 c 128,-1,9
 511 209 511 209 616 209 c 0,10,11
 722 209 722 209 782 301.5 c 128,-1,12
 842 394 842 394 842 559 c 256,13,14
 842 724 842 724 782 816.5 c 128,-1,15
 722 909 722 909 616 909 c 0,4,5
98 559 m 256,16,17
 98 830 98 830 238.5 988.5 c 128,-1,18
 379 1147 379 1147 616 1147 c 0,19,20
 854 1147 854 1147 994.5 988.5 c 128,-1,21
 1135 830 1135 830 1135 559 c 256,22,23
 1135 288 1135 288 994.5 129.5 c 128,-1,24
 854 -29 854 -29 616 -29 c 0,25,26
 379 -29 379 -29 238.5 129.5 c 128,-1,27
 98 288 98 288 98 559 c 256,16,17
EndSplineSet
EndChar

StartChar: Obreve
Encoding: 334 334 276
Width: 1233
Flags: W
LayerCount: 2
Fore
SplineSet
281 1899 m 1,0,-1
 422 1899 l 1,1,2
 442 1839 442 1839 491 1808.5 c 128,-1,3
 540 1778 540 1778 616 1778 c 0,4,5
 693 1778 693 1778 741 1808 c 128,-1,6
 789 1838 789 1838 809 1899 c 1,7,-1
 952 1899 l 1,8,9
 937 1770 937 1770 850.5 1702.5 c 128,-1,10
 764 1635 764 1635 616 1635 c 0,11,12
 469 1635 469 1635 382.5 1702.5 c 128,-1,13
 296 1770 296 1770 281 1899 c 1,0,-1
616 1255 m 0,14,15
 503 1255 503 1255 451 1134.5 c 128,-1,16
 399 1014 399 1014 399 745 c 0,17,18
 399 477 399 477 451 356.5 c 128,-1,19
 503 236 503 236 616 236 c 0,20,21
 730 236 730 236 782 356.5 c 128,-1,22
 834 477 834 477 834 745 c 0,23,24
 834 1014 834 1014 782 1134.5 c 128,-1,25
 730 1255 730 1255 616 1255 c 0,14,15
92 745 m 0,26,27
 92 1128 92 1128 224.5 1324 c 128,-1,28
 357 1520 357 1520 616 1520 c 0,29,30
 876 1520 876 1520 1008.5 1324 c 128,-1,31
 1141 1128 1141 1128 1141 745 c 0,32,33
 1141 363 1141 363 1008.5 167 c 128,-1,34
 876 -29 876 -29 616 -29 c 0,35,36
 357 -29 357 -29 224.5 167 c 128,-1,37
 92 363 92 363 92 745 c 0,26,27
EndSplineSet
EndChar

StartChar: obreve
Encoding: 335 335 277
Width: 1233
Flags: W
LayerCount: 2
Fore
SplineSet
281 1606 m 1,0,-1
 422 1606 l 1,1,2
 433 1537 433 1537 483 1499.5 c 128,-1,3
 533 1462 533 1462 616 1462 c 256,4,5
 699 1462 699 1462 748.5 1499 c 128,-1,6
 798 1536 798 1536 809 1606 c 1,7,-1
 952 1606 l 1,8,9
 946 1462 946 1462 859.5 1385.5 c 128,-1,10
 773 1309 773 1309 616 1309 c 0,11,12
 460 1309 460 1309 373.5 1385.5 c 128,-1,13
 287 1462 287 1462 281 1606 c 1,0,-1
616 909 m 0,14,15
 511 909 511 909 451 816.5 c 128,-1,16
 391 724 391 724 391 559 c 256,17,18
 391 394 391 394 451 301.5 c 128,-1,19
 511 209 511 209 616 209 c 0,20,21
 722 209 722 209 782 301.5 c 128,-1,22
 842 394 842 394 842 559 c 256,23,24
 842 724 842 724 782 816.5 c 128,-1,25
 722 909 722 909 616 909 c 0,14,15
98 559 m 256,26,27
 98 830 98 830 238.5 988.5 c 128,-1,28
 379 1147 379 1147 616 1147 c 0,29,30
 854 1147 854 1147 994.5 988.5 c 128,-1,31
 1135 830 1135 830 1135 559 c 256,32,33
 1135 288 1135 288 994.5 129.5 c 128,-1,34
 854 -29 854 -29 616 -29 c 0,35,36
 379 -29 379 -29 238.5 129.5 c 128,-1,37
 98 288 98 288 98 559 c 256,26,27
EndSplineSet
EndChar

StartChar: Ohungarumlaut
Encoding: 336 336 278
Width: 1233
Flags: W
LayerCount: 2
Fore
SplineSet
838 1899 m 1,0,-1
 1122 1899 l 1,1,-1
 836 1635 l 1,2,-1
 639 1635 l 1,3,-1
 838 1899 l 1,0,-1
463 1899 m 1,4,-1
 747 1899 l 1,5,-1
 461 1635 l 1,6,-1
 264 1635 l 1,7,-1
 463 1899 l 1,4,-1
616 1255 m 0,8,9
 503 1255 503 1255 451 1134.5 c 128,-1,10
 399 1014 399 1014 399 745 c 0,11,12
 399 477 399 477 451 356.5 c 128,-1,13
 503 236 503 236 616 236 c 0,14,15
 730 236 730 236 782 356.5 c 128,-1,16
 834 477 834 477 834 745 c 0,17,18
 834 1014 834 1014 782 1134.5 c 128,-1,19
 730 1255 730 1255 616 1255 c 0,8,9
92 745 m 0,20,21
 92 1128 92 1128 224.5 1324 c 128,-1,22
 357 1520 357 1520 616 1520 c 0,23,24
 876 1520 876 1520 1008.5 1324 c 128,-1,25
 1141 1128 1141 1128 1141 745 c 0,26,27
 1141 363 1141 363 1008.5 167 c 128,-1,28
 876 -29 876 -29 616 -29 c 0,29,30
 357 -29 357 -29 224.5 167 c 128,-1,31
 92 363 92 363 92 745 c 0,20,21
EndSplineSet
EndChar

StartChar: ohungarumlaut
Encoding: 337 337 279
Width: 1233
Flags: W
LayerCount: 2
Fore
SplineSet
854 1638 m 1,0,-1
 1085 1638 l 1,1,-1
 813 1262 l 1,2,-1
 639 1262 l 1,3,-1
 854 1638 l 1,0,-1
492 1638 m 1,4,-1
 709 1638 l 1,5,-1
 461 1262 l 1,6,-1
 297 1262 l 1,7,-1
 492 1638 l 1,4,-1
616 909 m 0,8,9
 511 909 511 909 451 816.5 c 128,-1,10
 391 724 391 724 391 559 c 256,11,12
 391 394 391 394 451 301.5 c 128,-1,13
 511 209 511 209 616 209 c 0,14,15
 722 209 722 209 782 301.5 c 128,-1,16
 842 394 842 394 842 559 c 256,17,18
 842 724 842 724 782 816.5 c 128,-1,19
 722 909 722 909 616 909 c 0,8,9
98 559 m 256,20,21
 98 830 98 830 238.5 988.5 c 128,-1,22
 379 1147 379 1147 616 1147 c 0,23,24
 854 1147 854 1147 994.5 988.5 c 128,-1,25
 1135 830 1135 830 1135 559 c 256,26,27
 1135 288 1135 288 994.5 129.5 c 128,-1,28
 854 -29 854 -29 616 -29 c 0,29,30
 379 -29 379 -29 238.5 129.5 c 128,-1,31
 98 288 98 288 98 559 c 256,20,21
EndSplineSet
EndChar

StartChar: OE
Encoding: 338 338 280
Width: 1233
Flags: W
LayerCount: 2
Fore
SplineSet
1217 260 m 1,0,-1
 1217 0 l 1,1,-1
 633 0 l 2,2,3
 309 0 309 0 188.5 155.5 c 128,-1,4
 68 311 68 311 68 745 c 0,5,6
 68 1181 68 1181 189 1337 c 128,-1,7
 310 1493 310 1493 633 1493 c 2,8,-1
 1206 1493 l 1,9,-1
 1206 1233 l 1,10,-1
 874 1233 l 1,11,-1
 874 922 l 1,12,-1
 1176 922 l 1,13,-1
 1176 662 l 1,14,-1
 874 662 l 1,15,-1
 874 260 l 1,16,-1
 1217 260 l 1,0,-1
569 1233 m 2,17,18
 446 1233 446 1233 400 1144 c 128,-1,19
 354 1055 354 1055 354 745 c 0,20,21
 354 434 354 434 399.5 347 c 128,-1,22
 445 260 445 260 569 260 c 2,23,-1
 621 260 l 1,24,-1
 621 1233 l 1,25,-1
 569 1233 l 2,17,18
EndSplineSet
EndChar

StartChar: oe
Encoding: 339 339 281
Width: 1233
Flags: W
LayerCount: 2
Fore
SplineSet
1210 479 m 1,0,-1
 760 479 l 1,1,2
 760 335 760 335 809.5 259.5 c 128,-1,3
 859 184 859 184 954 184 c 0,4,5
 1014 184 1014 184 1074 213.5 c 128,-1,6
 1134 243 1134 243 1194 301 c 1,7,-1
 1194 57 l 1,8,9
 1145 13 1145 13 1083 -8 c 128,-1,10
 1021 -29 1021 -29 936 -29 c 0,11,12
 838 -29 838 -29 767 8 c 128,-1,13
 696 45 696 45 649 119 c 1,14,15
 606 42 606 42 539.5 6.5 c 128,-1,16
 473 -29 473 -29 373 -29 c 0,17,18
 183 -29 183 -29 98.5 109 c 128,-1,19
 14 247 14 247 14 559 c 0,20,21
 14 874 14 874 98.5 1010.5 c 128,-1,22
 183 1147 183 1147 373 1147 c 0,23,24
 472 1147 472 1147 534 1117.5 c 128,-1,25
 596 1088 596 1088 637 1022 c 1,26,27
 665 1082 665 1082 730 1114.5 c 128,-1,28
 795 1147 795 1147 887 1147 c 0,29,30
 1064 1147 1064 1147 1137 1028 c 128,-1,31
 1210 909 1210 909 1210 606 c 2,32,-1
 1210 479 l 1,0,-1
985 690 m 1,33,-1
 985 725 l 2,34,35
 985 841 985 841 959.5 887.5 c 128,-1,36
 934 934 934 934 872 934 c 256,37,38
 810 934 810 934 785 886.5 c 128,-1,39
 760 839 760 839 760 713 c 2,40,-1
 760 690 l 1,41,-1
 985 690 l 1,33,-1
520 559 m 0,42,43
 520 801 520 801 491 867.5 c 128,-1,44
 462 934 462 934 385 934 c 0,45,46
 307 934 307 934 277.5 867.5 c 128,-1,47
 248 801 248 801 248 559 c 256,48,49
 248 317 248 317 277.5 250.5 c 128,-1,50
 307 184 307 184 385 184 c 0,51,52
 462 184 462 184 491 251 c 128,-1,53
 520 318 520 318 520 559 c 0,42,43
EndSplineSet
EndChar

StartChar: Racute
Encoding: 340 340 282
Width: 1233
Flags: W
LayerCount: 2
Fore
SplineSet
669 1900 m 1,0,-1
 953 1900 l 1,1,-1
 667 1636 l 1,2,-1
 470 1636 l 1,3,-1
 669 1900 l 1,0,-1
807 705 m 1,4,5
 851 696 851 696 883.5 663.5 c 128,-1,6
 916 631 916 631 963 537 c 2,7,-1
 1233 0 l 1,8,-1
 909 0 l 1,9,-1
 729 377 l 2,10,11
 721 393 721 393 708 421 c 0,12,13
 629 590 629 590 522 590 c 2,14,-1
 428 590 l 1,15,-1
 428 0 l 1,16,-1
 133 0 l 1,17,-1
 133 1493 l 1,18,-1
 559 1493 l 2,19,20
 847 1493 847 1493 972.5 1391 c 128,-1,21
 1098 1289 1098 1289 1098 1059 c 0,22,23
 1098 905 1098 905 1023 814 c 128,-1,24
 948 723 948 723 807 705 c 1,4,5
428 1245 m 1,25,-1
 428 838 l 1,26,-1
 567 838 l 2,27,28
 688 838 688 838 740.5 885.5 c 128,-1,29
 793 933 793 933 793 1042 c 256,30,31
 793 1151 793 1151 741 1198 c 128,-1,32
 689 1245 689 1245 567 1245 c 2,33,-1
 428 1245 l 1,25,-1
EndSplineSet
EndChar

StartChar: Rcommaaccent
Encoding: 342 342 284
Width: 1233
Flags: W
LayerCount: 2
Fore
SplineSet
587 -158 m 1,0,-1
 869 -158 l 1,1,-1
 692 -464 l 1,2,-1
 498 -464 l 1,3,-1
 587 -158 l 1,0,-1
807 705 m 1,4,5
 851 696 851 696 883.5 663.5 c 128,-1,6
 916 631 916 631 963 537 c 2,7,-1
 1233 0 l 1,8,-1
 909 0 l 1,9,-1
 729 377 l 2,10,11
 721 393 721 393 708 421 c 0,12,13
 629 590 629 590 522 590 c 2,14,-1
 428 590 l 1,15,-1
 428 0 l 1,16,-1
 133 0 l 1,17,-1
 133 1493 l 1,18,-1
 559 1493 l 2,19,20
 847 1493 847 1493 972.5 1391 c 128,-1,21
 1098 1289 1098 1289 1098 1059 c 0,22,23
 1098 905 1098 905 1023 814 c 128,-1,24
 948 723 948 723 807 705 c 1,4,5
428 1245 m 1,25,-1
 428 838 l 1,26,-1
 567 838 l 2,27,28
 688 838 688 838 740.5 885.5 c 128,-1,29
 793 933 793 933 793 1042 c 256,30,31
 793 1151 793 1151 741 1198 c 128,-1,32
 689 1245 689 1245 567 1245 c 2,33,-1
 428 1245 l 1,25,-1
EndSplineSet
EndChar

StartChar: rcommaaccent
Encoding: 343 343 285
Width: 1233
Flags: W
LayerCount: 2
Fore
SplineSet
341 -158 m 1,0,-1
 623 -158 l 1,1,-1
 446 -464 l 1,2,-1
 252 -464 l 1,3,-1
 341 -158 l 1,0,-1
1151 811 m 1,4,5
 1103 855 1103 855 1038.5 877 c 128,-1,6
 974 899 974 899 897 899 c 0,7,8
 804 899 804 899 734.5 866.5 c 128,-1,9
 665 834 665 834 627 772 c 0,10,11
 603 734 603 734 593.5 680 c 128,-1,12
 584 626 584 626 584 516 c 2,13,-1
 584 0 l 1,14,-1
 291 0 l 1,15,-1
 291 1120 l 1,16,-1
 584 1120 l 1,17,-1
 584 946 l 1,18,19
 627 1042 627 1042 716 1094.5 c 128,-1,20
 805 1147 805 1147 924 1147 c 0,21,22
 984 1147 984 1147 1041.5 1132.5 c 128,-1,23
 1099 1118 1099 1118 1151 1090 c 1,24,-1
 1151 811 l 1,4,5
EndSplineSet
EndChar

StartChar: Rcaron
Encoding: 344 344 286
Width: 1233
Flags: W
LayerCount: 2
Fore
SplineSet
430 1635 m 1,0,-1
 209 1899 l 1,1,-1
 387 1899 l 1,2,-1
 585 1737 l 1,3,-1
 784 1899 l 1,4,-1
 962 1899 l 1,5,-1
 739 1635 l 1,6,-1
 430 1635 l 1,0,-1
807 705 m 1,7,8
 851 696 851 696 883.5 663.5 c 128,-1,9
 916 631 916 631 963 537 c 2,10,-1
 1233 0 l 1,11,-1
 909 0 l 1,12,-1
 729 377 l 2,13,14
 721 393 721 393 708 421 c 0,15,16
 629 590 629 590 522 590 c 2,17,-1
 428 590 l 1,18,-1
 428 0 l 1,19,-1
 133 0 l 1,20,-1
 133 1493 l 1,21,-1
 559 1493 l 2,22,23
 847 1493 847 1493 972.5 1391 c 128,-1,24
 1098 1289 1098 1289 1098 1059 c 0,25,26
 1098 905 1098 905 1023 814 c 128,-1,27
 948 723 948 723 807 705 c 1,7,8
428 1245 m 1,28,-1
 428 838 l 1,29,-1
 567 838 l 2,30,31
 688 838 688 838 740.5 885.5 c 128,-1,32
 793 933 793 933 793 1042 c 256,33,34
 793 1151 793 1151 741 1198 c 128,-1,35
 689 1245 689 1245 567 1245 c 2,36,-1
 428 1245 l 1,28,-1
EndSplineSet
EndChar

StartChar: Sacute
Encoding: 346 346 288
Width: 1233
Flags: W
LayerCount: 2
Fore
SplineSet
699 1900 m 1,0,-1
 983 1900 l 1,1,-1
 697 1636 l 1,2,-1
 500 1636 l 1,3,-1
 699 1900 l 1,0,-1
510 655 m 2,4,5
 287 740 287 740 208 833.5 c 128,-1,6
 129 927 129 927 129 1085 c 0,7,8
 129 1288 129 1288 259 1404 c 128,-1,9
 389 1520 389 1520 616 1520 c 0,10,11
 719 1520 719 1520 822 1496.5 c 128,-1,12
 925 1473 925 1473 1026 1427 c 1,13,-1
 1026 1139 l 1,14,15
 931 1206 931 1206 833 1241 c 128,-1,16
 735 1276 735 1276 639 1276 c 0,17,18
 532 1276 532 1276 475 1233 c 128,-1,19
 418 1190 418 1190 418 1110 c 0,20,21
 418 1048 418 1048 459.5 1007.5 c 128,-1,22
 501 967 501 967 633 918 c 2,23,-1
 760 870 l 1,24,25
 940 804 940 804 1025 695 c 128,-1,26
 1110 586 1110 586 1110 420 c 0,27,28
 1110 194 1110 194 976.5 82.5 c 128,-1,29
 843 -29 843 -29 573 -29 c 0,30,31
 462 -29 462 -29 350.5 -2.5 c 128,-1,32
 239 24 239 24 135 76 c 1,33,-1
 135 381 l 1,34,35
 253 297 253 297 363.5 256 c 128,-1,36
 474 215 474 215 582 215 c 0,37,38
 691 215 691 215 751 264.5 c 128,-1,39
 811 314 811 314 811 403 c 0,40,41
 811 470 811 470 771 520.5 c 128,-1,42
 731 571 731 571 655 600 c 2,43,-1
 510 655 l 2,4,5
EndSplineSet
EndChar

StartChar: Scircumflex
Encoding: 348 348 290
Width: 1233
Flags: W
LayerCount: 2
Fore
SplineSet
461 1899 m 1,0,-1
 770 1899 l 1,1,-1
 993 1635 l 1,2,-1
 815 1635 l 1,3,-1
 616 1796 l 1,4,-1
 418 1635 l 1,5,-1
 240 1635 l 1,6,-1
 461 1899 l 1,0,-1
510 655 m 2,7,8
 287 740 287 740 208 833.5 c 128,-1,9
 129 927 129 927 129 1085 c 0,10,11
 129 1288 129 1288 259 1404 c 128,-1,12
 389 1520 389 1520 616 1520 c 0,13,14
 719 1520 719 1520 822 1496.5 c 128,-1,15
 925 1473 925 1473 1026 1427 c 1,16,-1
 1026 1139 l 1,17,18
 931 1206 931 1206 833 1241 c 128,-1,19
 735 1276 735 1276 639 1276 c 0,20,21
 532 1276 532 1276 475 1233 c 128,-1,22
 418 1190 418 1190 418 1110 c 0,23,24
 418 1048 418 1048 459.5 1007.5 c 128,-1,25
 501 967 501 967 633 918 c 2,26,-1
 760 870 l 1,27,28
 940 804 940 804 1025 695 c 128,-1,29
 1110 586 1110 586 1110 420 c 0,30,31
 1110 194 1110 194 976.5 82.5 c 128,-1,32
 843 -29 843 -29 573 -29 c 0,33,34
 462 -29 462 -29 350.5 -2.5 c 128,-1,35
 239 24 239 24 135 76 c 1,36,-1
 135 381 l 1,37,38
 253 297 253 297 363.5 256 c 128,-1,39
 474 215 474 215 582 215 c 0,40,41
 691 215 691 215 751 264.5 c 128,-1,42
 811 314 811 314 811 403 c 0,43,44
 811 470 811 470 771 520.5 c 128,-1,45
 731 571 731 571 655 600 c 2,46,-1
 510 655 l 2,7,8
EndSplineSet
EndChar

StartChar: Scedilla
Encoding: 350 350 292
Width: 1233
Flags: W
LayerCount: 2
Fore
SplineSet
707 0 m 1,0,1
 764 -62 764 -62 791.5 -115 c 128,-1,2
 819 -168 819 -168 819 -215 c 0,3,4
 819 -310 819 -310 757.5 -355.5 c 128,-1,5
 696 -401 696 -401 569 -401 c 0,6,7
 521 -401 521 -401 470.5 -394.5 c 128,-1,8
 420 -388 420 -388 367 -375 c 1,9,-1
 367 -219 l 1,10,11
 412 -236 412 -236 454 -245 c 128,-1,12
 496 -254 496 -254 532 -254 c 0,13,14
 590 -254 590 -254 622.5 -231 c 128,-1,15
 655 -208 655 -208 655 -168 c 0,16,17
 655 -142 655 -142 634 -101 c 128,-1,18
 613 -60 613 -60 567 0 c 1,19,-1
 707 0 l 1,0,1
510 655 m 2,20,21
 287 740 287 740 208 833.5 c 128,-1,22
 129 927 129 927 129 1085 c 0,23,24
 129 1288 129 1288 259 1404 c 128,-1,25
 389 1520 389 1520 616 1520 c 0,26,27
 719 1520 719 1520 822 1496.5 c 128,-1,28
 925 1473 925 1473 1026 1427 c 1,29,-1
 1026 1139 l 1,30,31
 931 1206 931 1206 833 1241 c 128,-1,32
 735 1276 735 1276 639 1276 c 0,33,34
 532 1276 532 1276 475 1233 c 128,-1,35
 418 1190 418 1190 418 1110 c 0,36,37
 418 1048 418 1048 459.5 1007.5 c 128,-1,38
 501 967 501 967 633 918 c 2,39,-1
 760 870 l 1,40,41
 940 804 940 804 1025 695 c 128,-1,42
 1110 586 1110 586 1110 420 c 0,43,44
 1110 194 1110 194 976.5 82.5 c 128,-1,45
 843 -29 843 -29 573 -29 c 0,46,47
 462 -29 462 -29 350.5 -2.5 c 128,-1,48
 239 24 239 24 135 76 c 1,49,-1
 135 381 l 1,50,51
 253 297 253 297 363.5 256 c 128,-1,52
 474 215 474 215 582 215 c 0,53,54
 691 215 691 215 751 264.5 c 128,-1,55
 811 314 811 314 811 403 c 0,56,57
 811 470 811 470 771 520.5 c 128,-1,58
 731 571 731 571 655 600 c 2,59,-1
 510 655 l 2,20,21
EndSplineSet
EndChar

StartChar: scedilla
Encoding: 351 351 293
Width: 1233
Flags: W
LayerCount: 2
Fore
SplineSet
707 0 m 1,0,1
 764 -62 764 -62 791.5 -115 c 128,-1,2
 819 -168 819 -168 819 -215 c 0,3,4
 819 -310 819 -310 757.5 -355.5 c 128,-1,5
 696 -401 696 -401 569 -401 c 0,6,7
 521 -401 521 -401 470.5 -394.5 c 128,-1,8
 420 -388 420 -388 367 -375 c 1,9,-1
 367 -219 l 1,10,11
 412 -236 412 -236 454 -245 c 128,-1,12
 496 -254 496 -254 532 -254 c 0,13,14
 590 -254 590 -254 622.5 -231 c 128,-1,15
 655 -208 655 -208 655 -168 c 0,16,17
 655 -142 655 -142 634 -101 c 128,-1,18
 613 -60 613 -60 567 0 c 1,19,-1
 707 0 l 1,0,1
991 1085 m 1,20,-1
 991 829 l 1,21,22
 910 881 910 881 822.5 907.5 c 128,-1,23
 735 934 735 934 647 934 c 0,24,25
 549 934 549 934 499 905.5 c 128,-1,26
 449 877 449 877 449 821 c 0,27,28
 449 741 449 741 663 691 c 1,29,-1
 674 688 l 1,30,-1
 758 668 l 2,31,32
 918 630 918 630 992.5 545.5 c 128,-1,33
 1067 461 1067 461 1067 317 c 0,34,35
 1067 144 1067 144 953.5 57.5 c 128,-1,36
 840 -29 840 -29 612 -29 c 0,37,38
 511 -29 511 -29 405 -11.5 c 128,-1,39
 299 6 299 6 190 41 c 1,40,-1
 190 297 l 1,41,42
 287 242 287 242 387.5 213 c 128,-1,43
 488 184 488 184 582 184 c 0,44,45
 685 184 685 184 738 214 c 128,-1,46
 791 244 791 244 791 301 c 0,47,48
 791 357 791 357 753.5 387 c 128,-1,49
 716 417 716 417 575 451 c 1,50,-1
 494 469 l 2,51,52
 326 507 326 507 249 588 c 128,-1,53
 172 669 172 669 172 805 c 0,54,55
 172 967 172 967 289 1057 c 128,-1,56
 406 1147 406 1147 618 1147 c 0,57,58
 713 1147 713 1147 807.5 1131.5 c 128,-1,59
 902 1116 902 1116 991 1085 c 1,20,-1
EndSplineSet
EndChar

StartChar: Scaron
Encoding: 352 352 294
Width: 1233
Flags: W
LayerCount: 2
Fore
SplineSet
461 1635 m 1,0,-1
 240 1899 l 1,1,-1
 418 1899 l 1,2,-1
 616 1737 l 1,3,-1
 815 1899 l 1,4,-1
 993 1899 l 1,5,-1
 770 1635 l 1,6,-1
 461 1635 l 1,0,-1
510 655 m 2,7,8
 287 740 287 740 208 833.5 c 128,-1,9
 129 927 129 927 129 1085 c 0,10,11
 129 1288 129 1288 259 1404 c 128,-1,12
 389 1520 389 1520 616 1520 c 0,13,14
 719 1520 719 1520 822 1496.5 c 128,-1,15
 925 1473 925 1473 1026 1427 c 1,16,-1
 1026 1139 l 1,17,18
 931 1206 931 1206 833 1241 c 128,-1,19
 735 1276 735 1276 639 1276 c 0,20,21
 532 1276 532 1276 475 1233 c 128,-1,22
 418 1190 418 1190 418 1110 c 0,23,24
 418 1048 418 1048 459.5 1007.5 c 128,-1,25
 501 967 501 967 633 918 c 2,26,-1
 760 870 l 1,27,28
 940 804 940 804 1025 695 c 128,-1,29
 1110 586 1110 586 1110 420 c 0,30,31
 1110 194 1110 194 976.5 82.5 c 128,-1,32
 843 -29 843 -29 573 -29 c 0,33,34
 462 -29 462 -29 350.5 -2.5 c 128,-1,35
 239 24 239 24 135 76 c 1,36,-1
 135 381 l 1,37,38
 253 297 253 297 363.5 256 c 128,-1,39
 474 215 474 215 582 215 c 0,40,41
 691 215 691 215 751 264.5 c 128,-1,42
 811 314 811 314 811 403 c 0,43,44
 811 470 811 470 771 520.5 c 128,-1,45
 731 571 731 571 655 600 c 2,46,-1
 510 655 l 2,7,8
EndSplineSet
EndChar

StartChar: Tcommaaccent
Encoding: 354 354 296
Width: 1233
Flags: W
LayerCount: 2
Fore
SplineSet
707 0 m 1,0,1
 764 -62 764 -62 791.5 -115 c 128,-1,2
 819 -168 819 -168 819 -215 c 0,3,4
 819 -310 819 -310 757.5 -355.5 c 128,-1,5
 696 -401 696 -401 569 -401 c 0,6,7
 521 -401 521 -401 470.5 -394.5 c 128,-1,8
 420 -388 420 -388 367 -375 c 1,9,-1
 367 -219 l 1,10,11
 412 -236 412 -236 454 -245 c 128,-1,12
 496 -254 496 -254 532 -254 c 0,13,14
 590 -254 590 -254 622.5 -231 c 128,-1,15
 655 -208 655 -208 655 -168 c 0,16,17
 655 -142 655 -142 634 -101 c 128,-1,18
 613 -60 613 -60 567 0 c 1,19,-1
 707 0 l 1,0,1
764 0 m 1,20,-1
 469 0 l 1,21,-1
 469 1235 l 1,22,-1
 90 1235 l 1,23,-1
 90 1493 l 1,24,-1
 1143 1493 l 1,25,-1
 1143 1235 l 1,26,-1
 764 1235 l 1,27,-1
 764 0 l 1,20,-1
EndSplineSet
EndChar

StartChar: tcommaaccent
Encoding: 355 355 297
Width: 1233
Flags: W
LayerCount: 2
Fore
SplineSet
888 0 m 1,0,1
 945 -62 945 -62 972.5 -115 c 128,-1,2
 1000 -168 1000 -168 1000 -215 c 0,3,4
 1000 -310 1000 -310 938.5 -355.5 c 128,-1,5
 877 -401 877 -401 750 -401 c 0,6,7
 702 -401 702 -401 651.5 -394.5 c 128,-1,8
 601 -388 601 -388 548 -375 c 1,9,-1
 548 -219 l 1,10,11
 593 -236 593 -236 635 -245 c 128,-1,12
 677 -254 677 -254 713 -254 c 0,13,14
 771 -254 771 -254 803.5 -231 c 128,-1,15
 836 -208 836 -208 836 -168 c 0,16,17
 836 -142 836 -142 815 -101 c 128,-1,18
 794 -60 794 -60 748 0 c 1,19,-1
 888 0 l 1,0,1
690 1438 m 1,20,-1
 690 1120 l 1,21,-1
 1073 1120 l 1,22,-1
 1073 895 l 1,23,-1
 690 895 l 1,24,-1
 690 365 l 2,25,26
 690 290 690 290 726.5 257.5 c 128,-1,27
 763 225 763 225 848 225 c 2,28,-1
 1073 225 l 1,29,-1
 1073 0 l 1,30,-1
 827 0 l 2,31,32
 575 0 575 0 486 80.5 c 128,-1,33
 397 161 397 161 397 379 c 2,34,-1
 397 895 l 1,35,-1
 111 895 l 1,36,-1
 111 1120 l 1,37,-1
 397 1120 l 1,38,-1
 397 1438 l 1,39,-1
 690 1438 l 1,20,-1
EndSplineSet
EndChar

StartChar: Tcaron
Encoding: 356 356 298
Width: 1233
Flags: W
LayerCount: 2
Fore
SplineSet
454 1647 m 1,0,-1
 233 1911 l 1,1,-1
 411 1911 l 1,2,-1
 609 1749 l 1,3,-1
 808 1911 l 1,4,-1
 986 1911 l 1,5,-1
 763 1647 l 1,6,-1
 454 1647 l 1,0,-1
764 0 m 1,7,-1
 469 0 l 1,8,-1
 469 1235 l 1,9,-1
 90 1235 l 1,10,-1
 90 1493 l 1,11,-1
 1143 1493 l 1,12,-1
 1143 1235 l 1,13,-1
 764 1235 l 1,14,-1
 764 0 l 1,7,-1
EndSplineSet
EndChar

StartChar: tcaron
Encoding: 357 357 299
Width: 1233
Flags: W
LayerCount: 2
Fore
SplineSet
909 1687 m 1,0,-1
 1191 1687 l 1,1,-1
 1030 1311 l 1,2,-1
 833 1311 l 1,3,-1
 909 1687 l 1,0,-1
690 1438 m 1,4,-1
 690 1120 l 1,5,-1
 1073 1120 l 1,6,-1
 1073 895 l 1,7,-1
 690 895 l 1,8,-1
 690 365 l 2,9,10
 690 290 690 290 726.5 257.5 c 128,-1,11
 763 225 763 225 848 225 c 2,12,-1
 1073 225 l 1,13,-1
 1073 0 l 1,14,-1
 827 0 l 2,15,16
 575 0 575 0 486 80.5 c 128,-1,17
 397 161 397 161 397 379 c 2,18,-1
 397 895 l 1,19,-1
 111 895 l 1,20,-1
 111 1120 l 1,21,-1
 397 1120 l 1,22,-1
 397 1438 l 1,23,-1
 690 1438 l 1,4,-1
EndSplineSet
EndChar

StartChar: Tbar
Encoding: 358 358 300
Width: 1233
Flags: W
LayerCount: 2
Fore
SplineSet
764 0 m 1,0,-1
 469 0 l 1,1,-1
 469 538 l 1,2,-1
 222 538 l 1,3,-1
 222 730 l 1,4,-1
 469 730 l 1,5,-1
 469 1235 l 1,6,-1
 90 1235 l 1,7,-1
 90 1493 l 1,8,-1
 1143 1493 l 1,9,-1
 1143 1235 l 1,10,-1
 764 1235 l 1,11,-1
 764 730 l 1,12,-1
 1011 730 l 1,13,-1
 1011 538 l 1,14,-1
 764 538 l 1,15,-1
 764 0 l 1,0,-1
EndSplineSet
EndChar

StartChar: tbar
Encoding: 359 359 301
Width: 1233
Flags: W
LayerCount: 2
Fore
SplineSet
690 1438 m 1,0,-1
 690 1120 l 1,1,-1
 1073 1120 l 1,2,-1
 1073 895 l 1,3,-1
 690 895 l 1,4,-1
 690 753 l 1,5,-1
 874 753 l 1,6,-1
 874 561 l 1,7,-1
 690 561 l 1,8,-1
 690 365 l 2,9,10
 690 290 690 290 726 258 c 0,11,12
 763 225 763 225 848 225 c 2,13,-1
 1073 225 l 1,14,-1
 1073 0 l 1,15,-1
 827 0 l 2,16,17
 575 0 575 0 486 80 c 0,18,19
 397 161 397 161 397 379 c 2,20,-1
 397 561 l 1,21,-1
 219 561 l 1,22,-1
 219 753 l 1,23,-1
 397 753 l 1,24,-1
 397 895 l 1,25,-1
 111 895 l 1,26,-1
 111 1120 l 1,27,-1
 397 1120 l 1,28,-1
 397 1438 l 1,29,-1
 690 1438 l 1,0,-1
EndSplineSet
EndChar

StartChar: Utilde
Encoding: 360 360 302
Width: 1233
Flags: W
LayerCount: 2
Fore
SplineSet
618 1684 m 2,0,-1
 564 1718 l 2,1,2
 559 1721 559 1721 552 1725 c 0,3,4
 507 1751 507 1751 479 1751 c 0,5,6
 448 1751 448 1751 428 1721 c 128,-1,7
 408 1691 408 1691 408 1641 c 2,8,-1
 408 1635 l 1,9,-1
 268 1635 l 1,10,-1
 268 1665 l 2,11,12
 268 1771 268 1771 322.5 1836 c 128,-1,13
 377 1901 377 1901 465 1901 c 0,14,15
 501 1901 501 1901 538.5 1888.5 c 128,-1,16
 576 1876 576 1876 614 1852 c 2,17,-1
 674 1813 l 2,18,19
 695 1799 695 1799 714.5 1791.5 c 128,-1,20
 734 1784 734 1784 750 1784 c 0,21,22
 786 1784 786 1784 805.5 1814 c 128,-1,23
 825 1844 825 1844 825 1901 c 1,24,-1
 965 1901 l 1,25,26
 965 1896 965 1896 964 1886 c 128,-1,27
 963 1876 963 1876 963 1870 c 0,28,29
 963 1764 963 1764 909.5 1699.5 c 128,-1,30
 856 1635 856 1635 768 1635 c 0,31,32
 731 1635 731 1635 695.5 1646 c 128,-1,33
 660 1657 660 1657 618 1684 c 2,0,-1
106 551 m 2,34,-1
 106 1493 l 1,35,-1
 401 1493 l 1,36,-1
 401 477 l 2,37,38
 401 365 401 365 458 301.5 c 128,-1,39
 515 238 515 238 616 238 c 256,40,41
 717 238 717 238 774 301.5 c 128,-1,42
 831 365 831 365 831 477 c 2,43,-1
 831 1493 l 1,44,-1
 1126 1493 l 1,45,-1
 1126 551 l 2,46,47
 1126 247 1126 247 1005 109 c 128,-1,48
 884 -29 884 -29 616 -29 c 0,49,50
 349 -29 349 -29 227.5 109 c 128,-1,51
 106 247 106 247 106 551 c 2,34,-1
EndSplineSet
EndChar

StartChar: Umacron
Encoding: 362 362 304
Width: 1233
Flags: W
LayerCount: 2
Fore
SplineSet
301 1870 m 1,0,-1
 932 1870 l 1,1,-1
 932 1682 l 1,2,-1
 301 1682 l 1,3,-1
 301 1870 l 1,0,-1
106 551 m 2,4,-1
 106 1493 l 1,5,-1
 401 1493 l 1,6,-1
 401 477 l 2,7,8
 401 365 401 365 458 301.5 c 128,-1,9
 515 238 515 238 616 238 c 256,10,11
 717 238 717 238 774 301.5 c 128,-1,12
 831 365 831 365 831 477 c 2,13,-1
 831 1493 l 1,14,-1
 1126 1493 l 1,15,-1
 1126 551 l 2,16,17
 1126 247 1126 247 1005 109 c 128,-1,18
 884 -29 884 -29 616 -29 c 0,19,20
 349 -29 349 -29 227.5 109 c 128,-1,21
 106 247 106 247 106 551 c 2,4,-1
EndSplineSet
EndChar

StartChar: umacron
Encoding: 363 363 305
Width: 1233
Flags: W
LayerCount: 2
Fore
SplineSet
301 1556 m 1,0,-1
 932 1556 l 1,1,-1
 932 1368 l 1,2,-1
 301 1368 l 1,3,-1
 301 1556 l 1,0,-1
160 391 m 2,4,-1
 160 1120 l 1,5,-1
 453 1120 l 1,6,-1
 453 436 l 2,7,8
 453 315 453 315 487 263 c 128,-1,9
 521 211 521 211 600 211 c 256,10,11
 679 211 679 211 723.5 281 c 128,-1,12
 768 351 768 351 768 477 c 2,13,-1
 768 1120 l 1,14,-1
 1061 1120 l 1,15,-1
 1061 0 l 1,16,-1
 768 0 l 1,17,-1
 768 166 l 1,18,19
 737 73 737 73 662.5 22 c 128,-1,20
 588 -29 588 -29 483 -29 c 0,21,22
 323 -29 323 -29 241.5 77 c 128,-1,23
 160 183 160 183 160 391 c 2,4,-1
EndSplineSet
EndChar

StartChar: Ubreve
Encoding: 364 364 306
Width: 1233
Flags: W
LayerCount: 2
Fore
SplineSet
281 1899 m 1,0,-1
 422 1899 l 1,1,2
 442 1839 442 1839 491 1808.5 c 128,-1,3
 540 1778 540 1778 616 1778 c 0,4,5
 693 1778 693 1778 741 1808 c 128,-1,6
 789 1838 789 1838 809 1899 c 1,7,-1
 952 1899 l 1,8,9
 937 1770 937 1770 850.5 1702.5 c 128,-1,10
 764 1635 764 1635 616 1635 c 0,11,12
 469 1635 469 1635 382.5 1702.5 c 128,-1,13
 296 1770 296 1770 281 1899 c 1,0,-1
106 551 m 2,14,-1
 106 1493 l 1,15,-1
 401 1493 l 1,16,-1
 401 477 l 2,17,18
 401 365 401 365 458 301.5 c 128,-1,19
 515 238 515 238 616 238 c 256,20,21
 717 238 717 238 774 301.5 c 128,-1,22
 831 365 831 365 831 477 c 2,23,-1
 831 1493 l 1,24,-1
 1126 1493 l 1,25,-1
 1126 551 l 2,26,27
 1126 247 1126 247 1005 109 c 128,-1,28
 884 -29 884 -29 616 -29 c 0,29,30
 349 -29 349 -29 227.5 109 c 128,-1,31
 106 247 106 247 106 551 c 2,14,-1
EndSplineSet
EndChar

StartChar: ubreve
Encoding: 365 365 307
Width: 1233
Flags: W
LayerCount: 2
Fore
SplineSet
281 1606 m 1,0,-1
 422 1606 l 1,1,2
 433 1537 433 1537 483 1499.5 c 128,-1,3
 533 1462 533 1462 616 1462 c 256,4,5
 699 1462 699 1462 748.5 1499 c 128,-1,6
 798 1536 798 1536 809 1606 c 1,7,-1
 952 1606 l 1,8,9
 946 1462 946 1462 859.5 1385.5 c 128,-1,10
 773 1309 773 1309 616 1309 c 0,11,12
 460 1309 460 1309 373.5 1385.5 c 128,-1,13
 287 1462 287 1462 281 1606 c 1,0,-1
160 391 m 2,14,-1
 160 1120 l 1,15,-1
 453 1120 l 1,16,-1
 453 436 l 2,17,18
 453 315 453 315 487 263 c 128,-1,19
 521 211 521 211 600 211 c 256,20,21
 679 211 679 211 723.5 281 c 128,-1,22
 768 351 768 351 768 477 c 2,23,-1
 768 1120 l 1,24,-1
 1061 1120 l 1,25,-1
 1061 0 l 1,26,-1
 768 0 l 1,27,-1
 768 166 l 1,28,29
 737 73 737 73 662.5 22 c 128,-1,30
 588 -29 588 -29 483 -29 c 0,31,32
 323 -29 323 -29 241.5 77 c 128,-1,33
 160 183 160 183 160 391 c 2,14,-1
EndSplineSet
EndChar

StartChar: Uhungarumlaut
Encoding: 368 368 310
Width: 1233
Flags: W
LayerCount: 2
Fore
SplineSet
838 1899 m 1,0,-1
 1122 1899 l 1,1,-1
 836 1635 l 1,2,-1
 639 1635 l 1,3,-1
 838 1899 l 1,0,-1
463 1899 m 1,4,-1
 747 1899 l 1,5,-1
 461 1635 l 1,6,-1
 264 1635 l 1,7,-1
 463 1899 l 1,4,-1
106 551 m 2,8,-1
 106 1493 l 1,9,-1
 401 1493 l 1,10,-1
 401 477 l 2,11,12
 401 365 401 365 458 301.5 c 128,-1,13
 515 238 515 238 616 238 c 256,14,15
 717 238 717 238 774 301.5 c 128,-1,16
 831 365 831 365 831 477 c 2,17,-1
 831 1493 l 1,18,-1
 1126 1493 l 1,19,-1
 1126 551 l 2,20,21
 1126 247 1126 247 1005 109 c 128,-1,22
 884 -29 884 -29 616 -29 c 0,23,24
 349 -29 349 -29 227.5 109 c 128,-1,25
 106 247 106 247 106 551 c 2,8,-1
EndSplineSet
EndChar

StartChar: uhungarumlaut
Encoding: 369 369 311
Width: 1233
Flags: W
LayerCount: 2
Fore
SplineSet
854 1638 m 1,0,-1
 1085 1638 l 1,1,-1
 813 1262 l 1,2,-1
 639 1262 l 1,3,-1
 854 1638 l 1,0,-1
492 1638 m 1,4,-1
 709 1638 l 1,5,-1
 461 1262 l 1,6,-1
 297 1262 l 1,7,-1
 492 1638 l 1,4,-1
160 391 m 2,8,-1
 160 1120 l 1,9,-1
 453 1120 l 1,10,-1
 453 436 l 2,11,12
 453 315 453 315 487 263 c 128,-1,13
 521 211 521 211 600 211 c 256,14,15
 679 211 679 211 723.5 281 c 128,-1,16
 768 351 768 351 768 477 c 2,17,-1
 768 1120 l 1,18,-1
 1061 1120 l 1,19,-1
 1061 0 l 1,20,-1
 768 0 l 1,21,-1
 768 166 l 1,22,23
 737 73 737 73 662.5 22 c 128,-1,24
 588 -29 588 -29 483 -29 c 0,25,26
 323 -29 323 -29 241.5 77 c 128,-1,27
 160 183 160 183 160 391 c 2,8,-1
EndSplineSet
EndChar

StartChar: Wcircumflex
Encoding: 372 372 314
Width: 1233
Flags: W
LayerCount: 2
Fore
SplineSet
461 1906 m 1,0,-1
 770 1906 l 1,1,-1
 993 1642 l 1,2,-1
 815 1642 l 1,3,-1
 616 1803 l 1,4,-1
 418 1642 l 1,5,-1
 240 1642 l 1,6,-1
 461 1906 l 1,0,-1
0 1493 m 1,7,-1
 258 1493 l 1,8,-1
 365 397 l 1,9,-1
 494 1106 l 1,10,-1
 739 1106 l 1,11,-1
 889 397 l 1,12,-1
 973 1493 l 1,13,-1
 1233 1493 l 1,14,-1
 1061 0 l 1,15,-1
 786 0 l 1,16,-1
 616 784 l 1,17,-1
 457 0 l 1,18,-1
 184 0 l 1,19,-1
 0 1493 l 1,7,-1
EndSplineSet
EndChar

StartChar: Ycircumflex
Encoding: 374 374 316
Width: 1233
Flags: W
LayerCount: 2
Fore
SplineSet
461 1906 m 1,0,-1
 770 1906 l 1,1,-1
 993 1642 l 1,2,-1
 815 1642 l 1,3,-1
 616 1803 l 1,4,-1
 418 1642 l 1,5,-1
 240 1642 l 1,6,-1
 461 1906 l 1,0,-1
8 1493 m 1,7,-1
 326 1493 l 1,8,-1
 616 893 l 1,9,-1
 907 1493 l 1,10,-1
 1225 1493 l 1,11,-1
 764 588 l 1,12,-1
 764 0 l 1,13,-1
 469 0 l 1,14,-1
 469 588 l 1,15,-1
 8 1493 l 1,7,-1
EndSplineSet
EndChar

StartChar: Ydieresis
Encoding: 376 376 318
Width: 1233
Flags: W
LayerCount: 2
Fore
SplineSet
696 1899 m 1,0,-1
 932 1899 l 1,1,-1
 932 1653 l 1,2,-1
 696 1653 l 1,3,-1
 696 1899 l 1,0,-1
301 1899 m 1,4,-1
 537 1899 l 1,5,-1
 537 1653 l 1,6,-1
 301 1653 l 1,7,-1
 301 1899 l 1,4,-1
8 1493 m 1,8,-1
 326 1493 l 1,9,-1
 616 893 l 1,10,-1
 907 1493 l 1,11,-1
 1225 1493 l 1,12,-1
 764 588 l 1,13,-1
 764 0 l 1,14,-1
 469 0 l 1,15,-1
 469 588 l 1,16,-1
 8 1493 l 1,8,-1
EndSplineSet
EndChar

StartChar: Zacute
Encoding: 377 377 319
Width: 1233
Flags: W
LayerCount: 2
Fore
SplineSet
699 1900 m 1,0,-1
 983 1900 l 1,1,-1
 697 1636 l 1,2,-1
 500 1636 l 1,3,-1
 699 1900 l 1,0,-1
137 1493 m 1,4,-1
 1147 1493 l 1,5,-1
 1147 1249 l 1,6,-1
 455 260 l 1,7,-1
 1161 260 l 1,8,-1
 1161 0 l 1,9,-1
 115 0 l 1,10,-1
 115 244 l 1,11,-1
 786 1233 l 1,12,-1
 137 1233 l 1,13,-1
 137 1493 l 1,4,-1
EndSplineSet
EndChar

StartChar: Zdotaccent
Encoding: 379 379 321
Width: 1233
Flags: W
LayerCount: 2
Fore
SplineSet
529 1899 m 1,0,-1
 804 1899 l 1,1,-1
 804 1653 l 1,2,-1
 529 1653 l 1,3,-1
 529 1899 l 1,0,-1
137 1493 m 1,4,-1
 1147 1493 l 1,5,-1
 1147 1249 l 1,6,-1
 455 260 l 1,7,-1
 1161 260 l 1,8,-1
 1161 0 l 1,9,-1
 115 0 l 1,10,-1
 115 244 l 1,11,-1
 786 1233 l 1,12,-1
 137 1233 l 1,13,-1
 137 1493 l 1,4,-1
EndSplineSet
EndChar

StartChar: zdotaccent
Encoding: 380 380 322
Width: 1233
Flags: W
LayerCount: 2
Fore
SplineSet
479 1585 m 1,0,-1
 754 1585 l 1,1,-1
 754 1339 l 1,2,-1
 479 1339 l 1,3,-1
 479 1585 l 1,0,-1
186 1120 m 1,4,-1
 1081 1120 l 1,5,-1
 1081 891 l 1,6,-1
 492 219 l 1,7,-1
 1081 219 l 1,8,-1
 1081 0 l 1,9,-1
 162 0 l 1,10,-1
 162 229 l 1,11,-1
 752 901 l 1,12,-1
 186 901 l 1,13,-1
 186 1120 l 1,4,-1
EndSplineSet
EndChar

StartChar: Zcaron
Encoding: 381 381 323
Width: 1233
Flags: W
LayerCount: 2
Fore
SplineSet
461 1635 m 1,0,-1
 240 1899 l 1,1,-1
 418 1899 l 1,2,-1
 616 1737 l 1,3,-1
 815 1899 l 1,4,-1
 993 1899 l 1,5,-1
 770 1635 l 1,6,-1
 461 1635 l 1,0,-1
137 1493 m 1,7,-1
 1147 1493 l 1,8,-1
 1147 1249 l 1,9,-1
 455 260 l 1,10,-1
 1161 260 l 1,11,-1
 1161 0 l 1,12,-1
 115 0 l 1,13,-1
 115 244 l 1,14,-1
 786 1233 l 1,15,-1
 137 1233 l 1,16,-1
 137 1493 l 1,7,-1
EndSplineSet
EndChar

StartChar: longs
Encoding: 383 383 325
Width: 1233
Flags: W
LayerCount: 2
Fore
SplineSet
739 0 m 1,0,-1
 446 0 l 1,1,-1
 446 895 l 1,2,-1
 174 895 l 1,3,-1
 174 1120 l 1,4,-1
 446 1120 l 1,5,-1
 446 1198 l 2,6,7
 446 1400 446 1400 530 1478 c 128,-1,8
 614 1556 614 1556 842 1556 c 2,9,-1
 1083 1556 l 1,10,-1
 1083 1331 l 1,11,-1
 854 1331 l 2,12,13
 788 1331 788 1331 764.5 1307 c 128,-1,14
 741 1283 741 1283 739 1218 c 1,15,-1
 739 0 l 1,0,-1
EndSplineSet
EndChar

StartChar: uni0180
Encoding: 384 384 326
Width: 1233
Flags: W
LayerCount: 2
Fore
SplineSet
442 961 m 1,0,1
 496 1054 496 1054 567.5 1100.5 c 128,-1,2
 639 1147 639 1147 729 1147 c 0,3,4
 928 1147 928 1147 1035.5 995 c 128,-1,5
 1143 843 1143 843 1143 559 c 0,6,7
 1143 279 1143 279 1037 125 c 128,-1,8
 931 -29 931 -29 739 -29 c 0,9,10
 638 -29 638 -29 563 20 c 128,-1,11
 488 69 488 69 442 166 c 1,12,-1
 442 0 l 1,13,-1
 150 0 l 1,14,-1
 150 1270 l 1,15,-1
 12 1270 l 1,16,-1
 12 1434 l 1,17,-1
 150 1434 l 1,18,-1
 150 1556 l 1,19,-1
 442 1556 l 1,20,-1
 442 1434 l 1,21,-1
 740 1434 l 1,22,-1
 740 1270 l 1,23,-1
 442 1270 l 1,24,-1
 442 961 l 1,0,1
850 557 m 128,-1,26
 850 719 850 719 796 811 c 128,-1,27
 742 903 742 903 647 903 c 128,-1,28
 552 903 552 903 497 811 c 128,-1,29
 442 719 442 719 442 557 c 128,-1,30
 442 395 442 395 497 303 c 128,-1,31
 552 211 552 211 647 211 c 128,-1,32
 742 211 742 211 796 303 c 128,-1,25
 850 395 850 395 850 557 c 128,-1,26
EndSplineSet
EndChar

StartChar: uni0181
Encoding: 385 385 327
Width: 1233
Flags: W
LayerCount: 2
Fore
SplineSet
626 678 m 1,0,-1
 626 236 l 1,1,-1
 671 236 l 2,2,3
 812 236 812 236 868.5 284 c 128,-1,4
 925 332 925 332 925 451 c 0,5,6
 925 572 925 572 866 625 c 128,-1,7
 807 678 807 678 671 678 c 2,8,-1
 626 678 l 1,0,-1
626 1260 m 1,9,-1
 626 913 l 1,10,-1
 671 913 l 2,11,12
 783 913 783 913 830.5 953 c 128,-1,13
 878 993 878 993 878 1085 c 128,-1,14
 878 1177 878 1177 829.5 1218.5 c 128,-1,15
 781 1260 781 1260 671 1260 c 2,16,-1
 626 1260 l 1,9,-1
396 1495 m 2,17,-1
 671 1495 l 2,18,19
 920 1495 920 1495 1045.5 1400.5 c 128,-1,20
 1171 1306 1171 1306 1171 1118 c 0,21,22
 1171 974 1171 974 1097 893 c 128,-1,23
 1023 812 1023 812 880 799 c 1,24,25
 1051 782 1051 782 1137.5 684 c 128,-1,26
 1224 586 1224 586 1224 410 c 0,27,28
 1224 194 1224 194 1094 97 c 128,-1,29
 964 0 964 0 671 0 c 2,30,-1
 341 0 l 1,31,-1
 341 1216 l 1,32,33
 275 1216 275 1216 250.5 1192.5 c 128,-1,34
 226 1169 226 1169 226 1103 c 2,35,-1
 226 1078 l 1,36,-1
 0 1078 l 1,37,-1
 0 1137 l 2,38,39
 0 1339 0 1339 84 1417 c 128,-1,40
 168 1495 168 1495 396 1495 c 2,17,-1
EndSplineSet
EndChar

StartChar: uni0183
Encoding: 387 387 329
Width: 1233
Flags: W
LayerCount: 2
Fore
SplineSet
739 -29 m 0,0,1
 534 -29 534 -29 442 166 c 1,2,-1
 442 0 l 1,3,-1
 150 0 l 1,4,-1
 150 1556 l 1,5,-1
 949 1556 l 1,6,-1
 949 1347 l 1,7,-1
 442 1347 l 1,8,-1
 442 961 l 1,9,10
 550 1147 550 1147 729 1147 c 0,11,12
 931 1147 931 1147 1039 991 c 0,13,14
 1143 841 1143 841 1143 559 c 0,15,16
 1143 279 1143 279 1037 125 c 128,-1,17
 931 -29 931 -29 739 -29 c 0,0,1
850 557 m 128,-1,19
 850 719 850 719 796 811 c 128,-1,20
 742 903 742 903 647 903 c 128,-1,21
 552 903 552 903 497 811 c 128,-1,22
 442 719 442 719 442 557 c 128,-1,23
 442 395 442 395 497 303 c 128,-1,24
 552 211 552 211 647 211 c 128,-1,25
 742 211 742 211 796 303 c 128,-1,18
 850 395 850 395 850 557 c 128,-1,19
EndSplineSet
EndChar

StartChar: uni0184
Encoding: 388 388 330
Width: 1233
Flags: W
LayerCount: 2
Fore
SplineSet
500 248 m 1,0,-1
 621 248 l 2,1,2
 766 248 766 248 824.5 297 c 128,-1,3
 883 346 883 346 883 467 c 128,-1,4
 883 588 883 588 824.5 637 c 128,-1,5
 766 686 766 686 621 686 c 2,6,-1
 500 686 l 1,7,-1
 500 248 l 1,0,-1
205 0 m 1,8,-1
 205 934 l 1,9,-1
 43 1068 l 1,10,-1
 500 1493 l 1,11,-1
 500 934 l 1,12,-1
 610 934 l 2,13,14
 919 934 919 934 1054.5 824 c 128,-1,15
 1190 714 1190 714 1190 467 c 128,-1,16
 1190 220 1190 220 1054.5 110 c 128,-1,17
 919 0 919 0 610 0 c 2,18,-1
 205 0 l 1,8,-1
EndSplineSet
EndChar

StartChar: uni0185
Encoding: 389 389 331
Width: 1233
Flags: W
LayerCount: 2
Fore
SplineSet
895 557 m 128,-1,1
 895 719 895 719 841 811 c 128,-1,2
 787 903 787 903 692 903 c 128,-1,3
 597 903 597 903 542 811 c 128,-1,4
 487 719 487 719 487 557 c 128,-1,5
 487 395 487 395 542 303 c 128,-1,6
 597 211 597 211 692 211 c 128,-1,7
 787 211 787 211 841 303 c 128,-1,0
 895 395 895 395 895 557 c 128,-1,1
487 961 m 1,8,9
 541 1054 541 1054 612.5 1100.5 c 128,-1,10
 684 1147 684 1147 774 1147 c 0,11,12
 973 1147 973 1147 1080.5 995 c 128,-1,13
 1188 843 1188 843 1188 559 c 0,14,15
 1188 279 1188 279 1082 125 c 128,-1,16
 976 -29 976 -29 784 -29 c 0,17,18
 683 -29 683 -29 608 20 c 128,-1,19
 533 69 533 69 487 166 c 1,20,-1
 487 0 l 1,21,-1
 195 0 l 1,22,-1
 195 934 l 1,23,-1
 45 1068 l 1,24,-1
 487 1556 l 1,25,-1
 487 961 l 1,8,9
EndSplineSet
EndChar

StartChar: uni0186
Encoding: 390 390 332
Width: 1233
Flags: W
LayerCount: 2
Fore
SplineSet
152 1448 m 1,0,1
 220 1484 220 1484 298 1502 c 128,-1,2
 376 1520 376 1520 461 1520 c 0,3,4
 763 1520 763 1520 922 1321 c 128,-1,5
 1081 1122 1081 1122 1081 745 c 0,6,7
 1081 369 1081 369 922 170 c 128,-1,8
 763 -29 763 -29 461 -29 c 0,9,10
 376 -29 376 -29 299 -11 c 128,-1,11
 222 7 222 7 152 43 c 1,12,-1
 152 371 l 1,13,14
 228 301 228 301 299.5 268.5 c 128,-1,15
 371 236 371 236 447 236 c 0,16,17
 609 236 609 236 691.5 364.5 c 128,-1,18
 774 493 774 493 774 745 c 0,19,20
 774 998 774 998 691.5 1126.5 c 128,-1,21
 609 1255 609 1255 447 1255 c 0,22,23
 371 1255 371 1255 299.5 1222.5 c 128,-1,24
 228 1190 228 1190 152 1120 c 1,25,-1
 152 1448 l 1,0,1
EndSplineSet
EndChar

StartChar: uni0187
Encoding: 391 391 333
Width: 1233
Flags: W
LayerCount: 2
Fore
SplineSet
786 236 m 0,0,1
 934 236 934 236 1081 371 c 1,2,-1
 1081 43 l 1,3,4
 941 -29 941 -29 772 -29 c 0,5,6
 470 -29 470 -29 311 170 c 128,-1,7
 152 369 152 369 152 745 c 0,8,9
 152 1292 152 1292 477 1456 c 0,10,11
 604 1520 604 1520 772 1520 c 0,12,13
 820 1520 820 1520 865 1514 c 1,14,15
 953 1643 953 1643 1181 1643 c 2,16,-1
 1278 1643 l 1,17,-1
 1278 1418 l 1,18,-1
 1263 1418 l 2,19,20
 1171 1418 1171 1418 1122 1363 c 0,21,22
 1081 1317 1081 1317 1081 1176 c 2,23,-1
 1081 1120 l 1,24,25
 935 1255 935 1255 786 1255 c 0,26,27
 624 1255 624 1255 541.5 1126.5 c 128,-1,28
 459 998 459 998 459 745 c 0,29,30
 459 267 459 267 748 238 c 0,31,32
 767 236 767 236 786 236 c 0,0,1
EndSplineSet
EndChar

StartChar: uni0188
Encoding: 392 392 334
Width: 1233
Flags: W
LayerCount: 2
Fore
SplineSet
762 211 m 0,0,1
 930 211 930 211 1061 326 c 1,2,-1
 1061 57 l 1,3,4
 913 -29 913 -29 719 -29 c 0,5,6
 460 -29 460 -29 314 127 c 128,-1,7
 168 283 168 283 168 559 c 0,8,9
 168 836 168 836 315 992.5 c 128,-1,10
 462 1149 462 1149 721 1149 c 0,11,12
 748 1149 748 1149 774 1147 c 1,13,14
 790 1362 790 1362 862 1448 c 0,15,16
 952 1556 952 1556 1162 1556 c 2,17,-1
 1283 1556 l 1,18,-1
 1283 1331 l 1,19,-1
 1244 1331 l 2,20,21
 1149 1331 1149 1331 1103 1276 c 0,22,23
 1068 1233 1068 1233 1062 1089 c 2,24,-1
 1061 1063 l 1,25,-1
 1061 795 l 1,26,27
 928 909 928 909 762 909 c 0,28,29
 591 909 591 909 516 782 c 0,30,31
 465 697 465 697 465 559 c 0,32,33
 465 291 465 291 651 228 c 0,34,35
 702 211 702 211 762 211 c 0,0,1
EndSplineSet
EndChar

StartChar: uni018A
Encoding: 394 394 336
Width: 1233
Flags: W
LayerCount: 2
Fore
SplineSet
282 1206 m 1,0,1
 253 1206 253 1206 242 1168 c 0,2,3
 227 1116 227 1116 227 1088 c 2,4,5
 227 1088 227 1088 227 1064 c 1,6,-1
 -28 1064 l 1,7,-1
 -28 1141 l 2,8,9
 -28 1291 -28 1291 20 1361 c 0,10,11
 95 1470 95 1470 231 1489 c 0,12,13
 256 1493 256 1493 282 1493 c 2,14,-1
 518 1493 l 2,15,16
 884 1493 884 1493 1045 1318.5 c 128,-1,17
 1206 1144 1206 1144 1206 748 c 0,18,19
 1206 351 1206 351 1045 175.5 c 128,-1,20
 884 0 884 0 518 0 c 2,21,-1
 282 0 l 1,22,-1
 282 1206 l 1,0,1
577 1227 m 1,23,-1
 577 266 l 1,24,25
 751 266 751 266 825 375.5 c 128,-1,26
 899 485 899 485 899 748 c 0,27,28
 899 1009 899 1009 825 1118 c 128,-1,29
 751 1227 751 1227 577 1227 c 1,23,-1
EndSplineSet
EndChar

StartChar: uni018B
Encoding: 395 395 337
Width: 1233
Flags: W
LayerCount: 2
Fore
SplineSet
874 678 m 1,0,-1
 678 678 l 2,1,2
 542 678 542 678 483 625 c 128,-1,3
 424 572 424 572 424 451 c 0,4,5
 424 332 424 332 480.5 284 c 128,-1,6
 537 236 537 236 678 236 c 2,7,-1
 874 236 l 1,8,-1
 874 678 l 1,0,-1
207 1494 m 1,9,-1
 1159 1493 l 1,10,-1
 1159 0 l 1,11,-1
 678 0 l 2,12,13
 385 0 385 0 255 97 c 128,-1,14
 125 194 125 194 125 410 c 0,15,16
 125 420 125 420 125 429 c 0,17,18
 128 603 128 603 200 684 c 0,19,20
 206 691 206 691 223 713 c 1,21,-1
 266 763 l 1,22,23
 406 910 406 910 678 913 c 1,24,-1
 874 913 l 1,25,-1
 874 1260 l 1,26,-1
 207 1260 l 1,27,-1
 207 1494 l 1,9,-1
EndSplineSet
EndChar

StartChar: uni018C
Encoding: 396 396 338
Width: 1233
Flags: W
LayerCount: 2
Fore
SplineSet
554 -29 m 0,0,1
 362 -29 362 -29 256 125 c 128,-1,2
 150 279 150 279 150 559 c 0,3,4
 150 841 150 841 254 991 c 0,5,6
 362 1147 362 1147 564 1147 c 0,7,8
 743 1147 743 1147 851 961 c 1,9,-1
 851 1347 l 1,10,-1
 344 1347 l 1,11,-1
 344 1556 l 1,12,-1
 1143 1556 l 1,13,-1
 1143 0 l 1,14,-1
 851 0 l 1,15,-1
 851 166 l 1,16,17
 759 -29 759 -29 554 -29 c 0,0,1
443 557 m 128,-1,19
 443 395 443 395 497 303 c 128,-1,20
 551 211 551 211 646 211 c 128,-1,21
 741 211 741 211 796 303 c 128,-1,22
 851 395 851 395 851 557 c 128,-1,23
 851 719 851 719 796 811 c 128,-1,24
 741 903 741 903 646 903 c 128,-1,25
 551 903 551 903 497 811 c 128,-1,18
 443 719 443 719 443 557 c 128,-1,19
EndSplineSet
EndChar

StartChar: uni018D
Encoding: 397 397 339
Width: 1233
Flags: W
LayerCount: 2
Fore
SplineSet
905 53 m 1,0,1
 1050 -10 1050 -10 1050 -161 c 0,2,3
 1050 -296 1050 -296 924 -374 c 0,4,5
 799 -451 799 -451 575 -451 c 0,6,7
 476 -451 476 -451 392 -439 c 0,8,9
 387 -438 387 -438 382 -437 c 0,10,11
 351 -433 351 -433 230 -403 c 1,12,-1
 230 -188 l 1,13,14
 242 -192 242 -192 255 -196 c 0,15,16
 351 -227 351 -227 389 -234 c 0,17,18
 479 -249 479 -249 560 -249 c 0,19,20
 664 -249 664 -249 722 -215 c 1,21,-1
 744 -200 l 2,22,23
 779 -175 779 -175 779 -131 c 0,24,25
 779 -29 779 -29 616 -29 c 0,26,27
 378 -29 378 -29 237.5 129.5 c 128,-1,28
 97 288 97 288 97 559 c 128,-1,29
 97 830 97 830 237.5 988.5 c 128,-1,30
 378 1147 378 1147 616 1147 c 0,31,32
 853 1147 853 1147 993.5 988.5 c 128,-1,33
 1134 830 1134 830 1134 559 c 0,34,35
 1134 296 1134 296 994 130 c 0,36,37
 931 55 931 55 905 53 c 1,0,1
616 209 m 0,38,39
 721 209 721 209 781 301.5 c 128,-1,40
 841 394 841 394 841 559 c 128,-1,41
 841 724 841 724 781 816.5 c 128,-1,42
 721 909 721 909 616 909 c 0,43,44
 510 909 510 909 450 816.5 c 128,-1,45
 390 724 390 724 390 559 c 128,-1,46
 390 394 390 394 450 301.5 c 128,-1,47
 510 209 510 209 616 209 c 0,38,39
EndSplineSet
EndChar

StartChar: uni018E
Encoding: 398 398 340
Width: 1233
Flags: W
LayerCount: 2
Fore
SplineSet
1098 1493 m 1,0,-1
 1098 0 l 1,1,-1
 168 0 l 1,2,-1
 168 260 l 1,3,-1
 803 260 l 1,4,-1
 803 651 l 1,5,-1
 228 651 l 1,6,-1
 228 911 l 1,7,-1
 803 911 l 1,8,-1
 803 1233 l 1,9,-1
 168 1233 l 1,10,-1
 168 1493 l 1,11,-1
 1098 1493 l 1,0,-1
EndSplineSet
EndChar

StartChar: uni018F
Encoding: 399 399 341
Width: 1233
Flags: W
LayerCount: 2
Fore
SplineSet
92 745 m 2,0,-1
 92 840 l 1,1,-1
 832 840 l 1,2,-1
 832 845 l 2,3,4
 832 1035 832 1035 777 1145 c 128,-1,5
 722 1255 722 1255 602 1255 c 0,6,7
 526 1255 526 1255 454.5 1222.5 c 128,-1,8
 383 1190 383 1190 307 1120 c 1,9,-1
 307 1448 l 1,10,11
 377 1484 377 1484 454 1502 c 128,-1,12
 531 1520 531 1520 616 1520 c 0,13,14
 876 1520 876 1520 1008.5 1324 c 128,-1,15
 1141 1128 1141 1128 1141 745 c 0,16,17
 1141 363 1141 363 1008.5 167 c 128,-1,18
 876 -29 876 -29 616 -29 c 0,19,20
 357 -29 357 -29 224.5 167 c 128,-1,21
 92 363 92 363 92 745 c 2,0,-1
405 580 m 1,22,23
 416 405 416 405 468.5 320.5 c 128,-1,24
 521 236 521 236 618 236 c 0,25,26
 718 236 718 236 765.5 324 c 128,-1,27
 813 412 813 412 828 580 c 1,28,-1
 405 580 l 1,22,23
EndSplineSet
EndChar

StartChar: uni0190
Encoding: 400 400 342
Width: 1233
Flags: W
LayerCount: 2
Fore
SplineSet
453 805 m 1,0,1
 312 831 312 831 236 915.5 c 128,-1,2
 160 1000 160 1000 160 1133 c 0,3,4
 160 1314 160 1314 292 1417 c 128,-1,5
 424 1520 424 1520 660 1520 c 0,6,7
 752 1520 752 1520 852 1503.5 c 128,-1,8
 952 1487 952 1487 1055 1456 c 1,9,-1
 1055 1188 l 1,10,11
 952 1228 952 1228 856 1249 c 128,-1,12
 760 1270 760 1270 676 1270 c 0,13,14
 566 1270 566 1270 505.5 1223.5 c 128,-1,15
 445 1177 445 1177 445 1094 c 0,16,17
 445 1015 445 1015 505.5 971.5 c 128,-1,18
 566 928 566 928 676 928 c 2,19,-1
 834 928 l 1,20,-1
 834 668 l 1,21,-1
 676 668 l 2,22,23
 548 668 548 668 478 605.5 c 128,-1,24
 408 543 408 543 408 428 c 0,25,26
 408 334 408 334 478 278.5 c 128,-1,27
 548 223 548 223 668 223 c 256,28,29
 788 223 788 223 897 247.5 c 128,-1,30
 1006 272 1006 272 1100 319 c 1,31,-1
 1100 45 l 1,32,33
 1000 9 1000 9 890.5 -10 c 128,-1,34
 781 -29 781 -29 668 -29 c 0,35,36
 403 -29 403 -29 264 85 c 128,-1,37
 125 199 125 199 125 416 c 0,38,39
 125 578 125 578 209 677.5 c 128,-1,40
 293 777 293 777 453 805 c 1,0,1
EndSplineSet
EndChar

StartChar: uni0191
Encoding: 401 401 343
Width: 1233
Flags: W
LayerCount: 2
Fore
SplineSet
1125 1233 m 1,0,-1
 585 1233 l 1,1,-1
 585 911 l 1,2,-1
 1068 911 l 1,3,-1
 1068 651 l 1,4,-1
 585 651 l 1,5,-1
 585 168 l 1,6,-1
 585 43 l 1,7,-1
 585 0 l 1,8,9
 577 -216 577 -216 494 -316 c 0,10,11
 404 -424 404 -424 194 -424 c 2,12,-1
 108 -424 l 1,13,-1
 108 -199 l 1,14,15
 212 -199 212 -199 253 -144 c 0,16,17
 290 -94 290 -94 290 43 c 2,18,-1
 290 168 l 1,19,-1
 290 1493 l 1,20,-1
 1125 1493 l 1,21,-1
 1125 1233 l 1,0,-1
EndSplineSet
EndChar

StartChar: florin
Encoding: 402 402 344
Width: 1233
Flags: W
LayerCount: 2
Fore
SplineSet
798 1218 m 1,0,-1
 798 1120 l 1,1,-1
 1142 1120 l 1,2,-1
 1142 895 l 1,3,-1
 798 895 l 1,4,-1
 798 0 l 1,5,6
 792 -217 792 -217 708 -316 c 0,7,8
 616 -424 616 -424 407 -424 c 2,9,-1
 91 -424 l 1,10,-1
 91 -199 l 1,11,-1
 325 -199 l 2,12,13
 424 -199 424 -199 464 -144 c 0,14,15
 505 -88 505 -88 505 43 c 2,16,-1
 505 895 l 1,17,-1
 233 895 l 1,18,-1
 233 1120 l 1,19,-1
 505 1120 l 1,20,-1
 505 1198 l 2,21,22
 505 1400 505 1400 589 1478 c 128,-1,23
 673 1556 673 1556 901 1556 c 2,24,-1
 1142 1556 l 1,25,-1
 1142 1331 l 1,26,-1
 913 1331 l 1,27,28
 802 1332 802 1332 798 1218 c 1,0,-1
EndSplineSet
EndChar

StartChar: uni0193
Encoding: 403 403 345
Width: 1233
Flags: W
LayerCount: 2
Fore
SplineSet
658 236 m 0,0,1
 751 236 751 236 793 270 c 1,2,-1
 793 555 l 1,3,-1
 591 555 l 1,4,-1
 591 803 l 1,5,-1
 1051 803 l 1,6,-1
 1051 119 l 1,7,8
 879 -29 879 -29 644 -29 c 0,9,10
 354 -29 354 -29 196 172.5 c 128,-1,11
 38 374 38 374 38 745 c 0,12,13
 38 1287 38 1287 358 1453 c 0,14,15
 487 1520 487 1520 658 1520 c 0,16,17
 718 1520 718 1520 778 1508 c 1,18,19
 788 1523 788 1523 798 1535 c 0,20,21
 888 1643 888 1643 1098 1643 c 2,22,-1
 1195 1643 l 1,23,-1
 1195 1418 l 1,24,-1
 1180 1418 l 2,25,26
 1088 1418 1088 1418 1039 1363 c 0,27,28
 998 1317 998 1317 998 1176 c 2,29,-1
 998 1094 l 1,30,-1
 995 1098 l 1,31,32
 870 1255 870 1255 679 1255 c 0,33,34
 364 1255 364 1255 346 801 c 0,35,36
 345 774 345 774 345 745 c 0,37,38
 345 333 345 333 557 254 c 0,39,40
 603 236 603 236 658 236 c 0,0,1
EndSplineSet
EndChar

StartChar: uni0194
Encoding: 404 404 346
Width: 1233
Flags: W
LayerCount: 2
Fore
SplineSet
616 510 m 0,0,-1
431 762 m 1,1,-1
 33 1493 l 1,2,-1
 354 1493 l 1,3,-1
 616 1012 l 1,4,-1
 877 1493 l 1,5,-1
 1200 1493 l 1,6,-1
 802 762 l 1,7,8
 1010 380 1010 380 1012 -14 c 0,9,10
 1014 -285 1014 -285 610 -290 c 128,-1,11
 206 -295 206 -295 204 -14 c 0,12,13
 202 335 202 335 431 762 c 1,1,-1
616 510 m 1,14,15
 472 243 472 243 474 126 c 1,16,17
 475 0 475 0 611 0 c 0,18,19
 750 0 750 0 750 130 c 0,20,21
 750 279 750 279 616 510 c 1,14,15
EndSplineSet
EndChar

StartChar: uni0195
Encoding: 405 405 347
Width: 1233
Flags: W
LayerCount: 2
Fore
SplineSet
1221 569 m 1,0,1
 1225 316 1225 316 1121 158 c 1,2,3
 1023 4 1023 4 863 0 c 2,4,-1
 774 -2 l 2,5,6
 638 -5 638 -5 570 116 c 0,7,8
 499 241 499 241 498 460 c 2,9,-1
 497 727 l 1,10,11
 493 813 493 813 470 855 c 1,12,13
 443 907 443 907 380 907 c 0,14,15
 316 907 316 907 280 836 c 0,16,17
 244 766 244 766 244 641 c 2,18,-1
 244 0 l 1,19,-1
 12 0 l 1,20,-1
 12 1556 l 1,21,-1
 244 1556 l 1,22,-1
 244 952 l 1,23,24
 269 1045 269 1045 329 1096 c 128,-1,25
 389 1147 389 1147 474 1147 c 0,26,27
 601 1147 601 1147 666 1042 c 0,28,29
 731 936 731 936 731 727 c 2,30,-1
 732 460 l 1,31,32
 734 289 734 289 739 279 c 0,33,34
 767 227 767 227 796 231 c 2,35,-1
 809 233 l 2,36,37
 897 246 897 246 940 330 c 0,38,39
 989 424 989 424 989 560 c 2,40,-1
 989 936 l 1,41,-1
 1221 936 l 1,42,-1
 1221 569 l 1,0,1
EndSplineSet
EndChar

StartChar: uni0196
Encoding: 406 406 348
Width: 1233
Flags: W
LayerCount: 2
Fore
SplineSet
470 462 m 2,0,1
 470 462 470 462 469 1233 c 1,2,-1
 172 1233 l 1,3,-1
 172 1493 l 1,4,-1
 1061 1493 l 1,5,-1
 1061 1233 l 1,6,-1
 764 1233 l 1,7,-1
 764 495 l 2,8,9
 764 353 764 353 802 307 c 0,10,11
 840 262 840 262 942 261 c 2,12,-1
 1128 260 l 1,13,-1
 1128 0 l 1,14,-1
 894 0 l 2,15,16
 688 0 688 0 580 118 c 0,17,18
 470 238 470 238 470 462 c 2,0,1
EndSplineSet
EndChar

StartChar: uni0197
Encoding: 407 407 349
Width: 1233
Flags: W
LayerCount: 2
Fore
SplineSet
172 1233 m 1,0,-1
 172 1493 l 1,1,-1
 1061 1493 l 1,2,-1
 1061 1233 l 1,3,-1
 764 1233 l 1,4,-1
 764 730 l 1,5,-1
 1011 730 l 1,6,-1
 1011 538 l 1,7,-1
 764 538 l 1,8,-1
 764 260 l 1,9,-1
 1061 260 l 1,10,-1
 1061 0 l 1,11,-1
 172 0 l 1,12,-1
 172 260 l 1,13,-1
 469 260 l 1,14,-1
 469 538 l 1,15,-1
 222 538 l 1,16,-1
 222 730 l 1,17,-1
 469 730 l 1,18,-1
 469 1233 l 1,19,-1
 172 1233 l 1,0,-1
EndSplineSet
EndChar

StartChar: uni0198
Encoding: 408 408 350
Width: 1233
Flags: W
LayerCount: 2
Fore
SplineSet
764 1060 m 2,0,-1
 640 905 l 1,1,-1
 1128 0 l 1,2,-1
 800 0 l 1,3,-1
 446 672 l 1,4,-1
 315 506 l 1,5,-1
 315 0 l 1,6,-1
 20 0 l 1,7,-1
 20 1493 l 1,8,-1
 315 1493 l 1,9,-1
 315 903 l 1,10,-1
 571 1230 l 2,11,12
 744 1451 744 1451 878 1479 c 1,13,14
 1008 1505 1008 1505 1149 1392 c 2,15,-1
 1213 1341 l 1,16,-1
 1073 1165 l 1,17,18
 996 1226 996 1226 928 1210 c 0,19,20
 874 1197 874 1197 764 1060 c 2,0,-1
EndSplineSet
EndChar

StartChar: uni0199
Encoding: 409 409 351
Width: 1233
Flags: W
LayerCount: 2
Fore
SplineSet
174 1089 m 2,0,1
 174 1339 174 1339 265 1448 c 0,2,3
 355 1556 355 1556 565 1556 c 2,4,-1
 686 1556 l 1,5,-1
 686 1331 l 1,6,-1
 647 1331 l 2,7,8
 549 1331 549 1331 506 1276 c 0,9,10
 465 1223 465 1223 465 1089 c 1,11,-1
 467 1089 l 1,12,-1
 467 739 l 1,13,-1
 819 1120 l 1,14,-1
 1174 1120 l 1,15,-1
 750 702 l 1,16,-1
 1198 0 l 1,17,-1
 874 0 l 1,18,-1
 567 524 l 1,19,-1
 467 428 l 1,20,-1
 467 0 l 1,21,-1
 174 0 l 1,22,-1
 174 964 l 1,23,-1
 174 1089 l 2,0,1
EndSplineSet
EndChar

StartChar: uni019A
Encoding: 410 410 352
Width: 1233
Flags: W
LayerCount: 2
Fore
SplineSet
690 753 m 1,0,-1
 874 753 l 1,1,-1
 874 561 l 1,2,-1
 690 561 l 1,3,-1
 680 561 l 1,4,-1
 680 467 l 2,5,6
 680 335 680 335 721 280 c 128,-1,7
 762 225 762 225 860 225 c 2,8,-1
 1094 225 l 1,9,-1
 1094 0 l 1,10,-1
 778 0 l 2,11,12
 569 0 569 0 478 108 c 128,-1,13
 387 216 387 216 387 467 c 2,14,-1
 387 561 l 1,15,-1
 219 561 l 1,16,-1
 219 753 l 1,17,-1
 387 753 l 1,18,-1
 387 1331 l 1,19,-1
 90 1331 l 1,20,-1
 90 1556 l 1,21,-1
 680 1556 l 1,22,-1
 680 753 l 1,23,-1
 690 753 l 1,0,-1
EndSplineSet
EndChar

StartChar: uni019B
Encoding: 411 411 353
Width: 1233
Flags: W
LayerCount: 2
Fore
SplineSet
768 1518 m 1,0,-1
 871 1358 l 1,1,-1
 641 1195 l 1,2,-1
 1153 0 l 1,3,-1
 856 0 l 1,4,-1
 601 596 l 1,5,-1
 377 0 l 1,6,-1
 80 0 l 1,7,-1
 443 965 l 1,8,-1
 413 1034 l 1,9,-1
 203 885 l 1,10,-1
 103 1047 l 1,11,-1
 337 1213 l 1,12,-1
 190 1556 l 1,13,-1
 487 1556 l 1,14,-1
 565 1374 l 1,15,-1
 768 1518 l 1,0,-1
EndSplineSet
EndChar

StartChar: uni019C
Encoding: 412 412 354
Width: 1233
Flags: W
LayerCount: 2
Fore
SplineSet
547 112 m 1,0,1
 514 41 514 41 463 7 c 128,-1,2
 412 -27 412 -27 338 -27 c 0,3,4
 193 -27 193 -27 137.5 73 c 128,-1,5
 82 173 82 173 82 489 c 2,6,-1
 82 1493 l 1,7,-1
 322 1493 l 1,8,-1
 322 401 l 2,9,10
 322 276 322 276 341 234 c 128,-1,11
 360 192 360 192 410 192 c 128,-1,12
 460 192 460 192 480 235 c 128,-1,13
 500 278 500 278 500 401 c 2,14,-1
 500 1493 l 1,15,-1
 737 1493 l 1,16,-1
 737 401 l 2,17,18
 737 278 737 278 757 235 c 128,-1,19
 777 192 777 192 827 192 c 128,-1,20
 877 192 877 192 896 234 c 128,-1,21
 915 276 915 276 915 401 c 2,22,-1
 915 1493 l 1,23,-1
 1155 1493 l 1,24,-1
 1155 0 l 1,25,-1
 942 0 l 1,26,-1
 942 116 l 1,27,28
 917 50 917 50 862 11.5 c 128,-1,29
 807 -27 807 -27 739 -27 c 128,-1,30
 671 -27 671 -27 615 13.5 c 128,-1,31
 559 54 559 54 547 112 c 1,0,1
EndSplineSet
EndChar

StartChar: uni019D
Encoding: 413 413 355
Width: 1233
Flags: W
LayerCount: 2
Fore
SplineSet
469 0 m 1,0,1
 460 -284 460 -284 312 -374 c 0,2,3
 228 -426 228 -426 78 -426 c 2,4,-1
 30 -426 l 1,5,-1
 30 -201 l 1,6,-1
 90 -201 l 2,7,8
 149 -201 149 -201 192 -126 c 1,9,10
 210 -97 210 -97 210 41 c 2,11,-1
 210 1493 l 1,12,-1
 526 1493 l 1,13,-1
 942 408 l 1,14,-1
 942 1493 l 1,15,-1
 1202 1493 l 1,16,-1
 1202 0 l 1,17,-1
 888 0 l 1,18,-1
 470 1085 l 1,19,-1
 470 0 l 1,20,-1
 469 0 l 1,0,1
EndSplineSet
EndChar

StartChar: uni019E
Encoding: 414 414 356
Width: 1233
Flags: W
LayerCount: 2
Fore
SplineSet
1071 727 m 2,0,-1
 1071 -426 l 1,1,-1
 780 -426 l 1,2,-1
 780 682 l 2,3,4
 780 804 780 804 745.5 856.5 c 128,-1,5
 711 909 711 909 633 909 c 0,6,7
 554 909 554 909 508.5 838 c 128,-1,8
 463 767 463 767 463 641 c 2,9,-1
 463 0 l 1,10,-1
 172 0 l 1,11,-1
 172 1120 l 1,12,-1
 463 1120 l 1,13,-1
 463 952 l 1,14,15
 494 1045 494 1045 569 1096 c 128,-1,16
 644 1147 644 1147 750 1147 c 0,17,18
 909 1147 909 1147 990 1041.5 c 128,-1,19
 1071 936 1071 936 1071 727 c 2,0,-1
EndSplineSet
EndChar

StartChar: uni019F
Encoding: 415 415 357
Width: 1233
Flags: W
LayerCount: 2
Fore
SplineSet
616 -29 m 0,0,1
 247 -29 247 -29 137 362 c 0,2,3
 92 522 92 522 92 745 c 0,4,5
 92 1373 92 1373 441 1493 c 0,6,7
 520 1520 520 1520 616 1520 c 0,8,9
 876 1520 876 1520 1008.5 1324 c 128,-1,10
 1141 1128 1141 1128 1141 745 c 0,11,12
 1141 105 1141 105 777 -7 c 0,13,14
 704 -29 704 -29 616 -29 c 0,0,1
828 911 m 1,15,16
 810 1108 810 1108 752 1187 c 0,17,18
 701 1255 701 1255 616 1255 c 0,19,20
 468 1255 468 1255 423 1041 c 0,21,22
 413 991 413 991 405 911 c 1,23,-1
 828 911 l 1,15,16
832 651 m 1,24,-1
 401 651 l 1,25,26
 410 451 410 451 451 356 c 0,27,28
 503 236 503 236 616 236 c 0,29,30
 730 236 730 236 782 356 c 0,31,32
 822 449 822 449 832 651 c 1,24,-1
EndSplineSet
EndChar

StartChar: Ohorn
Encoding: 416 416 358
Width: 1233
Flags: W
LayerCount: 2
Fore
SplineSet
828 1238 m 1,0,-1
 828 1379 l 1,1,2
 895 1329 895 1329 931.5 1310 c 128,-1,3
 968 1291 968 1291 994 1291 c 0,4,5
 1033 1291 1033 1291 1057.5 1320.5 c 128,-1,6
 1082 1350 1082 1350 1082 1399 c 0,7,8
 1082 1438 1082 1438 1074.5 1476.5 c 128,-1,9
 1067 1515 1067 1515 1051 1555 c 1,10,-1
 1207 1555 l 1,11,12
 1218 1500 1218 1500 1223.5 1453 c 128,-1,13
 1229 1406 1229 1406 1229 1365 c 0,14,15
 1229 1250 1229 1250 1183 1188.5 c 128,-1,16
 1137 1127 1137 1127 1051 1127 c 0,17,18
 998 1127 998 1127 943.5 1154 c 128,-1,19
 889 1181 889 1181 828 1238 c 1,0,-1
528 1255 m 0,20,21
 415 1255 415 1255 363 1134.5 c 128,-1,22
 311 1014 311 1014 311 745 c 0,23,24
 311 477 311 477 363 356.5 c 128,-1,25
 415 236 415 236 528 236 c 0,26,27
 642 236 642 236 694 356.5 c 128,-1,28
 746 477 746 477 746 745 c 0,29,30
 746 1014 746 1014 694 1134.5 c 128,-1,31
 642 1255 642 1255 528 1255 c 0,20,21
4 745 m 0,32,33
 4 1128 4 1128 136.5 1324 c 128,-1,34
 269 1520 269 1520 528 1520 c 0,35,36
 788 1520 788 1520 920.5 1324 c 128,-1,37
 1053 1128 1053 1128 1053 745 c 0,38,39
 1053 363 1053 363 920.5 167 c 128,-1,40
 788 -29 788 -29 528 -29 c 0,41,42
 269 -29 269 -29 136.5 167 c 128,-1,43
 4 363 4 363 4 745 c 0,32,33
EndSplineSet
EndChar

